<?xml version="1.0" encoding="UTF-8"?>
<svg width="30px" height="30px" viewBox="0 0 30 30" version="1.1" xmlns="http://www.w3.org/2000/svg" xmlns:xlink="http://www.w3.org/1999/xlink">
    <title>Donate Icon</title>
    <g id="Design" stroke="none" stroke-width="1" fill="none" fill-rule="evenodd">
        <g id="Desktop-HD" transform="translate(-769.000000, -3613.000000)">
            <g id="NGOs-Section" transform="translate(212.000000, 2835.000000)">
                <g id="Donate-Icon" transform="translate(557.000000, 778.000000)">
                    <ellipse id="Oval" fill="#C7AC1B" cx="14.2268041" cy="15.4736842" rx="14.2268041" ry="14.5263158"></ellipse>
                    <ellipse id="Oval" fill="#FFD700" cx="15.7731959" cy="14.5263158" rx="14.2268041" ry="14.5263158"></ellipse>
                    <path d="M9.79446002,23.5543179 L9.79446002,22.7928464 L12.8738028,22.7928464 L15.9526989,22.7928464 L15.9745858,22.7546563 C15.9866459,22.7332327 15.9982593,22.711809 16.001386,22.706686 C16.004066,22.7015629 16.0103194,22.6899196 16.0152327,22.6810707 C16.0259528,22.66151 16.136727,22.4575194 16.1492337,22.4342328 C16.1541471,22.4253839 16.1675472,22.399303 16.1796073,22.3760164 C16.1912207,22.3531955 16.2023875,22.3322376 16.2041741,22.3294432 C16.2059608,22.3271145 16.2189143,22.301965 16.2332077,22.2735554 C16.2475011,22.2456114 16.2644746,22.2120788 16.2711746,22.1990383 C16.3301351,22.0863312 16.4770895,21.7798796 16.5391766,21.6401601 C16.5458767,21.6247909 16.5619568,21.5893953 16.5744636,21.5614514 C16.5869703,21.5339732 16.5972437,21.5102209 16.5972437,21.5092894 C16.5972437,21.5083579 16.6021571,21.4967146 16.6079638,21.4832084 C16.6812177,21.315545 16.7884185,21.0416946 16.8402322,20.8912633 C16.9085727,20.6942587 16.909466,20.6909986 16.9456463,20.5713055 C16.9581531,20.5289239 16.9702131,20.4893367 16.9724465,20.4828164 C16.9773599,20.4688445 17.0193468,20.3160844 17.0256002,20.2895377 C17.0278336,20.2792916 17.0372136,20.2415673 17.0457004,20.205706 C17.0546338,20.1698446 17.0617805,20.1391063 17.0617805,20.1372434 C17.0617805,20.1349148 15.4265217,20.1335176 13.4281203,20.1335176 L9.79446002,20.1335176 L9.79446002,19.372046 L9.79446002,18.6105744 L13.4727873,18.6105744 C15.9379588,18.6105744 17.1511145,18.6091772 17.1511145,18.6059171 C17.1511145,18.5938081 17.1363744,18.500196 17.126101,18.4475683 C17.042127,18.0135062 16.8831125,17.6646731 16.6222572,17.3414552 C16.4663694,17.1486422 16.2930615,16.9842389 16.0545397,16.8035349 C15.9973659,16.7602218 15.8691717,16.6735957 15.7887711,16.6242281 C15.7606309,16.6069961 15.7298106,16.5879011 15.7208772,16.5818465 C15.7114972,16.575792 15.7034571,16.570669 15.7021171,16.570669 C15.7012238,16.570669 15.687377,16.5632173 15.6717435,16.5539026 C15.556056,16.4854401 15.3974882,16.403937 15.2460671,16.3345429 C15.2045267,16.3159137 15.1661131,16.2982159 15.1611998,16.2958872 C15.1263595,16.2795866 15.0044186,16.2292875 14.9088312,16.192029 C14.6841562,16.1049371 14.4054342,16.0136537 14.1651257,15.948917 C14.029338,15.9125899 14.0230847,15.910727 13.9909244,15.9028095 C13.973951,15.8986179 13.9257106,15.8869746 13.884617,15.8767285 C13.8430767,15.8664824 13.8042164,15.8571678 13.7975163,15.8557706 C13.7908163,15.8548391 13.7662494,15.8492504 13.7430226,15.8441273 C13.7197957,15.8385385 13.6854022,15.8310868 13.6670887,15.8278267 C13.6487752,15.8241008 13.6255484,15.8189778 13.6157216,15.8161834 C13.5907081,15.8101289 13.4651939,15.7849794 13.4035534,15.7738018 C13.3754132,15.7686788 13.3361062,15.7616928 13.3164528,15.7579669 C13.2655324,15.7486523 13.1757517,15.7323517 13.1623516,15.730023 C13.1422515,15.7267629 13.0310306,15.7085994 13.0149505,15.7062707 C13.0064638,15.7048735 12.9944037,15.7030106 12.9881503,15.7020791 C12.981897,15.7006819 12.9698369,15.698819 12.9613501,15.6974218 C12.9528634,15.6964903 12.9247232,15.6922987 12.8988163,15.6885729 C12.8729095,15.684847 12.8429826,15.6801897 12.8318158,15.6787925 C12.765262,15.6699436 12.7433752,15.6671492 12.7335484,15.6652863 C12.7272951,15.6638891 12.7103216,15.6615604 12.6955815,15.6601632 C12.6808414,15.658766 12.6638679,15.6564374 12.6576146,15.6555059 C12.6513612,15.6545745 12.6343877,15.6527115 12.6196476,15.6508486 C12.5857007,15.646657 12.5660472,15.6443284 12.5437137,15.641534 C12.533887,15.6401368 12.5187002,15.6382738 12.5102135,15.6368766 C12.5017267,15.6359452 12.4816266,15.6336165 12.4655465,15.6322193 C12.4280262,15.6284935 12.4043527,15.6256991 12.3851459,15.6229047 C12.3766591,15.6219732 12.3543256,15.6196446 12.3360122,15.6177816 C12.3176987,15.6163844 12.2967052,15.6140558 12.2891118,15.6131243 C12.2819651,15.6121929 12.261865,15.6103299 12.2444448,15.6089327 C12.2274714,15.6075355 12.2042445,15.6052069 12.1930778,15.6042754 C12.181911,15.603344 12.1600242,15.6010153 12.1439441,15.5996181 C12.127864,15.5982209 12.1050838,15.596358 12.092577,15.5949608 C12.0805169,15.5940293 12.0550568,15.5917007 12.0367433,15.5903035 C12.0184298,15.5889063 11.9920763,15.5865776 11.9786762,15.5856461 C11.9652761,15.5847147 11.9371359,15.582386 11.9161424,15.5809888 C11.8951489,15.5791259 11.869242,15.577263 11.8580753,15.5763315 C11.8469085,15.5754 11.8160883,15.5735371 11.7888415,15.5716742 C11.7620413,15.570277 11.7276477,15.5679483 11.7129076,15.5670169 C11.6981674,15.5660854 11.6619872,15.5637567 11.632507,15.5623596 C11.6030267,15.5614281 11.5596998,15.5590994 11.5364729,15.5577022 C11.5132461,15.556305 11.4699191,15.5539764 11.4404389,15.5525792 C11.4109587,15.551182 11.3707584,15.5493191 11.3511049,15.5483876 C11.0187824,15.532087 10.3322507,15.5367443 10.0356618,15.5572365 C10.012435,15.5586337 9.97134133,15.5614281 9.94409446,15.5628253 C9.91729426,15.5646882 9.88781404,15.5660854 9.87932731,15.5670169 C9.79401335,15.5730714 9.75559973,15.5763315 9.70378601,15.5809888 C9.64929228,15.5856461 9.62561877,15.5879748 9.59345853,15.5903035 C9.57514506,15.5917007 9.55102488,15.5940293 9.53985813,15.5949608 C9.52869139,15.5958922 9.50189119,15.5982209 9.47955769,15.5996181 C9.45767086,15.601481 9.43221067,15.603344 9.42372394,15.6042754 C9.41523721,15.6052069 9.39022369,15.6070698 9.36789019,15.6089327 C9.34600337,15.6103299 9.32054318,15.6126586 9.31205645,15.6135901 C9.30356972,15.6145215 9.27944954,15.6163844 9.25845605,15.6182474 C9.23746256,15.6196446 9.2115557,15.6219732 9.20038895,15.6229047 C9.18922221,15.6238362 9.16331535,15.6261648 9.14232186,15.627562 C9.12132837,15.6289592 9.09720819,15.6312879 9.08872146,15.6322193 C9.08023473,15.6331508 9.0538812,15.6354795 9.03065436,15.6368766 C9.00742753,15.6387396 8.981074,15.6406025 8.97258727,15.641534 C8.96410054,15.6424654 8.93998036,15.6443284 8.91898687,15.6461913 C8.89799338,15.6475885 8.87208652,15.6499171 8.86091977,15.6508486 C8.84975302,15.6517801 8.82563285,15.6541087 8.80731938,15.6555059 C8.78900591,15.6569031 8.76488573,15.658766 8.75371898,15.6601632 C8.74255223,15.6610947 8.71575203,15.6629576 8.69341853,15.6643548 C8.67153171,15.6662178 8.6433915,15.6680807 8.63088474,15.6694779 C8.60185119,15.6722723 8.56343757,15.6755324 8.52145059,15.6787925 C8.50313713,15.6801897 8.47901695,15.6825184 8.4678502,15.6834498 C8.45668345,15.6843813 8.43166993,15.6862442 8.41201645,15.6881071 C8.39236297,15.6895043 8.36734945,15.6913673 8.3561827,15.6927645 C8.34501595,15.6936959 8.3191091,15.6960246 8.29811561,15.6974218 C8.26238201,15.6997504 8.24540855,15.7011476 8.19002147,15.7067364 C8.16679463,15.7085994 8.14222779,15.710928 8.07299394,15.7165168 C8.03904702,15.7188455 8.03815368,15.7188455 8.04396039,15.7099965 C8.04753375,15.7053392 8.11542759,15.6252334 8.19538151,15.532087 C8.27533544,15.4389406 8.39280964,15.3020155 8.45668345,15.2270326 C8.52055725,15.1525155 8.76577907,14.8665562 9.00162082,14.5913087 C9.23746256,14.3160612 9.47464432,14.0394164 9.52869139,13.9765426 C9.58273845,13.9136688 9.68413254,13.795373 9.75425972,13.7134042 C9.82438691,13.6319011 9.92578099,13.5136052 9.97982806,13.4502657 C10.0338751,13.3873919 10.1352692,13.269096 10.2053964,13.1871272 C10.2755236,13.1056241 10.3840644,12.978945 10.4465982,12.9058251 C10.5095786,12.8327052 10.6462597,12.6729592 10.7503338,12.5514032 C10.8544079,12.4298472 10.9732221,12.2915248 11.013869,12.2440202 C11.054516,12.1965155 11.1903037,12.0386325 11.3153713,11.8923927 C11.6762806,11.4709053 11.9107824,11.1975208 12.0099431,11.0820193 C12.0604168,11.023337 12.2042445,10.8556736 12.3293121,10.7094338 C12.4543797,10.5636597 12.6151809,10.3759698 12.6866481,10.2926038 C12.7581153,10.2092378 12.9287432,10.0103703 13.0658709,9.85015854 C13.2029986,9.68994679 13.4053401,9.45428648 13.5152209,9.32621022 C13.624655,9.19813397 13.800643,8.99274623 13.9060571,8.86979302 C14.0114712,8.74683982 14.1561923,8.57824489 14.2276595,8.49487889 C14.4295543,8.25968431 14.6042023,8.05569377 14.8105638,7.8149104 C14.9150846,7.69335439 15.0584657,7.52569093 15.1299329,7.44232493 C15.2014001,7.35895893 15.4041882,7.12236716 15.5810695,6.91604795 C15.7579508,6.70972875 15.9625257,6.47080832 16.0362262,6.38511366 C16.1099268,6.299419 16.3359418,6.03534905 16.53873,5.79875727 L16.9076794,5.36842105 L17.1756813,5.37168118 C17.3230824,5.3735441 17.5111305,5.37680423 17.5933178,5.37913288 C17.675505,5.38146154 17.800126,5.38332447 17.8702531,5.38332447 C17.9403803,5.38332447 18.0449011,5.38472167 18.1025215,5.38565313 C18.160142,5.38705033 18.2861029,5.38937899 18.3816903,5.39077618 C18.4777243,5.39217338 18.5849251,5.3940363 18.6206587,5.3954335 C18.6563923,5.39683069 18.7425996,5.39776216 18.8118335,5.39776216 C18.8917874,5.39776216 18.9377944,5.39962509 18.936901,5.40241948 C18.9364544,5.40474814 18.8833006,5.4671562 18.8189802,5.54074183 C18.7551064,5.61432746 18.566165,5.83228996 18.3991104,6.02417148 C18.0864414,6.38418219 17.90018,6.59841884 17.3431826,7.23973158 C16.9858466,7.65143853 16.7223113,7.95416422 16.5865236,8.11065012 C16.5373899,8.16700368 16.3547019,8.37751447 16.180054,8.57871062 C16.005406,8.77944104 15.8030645,9.01230696 15.730704,9.09567296 C15.6583434,9.17903896 15.4560019,9.41190488 15.281354,9.6126353 C15.1071527,9.81383146 14.9039179,10.0476288 14.8302173,10.1319263 C14.7011297,10.2809605 14.4090075,10.6167532 13.7381092,11.3894023 C13.5621212,11.5919956 13.3584397,11.8267245 13.2847392,11.9110219 C13.2114853,11.9957851 13.084631,12.1415592 13.0037838,12.2347056 C12.4436596,12.8797442 11.9661694,13.428842 11.8022416,13.6174634 C11.4672391,14.0030894 11.4480323,14.0254445 11.4493723,14.0268417 C11.4498189,14.0273074 11.4752791,14.0287046 11.5056527,14.0301018 C11.59052,14.0338277 11.6472471,14.036622 11.6816407,14.0394164 C11.6990608,14.0408136 11.7379211,14.0426766 11.7687413,14.0440738 C11.7995615,14.045471 11.8357418,14.0473339 11.8491419,14.0487311 C11.862542,14.0496625 11.8938089,14.0515255 11.9183757,14.0533884 C11.9429426,14.0547856 11.9742095,14.0571142 11.9876096,14.0580457 C12.0010097,14.0589772 12.0304899,14.0613058 12.0523767,14.062703 C12.0747102,14.0641002 12.1015104,14.0664289 12.1126772,14.0673603 C12.1238439,14.0682918 12.1488575,14.0706205 12.1685109,14.0720177 C12.2082646,14.0748121 12.2498049,14.0785379 12.2734784,14.0813323 C12.2819651,14.0822638 12.3083186,14.0841267 12.3315455,14.0859896 C12.3547723,14.0873868 12.3788925,14.0897155 12.3851459,14.0906469 C12.3913992,14.0920441 12.4083727,14.0939071 12.4231128,14.0953043 C12.4378529,14.0967015 12.4570597,14.0985644 12.4655465,14.0994958 C12.4740332,14.100893 12.4963667,14.102756 12.5146802,14.1046189 C12.5329936,14.1064818 12.5530938,14.1083448 12.5593472,14.1092762 C12.5656005,14.1102077 12.5857007,14.1125363 12.6040142,14.1139335 C12.6223276,14.1153307 12.6406411,14.1176594 12.6442145,14.1185909 C12.6477878,14.1195223 12.6638679,14.121851 12.6799481,14.1232482 C12.6960282,14.1246454 12.715235,14.126974 12.7223817,14.1279055 C12.7299751,14.1293027 12.7447152,14.1311656 12.7558819,14.1325628 C12.7826821,14.1353572 12.8461093,14.1437404 12.9702835,14.160041 C12.9787703,14.1614382 12.9961904,14.1633011 13.0082505,14.165164 C13.031924,14.1684242 13.1386781,14.184259 13.1980852,14.1931079 C13.2226521,14.1968338 13.2387322,14.1996282 13.255259,14.2019568 C13.261959,14.203354 13.2762525,14.2056827 13.2874192,14.2070799 C13.298586,14.2084771 13.3137727,14.2108058 13.3209195,14.212203 C13.3423596,14.2159288 13.4937807,14.2420098 13.5103075,14.2448042 C13.5183476,14.2462014 13.5295143,14.24853 13.5348744,14.2494615 C13.5397878,14.250393 13.578648,14.2578447 13.6201883,14.2652964 C13.7465959,14.2890487 13.8555834,14.3109381 13.9328573,14.3281702 C13.9377707,14.3295674 13.9627842,14.3346904 13.9886911,14.3402792 C14.0145979,14.3454023 14.0561382,14.3551826 14.0815984,14.3612371 C14.1066119,14.3672917 14.1320721,14.3733462 14.1374322,14.3742776 C14.1914792,14.3845237 14.4585879,14.4539178 14.5983956,14.493505 C14.6354692,14.5037511 14.6685228,14.5130657 14.6720961,14.5139972 C14.6810295,14.5167916 14.792697,14.5503243 14.8507641,14.5680221 C15.0151387,14.6187868 15.2558938,14.7026186 15.4135683,14.7645609 C15.4738687,14.7878475 15.6668302,14.8670219 15.6838036,14.8754051 C15.7114972,14.8884456 15.7445507,14.903349 15.7463374,14.903349 C15.7485708,14.903349 15.8959719,14.9713458 15.9406389,14.9927695 C16.0147861,15.0286309 16.0371196,15.0398084 16.1059067,15.075204 C16.184074,15.115257 16.2805547,15.167419 16.3421952,15.2028146 C16.362742,15.2149236 16.3801621,15.224704 16.3806088,15.224704 C16.3832888,15.224704 16.5445367,15.3220419 16.5726769,15.3406712 C16.587417,15.3504516 16.6325306,15.3797927 16.6731776,15.4063394 C17.1381611,15.710928 17.5468641,16.0928281 17.852833,16.5077952 C17.9613738,16.6549664 18.0614279,16.8123838 18.1507619,16.9767871 C18.1824755,17.0354694 18.2704694,17.2171048 18.2874429,17.2585549 C18.2936963,17.2748555 18.3039697,17.2986078 18.3097764,17.3121141 C18.3691835,17.4481078 18.4580708,17.7205609 18.5000578,17.8933474 C18.5054178,17.9152368 18.5125646,17.9445779 18.5156913,17.9585499 C18.529538,18.0130405 18.568845,18.2151681 18.574205,18.2566182 C18.575545,18.2682615 18.5777784,18.2817678 18.5786717,18.2868908 C18.5795651,18.2920139 18.5844784,18.326478 18.5898385,18.3637366 C18.5947518,18.4009951 18.5996652,18.4363907 18.6005586,18.442911 C18.6014519,18.4494312 18.6036852,18.4661976 18.6050253,18.4801695 C18.6063653,18.4941415 18.6085986,18.5109078 18.609492,18.5174281 C18.6103853,18.5239483 18.6126186,18.5439748 18.6139587,18.5616726 C18.6152987,18.5798361 18.617532,18.5979997 18.618872,18.602657 C18.6211054,18.6101087 18.6970393,18.6105744 20.1353166,18.6105744 L21.6490811,18.6105744 L21.6490811,19.372046 L21.6490811,20.1335176 L20.099583,20.1335176 L18.5505315,20.1335176 L18.5384714,20.1977885 C18.5317714,20.2327184 18.5192646,20.2951265 18.5107779,20.3361109 C18.5018445,20.3770953 18.4938044,20.4148196 18.4929111,20.4199426 C18.4884444,20.443695 18.4536041,20.5890033 18.4393107,20.6434939 C18.4071505,20.7636527 18.3830303,20.853539 18.3745435,20.8810172 C18.3700768,20.8963863 18.3575701,20.9392336 18.3464033,20.9764922 C18.1998956,21.4729623 17.9810273,22.0281147 17.7049853,22.6079508 L17.6165446,22.7928464 L19.6328129,22.7928464 L21.6490811,22.7928464 L21.6490811,23.5543179 L21.6486345,24.3157895 L15.7217706,24.3157895 L9.79446002,24.3157895 L9.79446002,23.5543179 Z" id="Path" fill="#5E5735" fill-rule="nonzero" transform="translate(14.845159, 14.842105) scale(-1, 1) rotate(180.000000) translate(-14.845159, -14.842105) "></path>
                </g>
            </g>
        </g>
    </g>
</svg>