<svg xmlns="http://www.w3.org/2000/svg"><symbol viewBox="0 0 93 93" id="src-1">
    <title>Education Icon</title>
    <defs>
        <linearGradient x1="50%" y1="0%" x2="50%" y2="100%" id="linearGradient-1">
            <stop stop-color="#0000FF" stop-opacity="0.6" offset="0%"/>
            <stop stop-color="#5656FF" offset="100%"/>
        </linearGradient>
    </defs>
    <g id="Design" stroke="none" stroke-width="1" fill="none" fill-rule="evenodd">
        <g id="Icons" transform="translate(-402.000000, -106.000000)">
            <g id="Education-Icon" transform="translate(402.000000, 106.000000)">
                <circle id="Oval" fill="url(#linearGradient-1)" cx="46.5" cy="46.5" r="46.5"/>
                <g id="Group-2" transform="translate(20.866775, 14.322428)">
                    <g id="Group" transform="translate(0.000000, 4.000000)" fill="#CDCACA">
                        <polygon id="Path-5" points="0.133225277 2.20770393 0.133225277 54.9059572 26.0734065 60.6775722 50.1332253 54.9059572 50.1332253 2.8149865e-15 22.6332253 10.0770557"/>
                    </g>
                    <g id="Group">
                        <polygon id="Path-5" fill="#EEEEEE" points="0.133225277 0.677572163 0.133225277 55.9059572 26.0734065 61.6775722 50.1332253 55.9059572 50.1332253 0.677572163 26.0734065 9.74648447"/>
                        <line x1="25.6332253" y1="9.67757216" x2="25.6332253" y2="61.6775722" id="Path-6" stroke="#CDCACA"/>
                    </g>
                </g>
            </g>
        </g>
    </g>
</symbol><symbol viewBox="0 0 81.798645 93" id="src-2">
    <title>Inequality Icon</title>
    <g id="Design" stroke="none" stroke-width="1" fill="none" fill-rule="evenodd">
        <g id="Icons" transform="translate(-248.000000, -106.000000)">
            <g id="Inequality-Icon" transform="translate(248.000000, 106.000000)">
                <rect id="Rectangle" fill="#AD3A37" x="3" y="2" width="91" height="91" rx="28"/>
                <rect id="Rectangle" fill="#EE4540" x="0" y="0" width="91" height="91" rx="28"/>
                <g transform="translate(15.000000, 18.000000)" fill="#AD3A37" fill-rule="nonzero" id="Group">
                    <g transform="translate(33.500000, 29.000000) scale(-1, 1) rotate(-180.000000) translate(-33.500000, -29.000000) ">
                        <path d="M31.8630682,52.7413333 C22.19375,49.9573333 14.1613636,47.56 14.0471591,47.4053333 C13.9329545,47.2893333 11.3823864,41.5666667 8.375,34.684 L2.93125,22.1946667 L1.48465909,22.0013333 L0,21.808 L0.0761363636,19.72 C0.266477273,15.2733333 4.03522727,9.86 8.33693182,7.84933333 C9.47897727,7.308 11.4585227,6.68933333 12.7147727,6.496 C20.4806818,5.104 28.3607955,10.7493333 29.8835227,18.792 C30.3784091,21.5373333 30.15,21.924 28.0943182,22.0786667 L26.38125,22.1946667 L21.4323864,33.756 C18.7295455,40.0973333 16.5596591,45.3173333 16.6357955,45.3946667 C16.7880682,45.5106667 31.6727273,49.8413333 31.9772727,49.8413333 C32.0914773,49.8413333 32.1676136,40.9093333 32.1676136,30.044 L32.1676136,10.208 L26.6096591,6.148 C21.8130682,2.62933333 21.1278409,1.972 21.2039773,1.12133333 L21.3181818,0.154666667 L32.7767045,0.0386666667 C42.5982955,-0.0386666667 44.3113636,0.0386666667 44.7301136,0.541333333 C44.9965909,0.850666667 45.1107955,1.35333333 44.9965909,1.66266667 C44.8823864,1.972 42.5602273,3.98266667 39.8193182,6.148 L34.8323864,10.092 L34.9085227,30.392 L35.0227273,50.7306667 L40.7329545,52.3933333 C43.8926136,53.3213333 46.7857955,54.1333333 47.2426136,54.2493333 C47.9659091,54.4426667 47.6232955,53.0893333 43.5880682,39.5173333 L39.1340909,24.5533333 L37.8778409,24.2053333 L36.6215909,23.896 L36.85,21.7693333 C37.1545455,18.8693333 38.9818182,15.08 41.1136364,12.9146667 C42.0653409,11.9093333 44.0068182,10.556 45.4153409,9.89866667 C47.7375,8.77733333 48.2704545,8.66133333 51.7727273,8.66133333 C55.275,8.66133333 55.8079545,8.77733333 58.1301136,9.89866667 C62.8886364,12.18 66.2767045,16.82 66.6954545,21.6533333 C66.9238636,24.0893333 67,24.012 64.3732955,24.3986667 C63.8022727,24.476 62.5840909,27.4146667 58.4727273,38.4346667 C55.5795455,46.0906667 52.7625,53.6306667 52.1914773,55.1773333 C51.3159091,57.4973333 51.0113636,57.9613333 50.3261364,57.9226667 C49.8693182,57.884 41.5704545,55.564 31.8630682,52.7413333 Z M55.5795455,38.2413333 C58.2443182,31.1266667 60.5284091,25.056 60.6045455,24.824 C60.7568182,24.476 60.3380682,24.3213333 59.2340909,24.3213333 C57.7494318,24.3213333 57.6732955,24.36 57.2926136,25.984 C56.5693182,28.8066667 56.4551136,29.1546667 56.0744318,29.6573333 C55.8460227,29.8893333 55.1227273,30.1213333 54.4755682,30.1213333 C53.4857955,30.16 53.4096591,30.1986667 53.9806818,30.5466667 C54.8943182,31.088 55.7698864,32.944 55.7698864,34.3746667 C55.7698864,37.816 51.9630682,40.0586667 48.9176136,38.4346667 C47.5471591,37.7386667 46.6335227,36.0373333 46.6335227,34.2973333 C46.6335227,32.9053333 47.8517045,30.5466667 48.6130682,30.4693333 C48.8795455,30.4306667 48.4227273,30.276 47.6232955,30.16 C46.1386364,29.928 46.1386364,29.928 45.3772727,27.144 C44.6539773,24.3213333 44.6539773,24.3213333 43.3215909,24.3213333 C42.4079545,24.3213333 42.0272727,24.476 42.1414773,24.8626667 C43.0551136,28.884 50.3261364,52.316 50.4784091,51.852 C50.6306818,51.504 52.9147727,45.356 55.5795455,38.2413333 Z M16.33125,38.6666667 C17.0926136,36.9266667 17.7017045,35.38 17.7017045,35.3026667 C17.7017045,35.1866667 17.3590909,35.3026667 16.9784091,35.5346667 C16.0267045,36.0373333 13.6664773,36.0373333 12.7147727,35.5346667 C10.8875,34.5293333 10.2784091,30.972 11.6488636,29.1933333 C12.4102273,28.2266667 12.4102273,28.188 11.6869318,28.188 C10.6210227,28.188 10.2403409,27.5306667 9.47897727,24.592 L8.86988636,22.0013333 L7.38522727,22.0013333 L5.90056818,22.0013333 L6.39545455,23.2773333 C7.5375,25.984 14.0090909,40.7933333 14.3517045,41.4506667 C14.5420455,41.8373333 14.7704545,42.108 14.8465909,42.0306667 C14.9227273,41.9533333 15.6079545,40.4453333 16.33125,38.6666667 Z M45.3011364,20.764 C46.0244318,20.2613333 46.6715909,19.5266667 46.7857955,19.1013333 C47.2426136,17.052 47.8517045,12.296 47.6613636,12.1026667 C47.31875,11.716 44.9585227,13.1466667 43.2835227,14.8093333 C41.6085227,16.3946667 40.3142045,18.5213333 39.7431818,20.532 L39.4386364,21.6146667 L41.7227273,21.6146667 C43.4357955,21.6146667 44.3113636,21.3826667 45.3011364,20.764 Z M53.3335227,20.3773333 C53.2193182,19.6813333 52.9147727,17.5933333 52.6863636,15.7373333 C52.2676136,12.6826667 52.1534091,12.3346667 51.4301136,12.3346667 C50.66875,12.3346667 50.5545455,12.76 49.83125,16.9746667 L49.0698864,21.6146667 L51.3159091,21.6146667 L53.5619318,21.6146667 L53.3335227,20.3773333 Z M63.9164773,20.764 C62.6602273,16.588 59.2721591,12.9533333 55.5795455,11.7933333 C54.7801136,11.5613333 54.7801136,11.5613333 55.3892045,15.5826667 C56.1886364,21.112 56.6454545,21.6146667 60.9852273,21.6146667 C64.1448864,21.6146667 64.1829545,21.6146667 63.9164773,20.764 Z M10.3926136,18.9853333 C10.6590909,18.792 11.1539773,16.8586667 11.4965909,14.616 C11.8392045,12.412 12.2579545,10.3626667 12.4863636,10.1306667 C12.7147727,9.82133333 13.7806818,9.628 15.2653409,9.628 C18.1965909,9.628 18.1965909,9.628 18.84375,14.848 C19.1102273,16.9746667 19.5289773,18.8306667 19.7573864,18.9853333 C19.9857955,19.14 21.775,19.2946667 23.7164773,19.2946667 C27.21875,19.2946667 27.2568182,19.2946667 27.0284091,18.444 C26.38125,16.1626667 25.0869318,14.1133333 23.1835227,12.3733333 C20.6710227,10.0146667 18.1204545,9.048 14.5801136,9.08666667 C10.05,9.164 5.74829545,12.064 3.76875,16.3173333 C3.27386364,17.4386667 2.85511364,18.56 2.85511364,18.8306667 C2.85511364,19.372 9.55511364,19.488 10.3926136,18.9853333 Z M39.4005682,2.784 C39.4005682,2.74533333 36.5454545,2.668 33.0431818,2.668 L26.6857955,2.668 L30.0357955,5.18133333 L33.3857955,7.69466667 L36.3931818,5.29733333 C38.0301136,3.98266667 39.4005682,2.86133333 39.4005682,2.784 Z" id="Shape"/>
                    </g>
                </g>
                <g transform="translate(12.000000, 16.000000)" fill="#EEEEEE" fill-rule="nonzero" id="Group">
                    <g transform="translate(33.500000, 29.000000) scale(-1, 1) rotate(-180.000000) translate(-33.500000, -29.000000) ">
                        <path d="M31.8630682,52.7413333 C22.19375,49.9573333 14.1613636,47.56 14.0471591,47.4053333 C13.9329545,47.2893333 11.3823864,41.5666667 8.375,34.684 L2.93125,22.1946667 L1.48465909,22.0013333 L0,21.808 L0.0761363636,19.72 C0.266477273,15.2733333 4.03522727,9.86 8.33693182,7.84933333 C9.47897727,7.308 11.4585227,6.68933333 12.7147727,6.496 C20.4806818,5.104 28.3607955,10.7493333 29.8835227,18.792 C30.3784091,21.5373333 30.15,21.924 28.0943182,22.0786667 L26.38125,22.1946667 L21.4323864,33.756 C18.7295455,40.0973333 16.5596591,45.3173333 16.6357955,45.3946667 C16.7880682,45.5106667 31.6727273,49.8413333 31.9772727,49.8413333 C32.0914773,49.8413333 32.1676136,40.9093333 32.1676136,30.044 L32.1676136,10.208 L26.6096591,6.148 C21.8130682,2.62933333 21.1278409,1.972 21.2039773,1.12133333 L21.3181818,0.154666667 L32.7767045,0.0386666667 C42.5982955,-0.0386666667 44.3113636,0.0386666667 44.7301136,0.541333333 C44.9965909,0.850666667 45.1107955,1.35333333 44.9965909,1.66266667 C44.8823864,1.972 42.5602273,3.98266667 39.8193182,6.148 L34.8323864,10.092 L34.9085227,30.392 L35.0227273,50.7306667 L40.7329545,52.3933333 C43.8926136,53.3213333 46.7857955,54.1333333 47.2426136,54.2493333 C47.9659091,54.4426667 47.6232955,53.0893333 43.5880682,39.5173333 L39.1340909,24.5533333 L37.8778409,24.2053333 L36.6215909,23.896 L36.85,21.7693333 C37.1545455,18.8693333 38.9818182,15.08 41.1136364,12.9146667 C42.0653409,11.9093333 44.0068182,10.556 45.4153409,9.89866667 C47.7375,8.77733333 48.2704545,8.66133333 51.7727273,8.66133333 C55.275,8.66133333 55.8079545,8.77733333 58.1301136,9.89866667 C62.8886364,12.18 66.2767045,16.82 66.6954545,21.6533333 C66.9238636,24.0893333 67,24.012 64.3732955,24.3986667 C63.8022727,24.476 62.5840909,27.4146667 58.4727273,38.4346667 C55.5795455,46.0906667 52.7625,53.6306667 52.1914773,55.1773333 C51.3159091,57.4973333 51.0113636,57.9613333 50.3261364,57.9226667 C49.8693182,57.884 41.5704545,55.564 31.8630682,52.7413333 Z M55.5795455,38.2413333 C58.2443182,31.1266667 60.5284091,25.056 60.6045455,24.824 C60.7568182,24.476 60.3380682,24.3213333 59.2340909,24.3213333 C57.7494318,24.3213333 57.6732955,24.36 57.2926136,25.984 C56.5693182,28.8066667 56.4551136,29.1546667 56.0744318,29.6573333 C55.8460227,29.8893333 55.1227273,30.1213333 54.4755682,30.1213333 C53.4857955,30.16 53.4096591,30.1986667 53.9806818,30.5466667 C54.8943182,31.088 55.7698864,32.944 55.7698864,34.3746667 C55.7698864,37.816 51.9630682,40.0586667 48.9176136,38.4346667 C47.5471591,37.7386667 46.6335227,36.0373333 46.6335227,34.2973333 C46.6335227,32.9053333 47.8517045,30.5466667 48.6130682,30.4693333 C48.8795455,30.4306667 48.4227273,30.276 47.6232955,30.16 C46.1386364,29.928 46.1386364,29.928 45.3772727,27.144 C44.6539773,24.3213333 44.6539773,24.3213333 43.3215909,24.3213333 C42.4079545,24.3213333 42.0272727,24.476 42.1414773,24.8626667 C43.0551136,28.884 50.3261364,52.316 50.4784091,51.852 C50.6306818,51.504 52.9147727,45.356 55.5795455,38.2413333 Z M16.33125,38.6666667 C17.0926136,36.9266667 17.7017045,35.38 17.7017045,35.3026667 C17.7017045,35.1866667 17.3590909,35.3026667 16.9784091,35.5346667 C16.0267045,36.0373333 13.6664773,36.0373333 12.7147727,35.5346667 C10.8875,34.5293333 10.2784091,30.972 11.6488636,29.1933333 C12.4102273,28.2266667 12.4102273,28.188 11.6869318,28.188 C10.6210227,28.188 10.2403409,27.5306667 9.47897727,24.592 L8.86988636,22.0013333 L7.38522727,22.0013333 L5.90056818,22.0013333 L6.39545455,23.2773333 C7.5375,25.984 14.0090909,40.7933333 14.3517045,41.4506667 C14.5420455,41.8373333 14.7704545,42.108 14.8465909,42.0306667 C14.9227273,41.9533333 15.6079545,40.4453333 16.33125,38.6666667 Z M45.3011364,20.764 C46.0244318,20.2613333 46.6715909,19.5266667 46.7857955,19.1013333 C47.2426136,17.052 47.8517045,12.296 47.6613636,12.1026667 C47.31875,11.716 44.9585227,13.1466667 43.2835227,14.8093333 C41.6085227,16.3946667 40.3142045,18.5213333 39.7431818,20.532 L39.4386364,21.6146667 L41.7227273,21.6146667 C43.4357955,21.6146667 44.3113636,21.3826667 45.3011364,20.764 Z M53.3335227,20.3773333 C53.2193182,19.6813333 52.9147727,17.5933333 52.6863636,15.7373333 C52.2676136,12.6826667 52.1534091,12.3346667 51.4301136,12.3346667 C50.66875,12.3346667 50.5545455,12.76 49.83125,16.9746667 L49.0698864,21.6146667 L51.3159091,21.6146667 L53.5619318,21.6146667 L53.3335227,20.3773333 Z M63.9164773,20.764 C62.6602273,16.588 59.2721591,12.9533333 55.5795455,11.7933333 C54.7801136,11.5613333 54.7801136,11.5613333 55.3892045,15.5826667 C56.1886364,21.112 56.6454545,21.6146667 60.9852273,21.6146667 C64.1448864,21.6146667 64.1829545,21.6146667 63.9164773,20.764 Z M10.3926136,18.9853333 C10.6590909,18.792 11.1539773,16.8586667 11.4965909,14.616 C11.8392045,12.412 12.2579545,10.3626667 12.4863636,10.1306667 C12.7147727,9.82133333 13.7806818,9.628 15.2653409,9.628 C18.1965909,9.628 18.1965909,9.628 18.84375,14.848 C19.1102273,16.9746667 19.5289773,18.8306667 19.7573864,18.9853333 C19.9857955,19.14 21.775,19.2946667 23.7164773,19.2946667 C27.21875,19.2946667 27.2568182,19.2946667 27.0284091,18.444 C26.38125,16.1626667 25.0869318,14.1133333 23.1835227,12.3733333 C20.6710227,10.0146667 18.1204545,9.048 14.5801136,9.08666667 C10.05,9.164 5.74829545,12.064 3.76875,16.3173333 C3.27386364,17.4386667 2.85511364,18.56 2.85511364,18.8306667 C2.85511364,19.372 9.55511364,19.488 10.3926136,18.9853333 Z M39.4005682,2.784 C39.4005682,2.74533333 36.5454545,2.668 33.0431818,2.668 L26.6857955,2.668 L30.0357955,5.18133333 L33.3857955,7.69466667 L36.3931818,5.29733333 C38.0301136,3.98266667 39.4005682,2.86133333 39.4005682,2.784 Z" id="Shape"/>
                    </g>
                </g>
            </g>
        </g>
    </g>
</symbol><symbol viewBox="0 0 186 186" id="src-3"><symbol viewBox="0 0 186 186" id="education">
    <title>Education Icon</title>
    <defs>
        <linearGradient x1="50%" y1="0%" x2="50%" y2="100%" id="linearGradient-1">
            <stop stop-color="#9F9FFF" offset="0%"/>
            <stop stop-color="#6666FF" offset="100%"/>
        </linearGradient>
    </defs>
    <g id="Design" stroke="none" stroke-width="1" fill="none" fill-rule="evenodd">
        <g id="Desktop-HD" transform="translate(-995.000000, -2372.000000)">
            <g id="Education-Icon" transform="translate(995.000000, 2372.000000)">
                <circle id="Oval" fill="url(#linearGradient-1)" cx="93" cy="93" r="93"/>
                <g id="Group-2" transform="translate(41.733549, 29.644856)">
                    <g id="Group" transform="translate(0.000000, 7.000000)" fill="#CDCACA">
                        <polygon id="Path-5" points="0.266450553 4.41540786 0.266450553 109.811914 52.146813 121.355144 100.266451 109.811914 100.266451 5.629973e-15 45.2664506 20.1541115"/>
                    </g>
                    <g id="Group">
                        <polygon id="Path-5" fill="#EEEEEE" points="0.266450553 0.355144327 0.266450553 110.811914 52.146813 122.355144 100.266451 110.811914 100.266451 0.355144327 52.146813 18.4929689"/>
                        <line x1="51.2664506" y1="18.3551443" x2="51.2664506" y2="122.355144" id="Path-6" stroke="#CDCACA" stroke-width="2"/>
                    </g>
                </g>
            </g>
        </g>
    </g>
</symbol><symbol viewBox="0 0 81.798645 93" id="inequality">
    <title>Inequality Icon</title>
    <g id="Design" stroke="none" stroke-width="1" fill="none" fill-rule="evenodd">
        <g id="Icons" transform="translate(-248.000000, -106.000000)">
            <g id="Inequality-Icon" transform="translate(248.000000, 106.000000)">
                <rect id="Rectangle" fill="#AD3A37" x="3" y="2" width="91" height="91" rx="28"/>
                <rect id="Rectangle" fill="#EE4540" x="0" y="0" width="91" height="91" rx="28"/>
                <g transform="translate(15.000000, 18.000000)" fill="#AD3A37" fill-rule="nonzero" id="Group">
                    <g transform="translate(33.500000, 29.000000) scale(-1, 1) rotate(-180.000000) translate(-33.500000, -29.000000) ">
                        <path d="M31.8630682,52.7413333 C22.19375,49.9573333 14.1613636,47.56 14.0471591,47.4053333 C13.9329545,47.2893333 11.3823864,41.5666667 8.375,34.684 L2.93125,22.1946667 L1.48465909,22.0013333 L0,21.808 L0.0761363636,19.72 C0.266477273,15.2733333 4.03522727,9.86 8.33693182,7.84933333 C9.47897727,7.308 11.4585227,6.68933333 12.7147727,6.496 C20.4806818,5.104 28.3607955,10.7493333 29.8835227,18.792 C30.3784091,21.5373333 30.15,21.924 28.0943182,22.0786667 L26.38125,22.1946667 L21.4323864,33.756 C18.7295455,40.0973333 16.5596591,45.3173333 16.6357955,45.3946667 C16.7880682,45.5106667 31.6727273,49.8413333 31.9772727,49.8413333 C32.0914773,49.8413333 32.1676136,40.9093333 32.1676136,30.044 L32.1676136,10.208 L26.6096591,6.148 C21.8130682,2.62933333 21.1278409,1.972 21.2039773,1.12133333 L21.3181818,0.154666667 L32.7767045,0.0386666667 C42.5982955,-0.0386666667 44.3113636,0.0386666667 44.7301136,0.541333333 C44.9965909,0.850666667 45.1107955,1.35333333 44.9965909,1.66266667 C44.8823864,1.972 42.5602273,3.98266667 39.8193182,6.148 L34.8323864,10.092 L34.9085227,30.392 L35.0227273,50.7306667 L40.7329545,52.3933333 C43.8926136,53.3213333 46.7857955,54.1333333 47.2426136,54.2493333 C47.9659091,54.4426667 47.6232955,53.0893333 43.5880682,39.5173333 L39.1340909,24.5533333 L37.8778409,24.2053333 L36.6215909,23.896 L36.85,21.7693333 C37.1545455,18.8693333 38.9818182,15.08 41.1136364,12.9146667 C42.0653409,11.9093333 44.0068182,10.556 45.4153409,9.89866667 C47.7375,8.77733333 48.2704545,8.66133333 51.7727273,8.66133333 C55.275,8.66133333 55.8079545,8.77733333 58.1301136,9.89866667 C62.8886364,12.18 66.2767045,16.82 66.6954545,21.6533333 C66.9238636,24.0893333 67,24.012 64.3732955,24.3986667 C63.8022727,24.476 62.5840909,27.4146667 58.4727273,38.4346667 C55.5795455,46.0906667 52.7625,53.6306667 52.1914773,55.1773333 C51.3159091,57.4973333 51.0113636,57.9613333 50.3261364,57.9226667 C49.8693182,57.884 41.5704545,55.564 31.8630682,52.7413333 Z M55.5795455,38.2413333 C58.2443182,31.1266667 60.5284091,25.056 60.6045455,24.824 C60.7568182,24.476 60.3380682,24.3213333 59.2340909,24.3213333 C57.7494318,24.3213333 57.6732955,24.36 57.2926136,25.984 C56.5693182,28.8066667 56.4551136,29.1546667 56.0744318,29.6573333 C55.8460227,29.8893333 55.1227273,30.1213333 54.4755682,30.1213333 C53.4857955,30.16 53.4096591,30.1986667 53.9806818,30.5466667 C54.8943182,31.088 55.7698864,32.944 55.7698864,34.3746667 C55.7698864,37.816 51.9630682,40.0586667 48.9176136,38.4346667 C47.5471591,37.7386667 46.6335227,36.0373333 46.6335227,34.2973333 C46.6335227,32.9053333 47.8517045,30.5466667 48.6130682,30.4693333 C48.8795455,30.4306667 48.4227273,30.276 47.6232955,30.16 C46.1386364,29.928 46.1386364,29.928 45.3772727,27.144 C44.6539773,24.3213333 44.6539773,24.3213333 43.3215909,24.3213333 C42.4079545,24.3213333 42.0272727,24.476 42.1414773,24.8626667 C43.0551136,28.884 50.3261364,52.316 50.4784091,51.852 C50.6306818,51.504 52.9147727,45.356 55.5795455,38.2413333 Z M16.33125,38.6666667 C17.0926136,36.9266667 17.7017045,35.38 17.7017045,35.3026667 C17.7017045,35.1866667 17.3590909,35.3026667 16.9784091,35.5346667 C16.0267045,36.0373333 13.6664773,36.0373333 12.7147727,35.5346667 C10.8875,34.5293333 10.2784091,30.972 11.6488636,29.1933333 C12.4102273,28.2266667 12.4102273,28.188 11.6869318,28.188 C10.6210227,28.188 10.2403409,27.5306667 9.47897727,24.592 L8.86988636,22.0013333 L7.38522727,22.0013333 L5.90056818,22.0013333 L6.39545455,23.2773333 C7.5375,25.984 14.0090909,40.7933333 14.3517045,41.4506667 C14.5420455,41.8373333 14.7704545,42.108 14.8465909,42.0306667 C14.9227273,41.9533333 15.6079545,40.4453333 16.33125,38.6666667 Z M45.3011364,20.764 C46.0244318,20.2613333 46.6715909,19.5266667 46.7857955,19.1013333 C47.2426136,17.052 47.8517045,12.296 47.6613636,12.1026667 C47.31875,11.716 44.9585227,13.1466667 43.2835227,14.8093333 C41.6085227,16.3946667 40.3142045,18.5213333 39.7431818,20.532 L39.4386364,21.6146667 L41.7227273,21.6146667 C43.4357955,21.6146667 44.3113636,21.3826667 45.3011364,20.764 Z M53.3335227,20.3773333 C53.2193182,19.6813333 52.9147727,17.5933333 52.6863636,15.7373333 C52.2676136,12.6826667 52.1534091,12.3346667 51.4301136,12.3346667 C50.66875,12.3346667 50.5545455,12.76 49.83125,16.9746667 L49.0698864,21.6146667 L51.3159091,21.6146667 L53.5619318,21.6146667 L53.3335227,20.3773333 Z M63.9164773,20.764 C62.6602273,16.588 59.2721591,12.9533333 55.5795455,11.7933333 C54.7801136,11.5613333 54.7801136,11.5613333 55.3892045,15.5826667 C56.1886364,21.112 56.6454545,21.6146667 60.9852273,21.6146667 C64.1448864,21.6146667 64.1829545,21.6146667 63.9164773,20.764 Z M10.3926136,18.9853333 C10.6590909,18.792 11.1539773,16.8586667 11.4965909,14.616 C11.8392045,12.412 12.2579545,10.3626667 12.4863636,10.1306667 C12.7147727,9.82133333 13.7806818,9.628 15.2653409,9.628 C18.1965909,9.628 18.1965909,9.628 18.84375,14.848 C19.1102273,16.9746667 19.5289773,18.8306667 19.7573864,18.9853333 C19.9857955,19.14 21.775,19.2946667 23.7164773,19.2946667 C27.21875,19.2946667 27.2568182,19.2946667 27.0284091,18.444 C26.38125,16.1626667 25.0869318,14.1133333 23.1835227,12.3733333 C20.6710227,10.0146667 18.1204545,9.048 14.5801136,9.08666667 C10.05,9.164 5.74829545,12.064 3.76875,16.3173333 C3.27386364,17.4386667 2.85511364,18.56 2.85511364,18.8306667 C2.85511364,19.372 9.55511364,19.488 10.3926136,18.9853333 Z M39.4005682,2.784 C39.4005682,2.74533333 36.5454545,2.668 33.0431818,2.668 L26.6857955,2.668 L30.0357955,5.18133333 L33.3857955,7.69466667 L36.3931818,5.29733333 C38.0301136,3.98266667 39.4005682,2.86133333 39.4005682,2.784 Z" id="Shape"/>
                    </g>
                </g>
                <g transform="translate(12.000000, 16.000000)" fill="#EEEEEE" fill-rule="nonzero" id="Group">
                    <g transform="translate(33.500000, 29.000000) scale(-1, 1) rotate(-180.000000) translate(-33.500000, -29.000000) ">
                        <path d="M31.8630682,52.7413333 C22.19375,49.9573333 14.1613636,47.56 14.0471591,47.4053333 C13.9329545,47.2893333 11.3823864,41.5666667 8.375,34.684 L2.93125,22.1946667 L1.48465909,22.0013333 L0,21.808 L0.0761363636,19.72 C0.266477273,15.2733333 4.03522727,9.86 8.33693182,7.84933333 C9.47897727,7.308 11.4585227,6.68933333 12.7147727,6.496 C20.4806818,5.104 28.3607955,10.7493333 29.8835227,18.792 C30.3784091,21.5373333 30.15,21.924 28.0943182,22.0786667 L26.38125,22.1946667 L21.4323864,33.756 C18.7295455,40.0973333 16.5596591,45.3173333 16.6357955,45.3946667 C16.7880682,45.5106667 31.6727273,49.8413333 31.9772727,49.8413333 C32.0914773,49.8413333 32.1676136,40.9093333 32.1676136,30.044 L32.1676136,10.208 L26.6096591,6.148 C21.8130682,2.62933333 21.1278409,1.972 21.2039773,1.12133333 L21.3181818,0.154666667 L32.7767045,0.0386666667 C42.5982955,-0.0386666667 44.3113636,0.0386666667 44.7301136,0.541333333 C44.9965909,0.850666667 45.1107955,1.35333333 44.9965909,1.66266667 C44.8823864,1.972 42.5602273,3.98266667 39.8193182,6.148 L34.8323864,10.092 L34.9085227,30.392 L35.0227273,50.7306667 L40.7329545,52.3933333 C43.8926136,53.3213333 46.7857955,54.1333333 47.2426136,54.2493333 C47.9659091,54.4426667 47.6232955,53.0893333 43.5880682,39.5173333 L39.1340909,24.5533333 L37.8778409,24.2053333 L36.6215909,23.896 L36.85,21.7693333 C37.1545455,18.8693333 38.9818182,15.08 41.1136364,12.9146667 C42.0653409,11.9093333 44.0068182,10.556 45.4153409,9.89866667 C47.7375,8.77733333 48.2704545,8.66133333 51.7727273,8.66133333 C55.275,8.66133333 55.8079545,8.77733333 58.1301136,9.89866667 C62.8886364,12.18 66.2767045,16.82 66.6954545,21.6533333 C66.9238636,24.0893333 67,24.012 64.3732955,24.3986667 C63.8022727,24.476 62.5840909,27.4146667 58.4727273,38.4346667 C55.5795455,46.0906667 52.7625,53.6306667 52.1914773,55.1773333 C51.3159091,57.4973333 51.0113636,57.9613333 50.3261364,57.9226667 C49.8693182,57.884 41.5704545,55.564 31.8630682,52.7413333 Z M55.5795455,38.2413333 C58.2443182,31.1266667 60.5284091,25.056 60.6045455,24.824 C60.7568182,24.476 60.3380682,24.3213333 59.2340909,24.3213333 C57.7494318,24.3213333 57.6732955,24.36 57.2926136,25.984 C56.5693182,28.8066667 56.4551136,29.1546667 56.0744318,29.6573333 C55.8460227,29.8893333 55.1227273,30.1213333 54.4755682,30.1213333 C53.4857955,30.16 53.4096591,30.1986667 53.9806818,30.5466667 C54.8943182,31.088 55.7698864,32.944 55.7698864,34.3746667 C55.7698864,37.816 51.9630682,40.0586667 48.9176136,38.4346667 C47.5471591,37.7386667 46.6335227,36.0373333 46.6335227,34.2973333 C46.6335227,32.9053333 47.8517045,30.5466667 48.6130682,30.4693333 C48.8795455,30.4306667 48.4227273,30.276 47.6232955,30.16 C46.1386364,29.928 46.1386364,29.928 45.3772727,27.144 C44.6539773,24.3213333 44.6539773,24.3213333 43.3215909,24.3213333 C42.4079545,24.3213333 42.0272727,24.476 42.1414773,24.8626667 C43.0551136,28.884 50.3261364,52.316 50.4784091,51.852 C50.6306818,51.504 52.9147727,45.356 55.5795455,38.2413333 Z M16.33125,38.6666667 C17.0926136,36.9266667 17.7017045,35.38 17.7017045,35.3026667 C17.7017045,35.1866667 17.3590909,35.3026667 16.9784091,35.5346667 C16.0267045,36.0373333 13.6664773,36.0373333 12.7147727,35.5346667 C10.8875,34.5293333 10.2784091,30.972 11.6488636,29.1933333 C12.4102273,28.2266667 12.4102273,28.188 11.6869318,28.188 C10.6210227,28.188 10.2403409,27.5306667 9.47897727,24.592 L8.86988636,22.0013333 L7.38522727,22.0013333 L5.90056818,22.0013333 L6.39545455,23.2773333 C7.5375,25.984 14.0090909,40.7933333 14.3517045,41.4506667 C14.5420455,41.8373333 14.7704545,42.108 14.8465909,42.0306667 C14.9227273,41.9533333 15.6079545,40.4453333 16.33125,38.6666667 Z M45.3011364,20.764 C46.0244318,20.2613333 46.6715909,19.5266667 46.7857955,19.1013333 C47.2426136,17.052 47.8517045,12.296 47.6613636,12.1026667 C47.31875,11.716 44.9585227,13.1466667 43.2835227,14.8093333 C41.6085227,16.3946667 40.3142045,18.5213333 39.7431818,20.532 L39.4386364,21.6146667 L41.7227273,21.6146667 C43.4357955,21.6146667 44.3113636,21.3826667 45.3011364,20.764 Z M53.3335227,20.3773333 C53.2193182,19.6813333 52.9147727,17.5933333 52.6863636,15.7373333 C52.2676136,12.6826667 52.1534091,12.3346667 51.4301136,12.3346667 C50.66875,12.3346667 50.5545455,12.76 49.83125,16.9746667 L49.0698864,21.6146667 L51.3159091,21.6146667 L53.5619318,21.6146667 L53.3335227,20.3773333 Z M63.9164773,20.764 C62.6602273,16.588 59.2721591,12.9533333 55.5795455,11.7933333 C54.7801136,11.5613333 54.7801136,11.5613333 55.3892045,15.5826667 C56.1886364,21.112 56.6454545,21.6146667 60.9852273,21.6146667 C64.1448864,21.6146667 64.1829545,21.6146667 63.9164773,20.764 Z M10.3926136,18.9853333 C10.6590909,18.792 11.1539773,16.8586667 11.4965909,14.616 C11.8392045,12.412 12.2579545,10.3626667 12.4863636,10.1306667 C12.7147727,9.82133333 13.7806818,9.628 15.2653409,9.628 C18.1965909,9.628 18.1965909,9.628 18.84375,14.848 C19.1102273,16.9746667 19.5289773,18.8306667 19.7573864,18.9853333 C19.9857955,19.14 21.775,19.2946667 23.7164773,19.2946667 C27.21875,19.2946667 27.2568182,19.2946667 27.0284091,18.444 C26.38125,16.1626667 25.0869318,14.1133333 23.1835227,12.3733333 C20.6710227,10.0146667 18.1204545,9.048 14.5801136,9.08666667 C10.05,9.164 5.74829545,12.064 3.76875,16.3173333 C3.27386364,17.4386667 2.85511364,18.56 2.85511364,18.8306667 C2.85511364,19.372 9.55511364,19.488 10.3926136,18.9853333 Z M39.4005682,2.784 C39.4005682,2.74533333 36.5454545,2.668 33.0431818,2.668 L26.6857955,2.668 L30.0357955,5.18133333 L33.3857955,7.69466667 L36.3931818,5.29733333 C38.0301136,3.98266667 39.4005682,2.86133333 39.4005682,2.784 Z" id="Shape"/>
                    </g>
                </g>
            </g>
        </g>
    </g>
</symbol><symbol viewBox="0 0 90.72388 90.72438" id="phone">
    <title>Phone Icon</title>
    <g id="Design" stroke="none" stroke-width="1" fill="none" fill-rule="evenodd">
        <g id="Icons" transform="translate(-555.000000, -108.000000)" fill="#EEEEEE" fill-rule="nonzero">
            <g id="Group" transform="translate(555.000000, 108.000000)">
                <g id="icons8-phone-50" transform="translate(45.500000, 45.500000) scale(-1, 1) translate(-45.500000, -45.500000) ">
                    <g id="Group" transform="translate(45.500000, 45.500000) scale(-1, 1) rotate(-180.000000) translate(-45.500000, -45.500000) ">
                        <path d="M6.89036681,85.6624654 C-6.46863901,74.3511768 0.313625485,56.0474552 28.0592529,28.0777234 C56.0104036,0.31365141 74.3019654,-6.47312175 85.6057395,6.89476478 C93.8266662,16.560775 92.5935272,21.7022699 81.0842299,29.1060224 C70.8080715,35.6871358 62.5871449,37.1267543 58.6822047,33.2192182 C56.0104036,30.5456409 46.3508148,37.7437337 36.6912259,49.0550223 C31.7586699,55.2248161 31.5531468,56.0474552 34.2249479,61.3946098 C37.5133186,67.5644036 37.1022723,69.0040222 27.6482066,83.4002077 C21.4825116,92.6548983 15.727863,93.2718777 6.89036681,85.6624654 Z M23.480597,77.1701493 C29.041791,68.9313433 29.041791,68.7253731 25.5402985,61.3104478 L22.038806,53.8955224 L37.280597,38.6537313 L52.5223881,23.4119403 L59.9373134,26.9134328 C67.3522388,30.4149254 67.558209,30.4149254 75.7970149,24.8537313 C80.3283582,21.9701493 84.0358209,18.880597 84.0358209,18.0567164 C84.0358209,14.761194 74.7671642,7.14029851 70.8537313,7.14029851 C54.1701493,7.14029851 5.76716418,55.3373134 5.76716418,71.8149254 C5.76716418,75.9343284 13.1820896,85.4089552 16.4776119,85.4089552 C17.3014925,85.4089552 20.5970149,81.7014925 23.480597,77.1701493 Z" id="Shape"/>
                    </g>
                </g>
            </g>
        </g>
    </g>
</symbol><symbol viewBox="0 0 69 93" id="poverty">
    <title>Poverty Icon</title>
    <g id="Design" stroke="none" stroke-width="1" fill="none" fill-rule="evenodd">
        <g id="Icons" transform="translate(-96.000000, -106.000000)">
            <g id="Poverty-Icon" transform="translate(96.000000, 106.000000)">
                <rect id="Rectangle" fill="#C7AC1B" x="3" y="2" width="91" height="91" rx="28"/>
                <rect id="Rectangle" fill="#FFD700" x="0" y="0" width="91" height="91" rx="28"/>
                <g id="inr" transform="translate(24.143524, 18.000000)" fill="#C7AC1B" fill-rule="nonzero">
                    <g id="Group" transform="translate(22.856476, 30.000000) scale(-1, 1) rotate(-180.000000) translate(-22.856476, -30.000000) translate(0.856476, 0.000000)">
                        <path d="M5.67005843,57.5886734 L5.67005843,55.1773468 L15.6266001,55.1773468 L25.5816976,55.1773468 L25.652465,55.0564118 C25.6914593,54.9885702 25.7290094,54.9207286 25.739119,54.9045056 C25.7477844,54.8882826 25.7680037,54.8514121 25.7838902,54.8233906 C25.8185518,54.7614483 26.1767216,54.1154782 26.2171601,54.0417373 C26.2330467,54.0137158 26.2763737,53.931126 26.315368,53.8573851 C26.352918,53.7851191 26.3890238,53.7187523 26.3948008,53.7099034 C26.4005777,53.7025293 26.4424604,53.6228892 26.4886759,53.5329253 C26.5348914,53.4444363 26.5897722,53.3382494 26.6114357,53.2969545 C26.8020744,52.9400487 27.2772271,51.9696188 27.4779754,51.5271735 C27.4996389,51.4785045 27.5516313,51.3664184 27.5920698,51.2779294 C27.6325084,51.1909151 27.6657257,51.1156994 27.6657257,51.1127498 C27.6657257,51.1098002 27.6816123,51.0729297 27.7003873,51.03016 C27.9372415,50.4992257 28.2838574,49.632033 28.4513884,49.155667 C28.6723561,48.5318192 28.6752445,48.5214955 28.7922274,48.1424674 C28.8326659,48.008259 28.8716602,47.8828995 28.8788814,47.862252 C28.8947679,47.8180075 29.0305258,47.3342674 29.0507451,47.2502028 C29.0579663,47.2177568 29.0882951,47.0982966 29.1157356,46.9847356 C29.1446202,46.8711747 29.167728,46.7738367 29.167728,46.7679375 C29.167728,46.7605634 23.8803913,46.7561389 17.4188932,46.7561389 L5.67005843,46.7561389 L5.67005843,44.3448123 L5.67005843,41.9334857 L17.5633165,41.9334857 C25.5340379,41.9334857 29.4565745,41.9290613 29.4565745,41.9187376 C29.4565745,41.8803923 29.4089149,41.583954 29.3756975,41.4172996 C29.1041817,40.0427697 28.5900348,38.9381314 27.7466028,37.9146081 C27.2425655,37.3040336 26.6822031,36.7834231 25.9109827,36.2111939 C25.7261209,36.0740358 25.3116261,35.7997198 25.0516642,35.6433891 C24.9606775,35.5888209 24.8610254,35.5283534 24.8321407,35.5091807 C24.8018119,35.4900081 24.7758157,35.4737851 24.771483,35.4737851 C24.7685945,35.4737851 24.7238233,35.450188 24.6732751,35.4206917 C24.2992188,35.2038935 23.7865161,34.9458005 23.2969212,34.7260527 C23.1626075,34.66706 23.0384035,34.6110169 23.0225169,34.6036428 C22.9098667,34.5520242 22.5155912,34.3927439 22.2065253,34.2747585 C21.4800762,33.9989676 20.5788748,33.7099034 19.8018775,33.5049038 C19.3628307,33.389868 19.3426114,33.3839687 19.2386267,33.3588968 C19.1837458,33.3456235 19.0277687,33.308753 18.8948992,33.2763071 C18.7605856,33.2438611 18.6349373,33.2143647 18.6132738,33.2099403 C18.5916103,33.2069906 18.5121775,33.1892928 18.4370774,33.1730698 C18.3619773,33.155372 18.2507714,33.1317749 18.1915578,33.1214512 C18.1323443,33.1096527 18.0572441,33.0934297 18.025471,33.0845808 C17.944594,33.0654082 17.5387645,32.985768 17.3394604,32.9503724 C17.2484737,32.9341494 17.1213812,32.9120271 17.057835,32.9002286 C16.8931924,32.8707322 16.6029016,32.8191136 16.5595746,32.8117395 C16.4945841,32.8014158 16.1349701,32.7438979 16.0829777,32.7365239 C16.0555373,32.7320994 16.016543,32.7262001 15.9963238,32.7232505 C15.9761045,32.718826 15.9371102,32.7129268 15.9096698,32.7085023 C15.8822294,32.7055527 15.7912427,32.6922793 15.7074772,32.6804808 C15.6237117,32.6686823 15.5269481,32.6539341 15.4908423,32.6495096 C15.2756515,32.6214881 15.2048841,32.6126392 15.173111,32.6067399 C15.1528917,32.6023155 15.0980109,32.5949414 15.0503512,32.5905169 C15.0026915,32.5860925 14.9478107,32.5787184 14.9275914,32.5757687 C14.9073722,32.5728191 14.8524913,32.5669198 14.8048316,32.5610206 C14.6950699,32.5477472 14.6315237,32.5403731 14.559312,32.5315242 C14.5275389,32.5270998 14.478435,32.5212005 14.4509946,32.516776 C14.4235541,32.5138264 14.3585636,32.5064523 14.3065713,32.5020279 C14.1852557,32.4902293 14.1087114,32.4813804 14.0466093,32.4725315 C14.0191689,32.4695819 13.9469573,32.4622078 13.8877437,32.4563085 C13.8285302,32.4518841 13.7606512,32.44451 13.7360993,32.4415604 C13.7129915,32.4386107 13.6480011,32.4327115 13.591676,32.428287 C13.5367951,32.4238625 13.461695,32.4164885 13.4255892,32.4135388 C13.3894834,32.4105892 13.3187159,32.4032151 13.2667236,32.3987906 C13.2147312,32.3943662 13.1410753,32.3884669 13.1006368,32.3840425 C13.0616425,32.3810928 12.9793212,32.3737188 12.9201077,32.3692943 C12.8608941,32.3648698 12.7756844,32.3574958 12.7323574,32.3545461 C12.6890304,32.3515965 12.5980437,32.3442224 12.5301648,32.339798 C12.4622858,32.3338987 12.3785203,32.3279994 12.3424145,32.3250498 C12.3063087,32.3221001 12.2066566,32.3162009 12.1185584,32.3103016 C12.0319044,32.3058771 11.9206985,32.2985031 11.8730388,32.2955534 C11.8253791,32.2926038 11.7083962,32.2852297 11.6130769,32.2808053 C11.5177575,32.2778556 11.3776669,32.2704815 11.3025668,32.2660571 C11.2274667,32.2616326 11.0873761,32.2542585 10.9920567,32.2498341 C10.8967373,32.2454096 10.7667564,32.2395104 10.7032101,32.2365607 C9.62870085,32.1849421 7.40891486,32.1996903 6.4499442,32.2645823 C6.37484409,32.2690067 6.24197466,32.2778556 6.15387645,32.2822801 C6.06722248,32.2881793 5.97190311,32.2926038 5.94446268,32.2955534 C5.66861419,32.3147261 5.54441016,32.3250498 5.37687914,32.339798 C5.20068273,32.3545461 5.12413838,32.3619202 5.02015361,32.3692943 C4.96094006,32.3737188 4.88295149,32.3810928 4.84684566,32.3840425 C4.81073984,32.3869921 4.72408587,32.3943662 4.65187422,32.3987906 C4.58110681,32.4046899 4.49878553,32.4105892 4.47134511,32.4135388 C4.44390468,32.4164885 4.36302764,32.4223877 4.29081599,32.428287 C4.22004858,32.4327115 4.1377273,32.4400855 4.11028688,32.4430352 C4.08284645,32.4459848 4.00485787,32.4518841 3.93697893,32.4577833 C3.86909998,32.4622078 3.78533447,32.4695819 3.74922865,32.4725315 C3.71312283,32.4754812 3.62935732,32.4828552 3.56147837,32.4872797 C3.49359942,32.4917042 3.41561084,32.4990782 3.38817042,32.5020279 C3.36072999,32.5049775 3.27552025,32.5123516 3.20042014,32.516776 C3.12532003,32.5226753 3.04011029,32.5285746 3.01266986,32.5315242 C2.98522944,32.5344739 2.90724086,32.5403731 2.83936191,32.5462724 C2.77148296,32.5506969 2.68771746,32.5580709 2.65161163,32.5610206 C2.61550581,32.5639702 2.53751723,32.5713443 2.47830368,32.5757687 C2.41909013,32.5801932 2.34110156,32.5860925 2.30499573,32.5905169 C2.26888991,32.5934666 2.18223594,32.5993658 2.11002429,32.6037903 C2.03925688,32.6096896 1.9482702,32.6155888 1.90783168,32.6200133 C1.81395654,32.6288622 1.68975251,32.6391859 1.55399462,32.6495096 C1.49478107,32.6539341 1.41679249,32.6613082 1.38068667,32.6642578 C1.34458084,32.6672074 1.2637038,32.6731067 1.20015755,32.679006 C1.1366113,32.6834304 1.05573426,32.6893297 1.01962844,32.6937541 C0.983522615,32.6967038 0.899757106,32.7040779 0.831878159,32.7085023 C0.716339526,32.7158764 0.661458675,32.7203009 0.482373794,32.7379987 C0.407273682,32.7438979 0.327840872,32.751272 0.10398477,32.7689698 C-0.00577693166,32.7763439 -0.00866539749,32.7763439 0.0101096304,32.7483224 C0.0216634937,32.7335742 0.241186897,32.4799056 0.499704589,32.1849421 C0.758222281,31.8899786 1.13805554,31.4563823 1.34458084,31.2189367 C1.55110615,30.9829659 2.34399002,30.0774279 3.106545,29.2058108 C3.86909998,28.3341936 4.63598766,27.4581521 4.81073984,27.2590517 C4.98549202,27.0599513 5.3133329,26.6853477 5.54007746,26.4257798 C5.76682203,26.1676867 6.0946629,25.7930831 6.26941509,25.5925079 C6.44416727,25.3934076 6.77200814,25.0188039 6.99875271,24.759236 C7.22549728,24.501143 7.57644587,24.0999926 7.77863848,23.8684463 C7.98227532,23.6368999 8.4242106,23.1310375 8.76071686,22.7461102 C9.09722313,22.3611828 9.48138909,21.923162 9.61281428,21.7727306 C9.74423948,21.6222992 10.1832863,21.1223361 10.5876715,20.6592434 C11.7546117,19.3245336 12.512834,18.4588157 12.8334537,18.093061 C12.996652,17.907234 13.461695,17.3762997 13.8660802,16.913207 C14.2704654,16.4515891 14.7903893,15.8572377 15.0214666,15.5932453 C15.2525438,15.329253 15.8042408,14.6995059 16.2476203,14.1921687 C16.6909998,13.6848315 17.3452373,12.9385739 17.7005186,12.532999 C18.0543557,12.1274242 18.6233834,11.4770297 18.9642224,11.0876779 C19.3050614,10.6983261 19.7729928,10.1644422 20.0040701,9.90044982 C20.6568634,9.15566699 21.2215585,8.50969693 21.8887941,7.74721628 C22.2267446,7.36228892 22.6903433,6.83135462 22.9214206,6.56736229 C23.1524979,6.30336996 23.8081796,5.55416267 24.3800958,4.90081852 C24.9520121,4.24747438 25.6134708,3.490893 25.8517692,3.21952658 C26.0900676,2.94816017 26.8208495,2.11193865 27.4765312,1.36273136 L28.6694676,0 L29.5360074,0.0103237224 C30.0126042,0.0162229924 30.6206263,0.0265467148 30.8863651,0.0339208023 C31.152104,0.0412948898 31.555045,0.0471941597 31.7817895,0.0471941597 C32.0085341,0.0471941597 32.3464846,0.0516186122 32.5327907,0.0545682472 C32.7190967,0.0589926997 33.1263704,0.0663667871 33.4354362,0.0707912396 C33.7459463,0.0752156921 34.0925622,0.081114962 34.2081008,0.0855394145 C34.3236395,0.089963867 34.6023764,0.092913502 34.8262325,0.092913502 C35.0847502,0.092913502 35.2335062,0.0988127719 35.2306177,0.107661677 C35.2291735,0.115035764 35.0573098,0.312661308 34.8493402,0.545682472 C34.6428149,0.778703635 34.0319044,1.46891822 33.4917613,2.07654303 C32.4807983,3.21657695 31.8785531,3.89499299 30.0775947,5.92581668 C28.9222084,7.22955534 28.0701109,8.18818671 27.6310641,8.68372539 C27.4721985,8.86217831 26.8815073,9.52879581 26.3168122,10.165917 C25.7521171,10.8015633 25.0978796,11.5389721 24.8639139,11.8029644 C24.6299481,12.0669567 23.9757106,12.8043655 23.4110156,13.4400118 C22.8477647,14.077133 22.1906387,14.8174913 21.9523403,15.0844333 C21.534957,15.5563749 20.5904287,16.6197183 18.4211908,19.0664405 C17.8521631,19.7079861 17.1935929,20.4512942 16.9552944,20.7182361 C16.7184402,20.9866529 16.3082781,21.4482708 16.0468719,21.7432343 C14.2358038,23.7858565 12.6919189,25.5246663 12.1618854,26.1219674 C11.0787107,27.3431163 11.0166087,27.4139075 11.0209414,27.418332 C11.0223856,27.4198068 11.1047069,27.4242313 11.2029147,27.4286557 C11.477319,27.4404542 11.6607366,27.4493031 11.7719425,27.4581521 C11.8282676,27.4625765 11.9539158,27.4684758 12.0535679,27.4729002 C12.15322,27.4773247 12.2702028,27.483224 12.3135298,27.4876484 C12.3568568,27.490598 12.4579531,27.4964973 12.5373859,27.5023966 C12.6168187,27.506821 12.7179151,27.5141951 12.761242,27.5171448 C12.804569,27.5200944 12.8998884,27.5274685 12.9706558,27.5318929 C13.0428675,27.5363174 13.1295214,27.5436915 13.1656273,27.5466411 C13.2017331,27.5495907 13.2826101,27.5569648 13.3461564,27.5613893 C13.4746931,27.5702382 13.6090068,27.5820367 13.6855511,27.5908856 C13.7129915,27.5938353 13.7982013,27.5997345 13.8733014,27.6056338 C13.9484015,27.6100583 14.0263901,27.6174323 14.0466093,27.620382 C14.0668286,27.6248064 14.1217094,27.6307057 14.1693691,27.6351302 C14.2170288,27.6395546 14.2791308,27.6454539 14.3065713,27.6484035 C14.3340117,27.652828 14.4062233,27.6587272 14.4654369,27.6646265 C14.5246504,27.6705258 14.5896409,27.676425 14.6098602,27.6793747 C14.6300794,27.6823243 14.6950699,27.6896984 14.7542835,27.6941229 C14.813497,27.6985473 14.8727106,27.7059214 14.8842644,27.708871 C14.8958183,27.7118207 14.9478107,27.7191947 14.9998031,27.7236192 C15.0517954,27.7280437 15.1138975,27.7354177 15.1370052,27.7383674 C15.1615571,27.7427918 15.2092168,27.7486911 15.2453227,27.7531156 C15.3319766,27.7619645 15.5370577,27.7885112 15.9385545,27.8401298 C15.9659949,27.8445542 16.02232,27.8504535 16.0613143,27.8563528 C16.1378586,27.8666765 16.4830303,27.9168203 16.6751132,27.9448418 C16.7545461,27.9566404 16.8065384,27.9654893 16.8599751,27.9728634 C16.8816385,27.9772878 16.927854,27.9846619 16.9639598,27.9890864 C17.0000656,27.9935108 17.0491696,28.0008849 17.0722773,28.0053093 C17.1416005,28.0171079 17.6311954,28.0996977 17.684632,28.1085466 C17.7106282,28.112971 17.7467341,28.1203451 17.7640649,28.1232947 C17.7799514,28.1262444 17.9055997,28.1498415 18.0399133,28.1734385 C18.4486313,28.2486542 18.8010241,28.3179707 19.0508764,28.3725389 C19.0667629,28.3769634 19.14764,28.3931863 19.2314055,28.4108842 C19.315171,28.4271071 19.4494847,28.4580783 19.5318059,28.4772509 C19.612683,28.4964236 19.6950043,28.5155962 19.7123351,28.5185458 C19.8870872,28.5509918 20.7507385,28.7707396 21.2027834,28.8960991 C21.3226548,28.9285451 21.429528,28.9580414 21.4410819,28.9609911 C21.4699665,28.96984 21.8310247,29.0760268 22.018775,29.1320699 C22.5502527,29.292825 23.3286943,29.5582922 23.8385085,29.7544429 C24.0334799,29.8281838 24.6573886,30.0789027 24.7122694,30.1054495 C24.8018119,30.1467443 24.9086851,30.1939385 24.914462,30.1939385 C24.9216832,30.1939385 25.39828,30.4092619 25.5427033,30.4771035 C25.782446,30.5906644 25.8546577,30.62606 26.0770695,30.7381462 C26.3298103,30.8649805 26.6417646,31.03016 26.8410687,31.1422461 C26.9075034,31.1805914 26.9638285,31.2115626 26.9652728,31.2115626 C26.9739382,31.2115626 27.4953062,31.5197994 27.5862929,31.5787921 C27.6339526,31.6097633 27.7798201,31.7026768 27.9112453,31.7867414 C29.4146918,32.751272 30.7361649,33.9606224 31.7254645,35.2746848 C32.0764131,35.7407271 32.3999212,36.2392154 32.6887678,36.759826 C32.7913083,36.945653 33.0758222,37.5208318 33.1307031,37.6520906 C33.1509223,37.7037092 33.1841397,37.7789249 33.2029147,37.8216946 C33.3949977,38.2523413 33.6824001,39.1151095 33.8181579,39.6622668 C33.8354887,39.7315832 33.8585965,39.8244967 33.8687061,39.8687412 C33.9134773,40.0412949 34.0405698,40.6813657 34.0579006,40.8126244 C34.0622333,40.8494949 34.0694545,40.8922646 34.0723429,40.9084876 C34.0752314,40.9247106 34.091118,41.0338471 34.1084488,41.1518325 C34.1243353,41.2698179 34.1402219,41.381904 34.1431104,41.4025514 C34.1459988,41.4231989 34.15322,41.4762923 34.1575527,41.5205368 C34.1618854,41.5647814 34.1691065,41.6178748 34.171995,41.6385222 C34.1748835,41.6591697 34.1821046,41.7225868 34.1864373,41.7786299 C34.19077,41.8361478 34.1979912,41.8936657 34.2023239,41.9084138 C34.2095451,41.9320109 34.4550647,41.9334857 39.1054946,41.9334857 L44,41.9334857 L44,44.3448123 L44,46.7561389 L38.989956,46.7561389 L33.9813563,46.7561389 L33.942362,46.9596637 C33.9206985,47.0702751 33.88026,47.2679006 33.8528195,47.3976845 C33.8239349,47.5274685 33.7979387,47.6469287 33.7950502,47.6631517 C33.7806079,47.7383674 33.6679577,48.1985104 33.6217423,48.3710641 C33.5177575,48.751567 33.4397689,49.0362068 33.4123285,49.123221 C33.3978862,49.17189 33.3574476,49.3075732 33.3213418,49.4255586 C32.8476334,50.997714 32.1399593,52.7556965 31.2474234,54.5918443 L30.9614652,55.1773468 L37.4807326,55.1773468 L44,55.1773468 L44,57.5886734 L43.9985558,60 L24.8350292,60 L5.67005843,60 L5.67005843,57.5886734 Z" id="Path"/>
                    </g>
                </g>
                <g id="inr" transform="translate(21.143524, 16.000000)" fill="#5E5735" fill-rule="nonzero">
                    <g id="Group" transform="translate(22.856476, 30.000000) scale(-1, 1) rotate(-180.000000) translate(-22.856476, -30.000000) translate(0.856476, 0.000000)">
                        <path d="M5.67005843,57.5886734 L5.67005843,55.1773468 L15.6266001,55.1773468 L25.5816976,55.1773468 L25.652465,55.0564118 C25.6914593,54.9885702 25.7290094,54.9207286 25.739119,54.9045056 C25.7477844,54.8882826 25.7680037,54.8514121 25.7838902,54.8233906 C25.8185518,54.7614483 26.1767216,54.1154782 26.2171601,54.0417373 C26.2330467,54.0137158 26.2763737,53.931126 26.315368,53.8573851 C26.352918,53.7851191 26.3890238,53.7187523 26.3948008,53.7099034 C26.4005777,53.7025293 26.4424604,53.6228892 26.4886759,53.5329253 C26.5348914,53.4444363 26.5897722,53.3382494 26.6114357,53.2969545 C26.8020744,52.9400487 27.2772271,51.9696188 27.4779754,51.5271735 C27.4996389,51.4785045 27.5516313,51.3664184 27.5920698,51.2779294 C27.6325084,51.1909151 27.6657257,51.1156994 27.6657257,51.1127498 C27.6657257,51.1098002 27.6816123,51.0729297 27.7003873,51.03016 C27.9372415,50.4992257 28.2838574,49.632033 28.4513884,49.155667 C28.6723561,48.5318192 28.6752445,48.5214955 28.7922274,48.1424674 C28.8326659,48.008259 28.8716602,47.8828995 28.8788814,47.862252 C28.8947679,47.8180075 29.0305258,47.3342674 29.0507451,47.2502028 C29.0579663,47.2177568 29.0882951,47.0982966 29.1157356,46.9847356 C29.1446202,46.8711747 29.167728,46.7738367 29.167728,46.7679375 C29.167728,46.7605634 23.8803913,46.7561389 17.4188932,46.7561389 L5.67005843,46.7561389 L5.67005843,44.3448123 L5.67005843,41.9334857 L17.5633165,41.9334857 C25.5340379,41.9334857 29.4565745,41.9290613 29.4565745,41.9187376 C29.4565745,41.8803923 29.4089149,41.583954 29.3756975,41.4172996 C29.1041817,40.0427697 28.5900348,38.9381314 27.7466028,37.9146081 C27.2425655,37.3040336 26.6822031,36.7834231 25.9109827,36.2111939 C25.7261209,36.0740358 25.3116261,35.7997198 25.0516642,35.6433891 C24.9606775,35.5888209 24.8610254,35.5283534 24.8321407,35.5091807 C24.8018119,35.4900081 24.7758157,35.4737851 24.771483,35.4737851 C24.7685945,35.4737851 24.7238233,35.450188 24.6732751,35.4206917 C24.2992188,35.2038935 23.7865161,34.9458005 23.2969212,34.7260527 C23.1626075,34.66706 23.0384035,34.6110169 23.0225169,34.6036428 C22.9098667,34.5520242 22.5155912,34.3927439 22.2065253,34.2747585 C21.4800762,33.9989676 20.5788748,33.7099034 19.8018775,33.5049038 C19.3628307,33.389868 19.3426114,33.3839687 19.2386267,33.3588968 C19.1837458,33.3456235 19.0277687,33.308753 18.8948992,33.2763071 C18.7605856,33.2438611 18.6349373,33.2143647 18.6132738,33.2099403 C18.5916103,33.2069906 18.5121775,33.1892928 18.4370774,33.1730698 C18.3619773,33.155372 18.2507714,33.1317749 18.1915578,33.1214512 C18.1323443,33.1096527 18.0572441,33.0934297 18.025471,33.0845808 C17.944594,33.0654082 17.5387645,32.985768 17.3394604,32.9503724 C17.2484737,32.9341494 17.1213812,32.9120271 17.057835,32.9002286 C16.8931924,32.8707322 16.6029016,32.8191136 16.5595746,32.8117395 C16.4945841,32.8014158 16.1349701,32.7438979 16.0829777,32.7365239 C16.0555373,32.7320994 16.016543,32.7262001 15.9963238,32.7232505 C15.9761045,32.718826 15.9371102,32.7129268 15.9096698,32.7085023 C15.8822294,32.7055527 15.7912427,32.6922793 15.7074772,32.6804808 C15.6237117,32.6686823 15.5269481,32.6539341 15.4908423,32.6495096 C15.2756515,32.6214881 15.2048841,32.6126392 15.173111,32.6067399 C15.1528917,32.6023155 15.0980109,32.5949414 15.0503512,32.5905169 C15.0026915,32.5860925 14.9478107,32.5787184 14.9275914,32.5757687 C14.9073722,32.5728191 14.8524913,32.5669198 14.8048316,32.5610206 C14.6950699,32.5477472 14.6315237,32.5403731 14.559312,32.5315242 C14.5275389,32.5270998 14.478435,32.5212005 14.4509946,32.516776 C14.4235541,32.5138264 14.3585636,32.5064523 14.3065713,32.5020279 C14.1852557,32.4902293 14.1087114,32.4813804 14.0466093,32.4725315 C14.0191689,32.4695819 13.9469573,32.4622078 13.8877437,32.4563085 C13.8285302,32.4518841 13.7606512,32.44451 13.7360993,32.4415604 C13.7129915,32.4386107 13.6480011,32.4327115 13.591676,32.428287 C13.5367951,32.4238625 13.461695,32.4164885 13.4255892,32.4135388 C13.3894834,32.4105892 13.3187159,32.4032151 13.2667236,32.3987906 C13.2147312,32.3943662 13.1410753,32.3884669 13.1006368,32.3840425 C13.0616425,32.3810928 12.9793212,32.3737188 12.9201077,32.3692943 C12.8608941,32.3648698 12.7756844,32.3574958 12.7323574,32.3545461 C12.6890304,32.3515965 12.5980437,32.3442224 12.5301648,32.339798 C12.4622858,32.3338987 12.3785203,32.3279994 12.3424145,32.3250498 C12.3063087,32.3221001 12.2066566,32.3162009 12.1185584,32.3103016 C12.0319044,32.3058771 11.9206985,32.2985031 11.8730388,32.2955534 C11.8253791,32.2926038 11.7083962,32.2852297 11.6130769,32.2808053 C11.5177575,32.2778556 11.3776669,32.2704815 11.3025668,32.2660571 C11.2274667,32.2616326 11.0873761,32.2542585 10.9920567,32.2498341 C10.8967373,32.2454096 10.7667564,32.2395104 10.7032101,32.2365607 C9.62870085,32.1849421 7.40891486,32.1996903 6.4499442,32.2645823 C6.37484409,32.2690067 6.24197466,32.2778556 6.15387645,32.2822801 C6.06722248,32.2881793 5.97190311,32.2926038 5.94446268,32.2955534 C5.66861419,32.3147261 5.54441016,32.3250498 5.37687914,32.339798 C5.20068273,32.3545461 5.12413838,32.3619202 5.02015361,32.3692943 C4.96094006,32.3737188 4.88295149,32.3810928 4.84684566,32.3840425 C4.81073984,32.3869921 4.72408587,32.3943662 4.65187422,32.3987906 C4.58110681,32.4046899 4.49878553,32.4105892 4.47134511,32.4135388 C4.44390468,32.4164885 4.36302764,32.4223877 4.29081599,32.428287 C4.22004858,32.4327115 4.1377273,32.4400855 4.11028688,32.4430352 C4.08284645,32.4459848 4.00485787,32.4518841 3.93697893,32.4577833 C3.86909998,32.4622078 3.78533447,32.4695819 3.74922865,32.4725315 C3.71312283,32.4754812 3.62935732,32.4828552 3.56147837,32.4872797 C3.49359942,32.4917042 3.41561084,32.4990782 3.38817042,32.5020279 C3.36072999,32.5049775 3.27552025,32.5123516 3.20042014,32.516776 C3.12532003,32.5226753 3.04011029,32.5285746 3.01266986,32.5315242 C2.98522944,32.5344739 2.90724086,32.5403731 2.83936191,32.5462724 C2.77148296,32.5506969 2.68771746,32.5580709 2.65161163,32.5610206 C2.61550581,32.5639702 2.53751723,32.5713443 2.47830368,32.5757687 C2.41909013,32.5801932 2.34110156,32.5860925 2.30499573,32.5905169 C2.26888991,32.5934666 2.18223594,32.5993658 2.11002429,32.6037903 C2.03925688,32.6096896 1.9482702,32.6155888 1.90783168,32.6200133 C1.81395654,32.6288622 1.68975251,32.6391859 1.55399462,32.6495096 C1.49478107,32.6539341 1.41679249,32.6613082 1.38068667,32.6642578 C1.34458084,32.6672074 1.2637038,32.6731067 1.20015755,32.679006 C1.1366113,32.6834304 1.05573426,32.6893297 1.01962844,32.6937541 C0.983522615,32.6967038 0.899757106,32.7040779 0.831878159,32.7085023 C0.716339526,32.7158764 0.661458675,32.7203009 0.482373794,32.7379987 C0.407273682,32.7438979 0.327840872,32.751272 0.10398477,32.7689698 C-0.00577693166,32.7763439 -0.00866539749,32.7763439 0.0101096304,32.7483224 C0.0216634937,32.7335742 0.241186897,32.4799056 0.499704589,32.1849421 C0.758222281,31.8899786 1.13805554,31.4563823 1.34458084,31.2189367 C1.55110615,30.9829659 2.34399002,30.0774279 3.106545,29.2058108 C3.86909998,28.3341936 4.63598766,27.4581521 4.81073984,27.2590517 C4.98549202,27.0599513 5.3133329,26.6853477 5.54007746,26.4257798 C5.76682203,26.1676867 6.0946629,25.7930831 6.26941509,25.5925079 C6.44416727,25.3934076 6.77200814,25.0188039 6.99875271,24.759236 C7.22549728,24.501143 7.57644587,24.0999926 7.77863848,23.8684463 C7.98227532,23.6368999 8.4242106,23.1310375 8.76071686,22.7461102 C9.09722313,22.3611828 9.48138909,21.923162 9.61281428,21.7727306 C9.74423948,21.6222992 10.1832863,21.1223361 10.5876715,20.6592434 C11.7546117,19.3245336 12.512834,18.4588157 12.8334537,18.093061 C12.996652,17.907234 13.461695,17.3762997 13.8660802,16.913207 C14.2704654,16.4515891 14.7903893,15.8572377 15.0214666,15.5932453 C15.2525438,15.329253 15.8042408,14.6995059 16.2476203,14.1921687 C16.6909998,13.6848315 17.3452373,12.9385739 17.7005186,12.532999 C18.0543557,12.1274242 18.6233834,11.4770297 18.9642224,11.0876779 C19.3050614,10.6983261 19.7729928,10.1644422 20.0040701,9.90044982 C20.6568634,9.15566699 21.2215585,8.50969693 21.8887941,7.74721628 C22.2267446,7.36228892 22.6903433,6.83135462 22.9214206,6.56736229 C23.1524979,6.30336996 23.8081796,5.55416267 24.3800958,4.90081852 C24.9520121,4.24747438 25.6134708,3.490893 25.8517692,3.21952658 C26.0900676,2.94816017 26.8208495,2.11193865 27.4765312,1.36273136 L28.6694676,0 L29.5360074,0.0103237224 C30.0126042,0.0162229924 30.6206263,0.0265467148 30.8863651,0.0339208023 C31.152104,0.0412948898 31.555045,0.0471941597 31.7817895,0.0471941597 C32.0085341,0.0471941597 32.3464846,0.0516186122 32.5327907,0.0545682472 C32.7190967,0.0589926997 33.1263704,0.0663667871 33.4354362,0.0707912396 C33.7459463,0.0752156921 34.0925622,0.081114962 34.2081008,0.0855394145 C34.3236395,0.089963867 34.6023764,0.092913502 34.8262325,0.092913502 C35.0847502,0.092913502 35.2335062,0.0988127719 35.2306177,0.107661677 C35.2291735,0.115035764 35.0573098,0.312661308 34.8493402,0.545682472 C34.6428149,0.778703635 34.0319044,1.46891822 33.4917613,2.07654303 C32.4807983,3.21657695 31.8785531,3.89499299 30.0775947,5.92581668 C28.9222084,7.22955534 28.0701109,8.18818671 27.6310641,8.68372539 C27.4721985,8.86217831 26.8815073,9.52879581 26.3168122,10.165917 C25.7521171,10.8015633 25.0978796,11.5389721 24.8639139,11.8029644 C24.6299481,12.0669567 23.9757106,12.8043655 23.4110156,13.4400118 C22.8477647,14.077133 22.1906387,14.8174913 21.9523403,15.0844333 C21.534957,15.5563749 20.5904287,16.6197183 18.4211908,19.0664405 C17.8521631,19.7079861 17.1935929,20.4512942 16.9552944,20.7182361 C16.7184402,20.9866529 16.3082781,21.4482708 16.0468719,21.7432343 C14.2358038,23.7858565 12.6919189,25.5246663 12.1618854,26.1219674 C11.0787107,27.3431163 11.0166087,27.4139075 11.0209414,27.418332 C11.0223856,27.4198068 11.1047069,27.4242313 11.2029147,27.4286557 C11.477319,27.4404542 11.6607366,27.4493031 11.7719425,27.4581521 C11.8282676,27.4625765 11.9539158,27.4684758 12.0535679,27.4729002 C12.15322,27.4773247 12.2702028,27.483224 12.3135298,27.4876484 C12.3568568,27.490598 12.4579531,27.4964973 12.5373859,27.5023966 C12.6168187,27.506821 12.7179151,27.5141951 12.761242,27.5171448 C12.804569,27.5200944 12.8998884,27.5274685 12.9706558,27.5318929 C13.0428675,27.5363174 13.1295214,27.5436915 13.1656273,27.5466411 C13.2017331,27.5495907 13.2826101,27.5569648 13.3461564,27.5613893 C13.4746931,27.5702382 13.6090068,27.5820367 13.6855511,27.5908856 C13.7129915,27.5938353 13.7982013,27.5997345 13.8733014,27.6056338 C13.9484015,27.6100583 14.0263901,27.6174323 14.0466093,27.620382 C14.0668286,27.6248064 14.1217094,27.6307057 14.1693691,27.6351302 C14.2170288,27.6395546 14.2791308,27.6454539 14.3065713,27.6484035 C14.3340117,27.652828 14.4062233,27.6587272 14.4654369,27.6646265 C14.5246504,27.6705258 14.5896409,27.676425 14.6098602,27.6793747 C14.6300794,27.6823243 14.6950699,27.6896984 14.7542835,27.6941229 C14.813497,27.6985473 14.8727106,27.7059214 14.8842644,27.708871 C14.8958183,27.7118207 14.9478107,27.7191947 14.9998031,27.7236192 C15.0517954,27.7280437 15.1138975,27.7354177 15.1370052,27.7383674 C15.1615571,27.7427918 15.2092168,27.7486911 15.2453227,27.7531156 C15.3319766,27.7619645 15.5370577,27.7885112 15.9385545,27.8401298 C15.9659949,27.8445542 16.02232,27.8504535 16.0613143,27.8563528 C16.1378586,27.8666765 16.4830303,27.9168203 16.6751132,27.9448418 C16.7545461,27.9566404 16.8065384,27.9654893 16.8599751,27.9728634 C16.8816385,27.9772878 16.927854,27.9846619 16.9639598,27.9890864 C17.0000656,27.9935108 17.0491696,28.0008849 17.0722773,28.0053093 C17.1416005,28.0171079 17.6311954,28.0996977 17.684632,28.1085466 C17.7106282,28.112971 17.7467341,28.1203451 17.7640649,28.1232947 C17.7799514,28.1262444 17.9055997,28.1498415 18.0399133,28.1734385 C18.4486313,28.2486542 18.8010241,28.3179707 19.0508764,28.3725389 C19.0667629,28.3769634 19.14764,28.3931863 19.2314055,28.4108842 C19.315171,28.4271071 19.4494847,28.4580783 19.5318059,28.4772509 C19.612683,28.4964236 19.6950043,28.5155962 19.7123351,28.5185458 C19.8870872,28.5509918 20.7507385,28.7707396 21.2027834,28.8960991 C21.3226548,28.9285451 21.429528,28.9580414 21.4410819,28.9609911 C21.4699665,28.96984 21.8310247,29.0760268 22.018775,29.1320699 C22.5502527,29.292825 23.3286943,29.5582922 23.8385085,29.7544429 C24.0334799,29.8281838 24.6573886,30.0789027 24.7122694,30.1054495 C24.8018119,30.1467443 24.9086851,30.1939385 24.914462,30.1939385 C24.9216832,30.1939385 25.39828,30.4092619 25.5427033,30.4771035 C25.782446,30.5906644 25.8546577,30.62606 26.0770695,30.7381462 C26.3298103,30.8649805 26.6417646,31.03016 26.8410687,31.1422461 C26.9075034,31.1805914 26.9638285,31.2115626 26.9652728,31.2115626 C26.9739382,31.2115626 27.4953062,31.5197994 27.5862929,31.5787921 C27.6339526,31.6097633 27.7798201,31.7026768 27.9112453,31.7867414 C29.4146918,32.751272 30.7361649,33.9606224 31.7254645,35.2746848 C32.0764131,35.7407271 32.3999212,36.2392154 32.6887678,36.759826 C32.7913083,36.945653 33.0758222,37.5208318 33.1307031,37.6520906 C33.1509223,37.7037092 33.1841397,37.7789249 33.2029147,37.8216946 C33.3949977,38.2523413 33.6824001,39.1151095 33.8181579,39.6622668 C33.8354887,39.7315832 33.8585965,39.8244967 33.8687061,39.8687412 C33.9134773,40.0412949 34.0405698,40.6813657 34.0579006,40.8126244 C34.0622333,40.8494949 34.0694545,40.8922646 34.0723429,40.9084876 C34.0752314,40.9247106 34.091118,41.0338471 34.1084488,41.1518325 C34.1243353,41.2698179 34.1402219,41.381904 34.1431104,41.4025514 C34.1459988,41.4231989 34.15322,41.4762923 34.1575527,41.5205368 C34.1618854,41.5647814 34.1691065,41.6178748 34.171995,41.6385222 C34.1748835,41.6591697 34.1821046,41.7225868 34.1864373,41.7786299 C34.19077,41.8361478 34.1979912,41.8936657 34.2023239,41.9084138 C34.2095451,41.9320109 34.4550647,41.9334857 39.1054946,41.9334857 L44,41.9334857 L44,44.3448123 L44,46.7561389 L38.989956,46.7561389 L33.9813563,46.7561389 L33.942362,46.9596637 C33.9206985,47.0702751 33.88026,47.2679006 33.8528195,47.3976845 C33.8239349,47.5274685 33.7979387,47.6469287 33.7950502,47.6631517 C33.7806079,47.7383674 33.6679577,48.1985104 33.6217423,48.3710641 C33.5177575,48.751567 33.4397689,49.0362068 33.4123285,49.123221 C33.3978862,49.17189 33.3574476,49.3075732 33.3213418,49.4255586 C32.8476334,50.997714 32.1399593,52.7556965 31.2474234,54.5918443 L30.9614652,55.1773468 L37.4807326,55.1773468 L44,55.1773468 L44,57.5886734 L43.9985558,60 L24.8350292,60 L5.67005843,60 L5.67005843,57.5886734 Z" id="Path"/>
                    </g>
                </g>
            </g>
        </g>
    </g>
</symbol></symbol><symbol viewBox="0 0 90.72388 90.72438" id="phone">
    <title>Phone Icon</title>
    <g id="Design" stroke="none" stroke-width="1" fill="none" fill-rule="evenodd">
        <g id="Icons" transform="translate(-555.000000, -108.000000)" fill="#EEEEEE" fill-rule="nonzero">
            <g id="Group" transform="translate(555.000000, 108.000000)">
                <g id="icons8-phone-50" transform="translate(45.500000, 45.500000) scale(-1, 1) translate(-45.500000, -45.500000) ">
                    <g id="Group" transform="translate(45.500000, 45.500000) scale(-1, 1) rotate(-180.000000) translate(-45.500000, -45.500000) ">
                        <path d="M6.89036681,85.6624654 C-6.46863901,74.3511768 0.313625485,56.0474552 28.0592529,28.0777234 C56.0104036,0.31365141 74.3019654,-6.47312175 85.6057395,6.89476478 C93.8266662,16.560775 92.5935272,21.7022699 81.0842299,29.1060224 C70.8080715,35.6871358 62.5871449,37.1267543 58.6822047,33.2192182 C56.0104036,30.5456409 46.3508148,37.7437337 36.6912259,49.0550223 C31.7586699,55.2248161 31.5531468,56.0474552 34.2249479,61.3946098 C37.5133186,67.5644036 37.1022723,69.0040222 27.6482066,83.4002077 C21.4825116,92.6548983 15.727863,93.2718777 6.89036681,85.6624654 Z M23.480597,77.1701493 C29.041791,68.9313433 29.041791,68.7253731 25.5402985,61.3104478 L22.038806,53.8955224 L37.280597,38.6537313 L52.5223881,23.4119403 L59.9373134,26.9134328 C67.3522388,30.4149254 67.558209,30.4149254 75.7970149,24.8537313 C80.3283582,21.9701493 84.0358209,18.880597 84.0358209,18.0567164 C84.0358209,14.761194 74.7671642,7.14029851 70.8537313,7.14029851 C54.1701493,7.14029851 5.76716418,55.3373134 5.76716418,71.8149254 C5.76716418,75.9343284 13.1820896,85.4089552 16.4776119,85.4089552 C17.3014925,85.4089552 20.5970149,81.7014925 23.480597,77.1701493 Z" id="Shape"/>
                    </g>
                </g>
            </g>
        </g>
    </g>
</symbol><symbol viewBox="0 0 69 93" id="src-5">
    <title>Poverty Icon</title>
    <g id="Design" stroke="none" stroke-width="1" fill="none" fill-rule="evenodd">
        <g id="Icons" transform="translate(-96.000000, -106.000000)">
            <g id="Poverty-Icon" transform="translate(96.000000, 106.000000)">
                <rect id="Rectangle" fill="#C7AC1B" x="3" y="2" width="91" height="91" rx="28"/>
                <rect id="Rectangle" fill="#FFD700" x="0" y="0" width="91" height="91" rx="28"/>
                <g id="inr" transform="translate(24.143524, 18.000000)" fill="#C7AC1B" fill-rule="nonzero">
                    <g id="Group" transform="translate(22.856476, 30.000000) scale(-1, 1) rotate(-180.000000) translate(-22.856476, -30.000000) translate(0.856476, 0.000000)">
                        <path d="M5.67005843,57.5886734 L5.67005843,55.1773468 L15.6266001,55.1773468 L25.5816976,55.1773468 L25.652465,55.0564118 C25.6914593,54.9885702 25.7290094,54.9207286 25.739119,54.9045056 C25.7477844,54.8882826 25.7680037,54.8514121 25.7838902,54.8233906 C25.8185518,54.7614483 26.1767216,54.1154782 26.2171601,54.0417373 C26.2330467,54.0137158 26.2763737,53.931126 26.315368,53.8573851 C26.352918,53.7851191 26.3890238,53.7187523 26.3948008,53.7099034 C26.4005777,53.7025293 26.4424604,53.6228892 26.4886759,53.5329253 C26.5348914,53.4444363 26.5897722,53.3382494 26.6114357,53.2969545 C26.8020744,52.9400487 27.2772271,51.9696188 27.4779754,51.5271735 C27.4996389,51.4785045 27.5516313,51.3664184 27.5920698,51.2779294 C27.6325084,51.1909151 27.6657257,51.1156994 27.6657257,51.1127498 C27.6657257,51.1098002 27.6816123,51.0729297 27.7003873,51.03016 C27.9372415,50.4992257 28.2838574,49.632033 28.4513884,49.155667 C28.6723561,48.5318192 28.6752445,48.5214955 28.7922274,48.1424674 C28.8326659,48.008259 28.8716602,47.8828995 28.8788814,47.862252 C28.8947679,47.8180075 29.0305258,47.3342674 29.0507451,47.2502028 C29.0579663,47.2177568 29.0882951,47.0982966 29.1157356,46.9847356 C29.1446202,46.8711747 29.167728,46.7738367 29.167728,46.7679375 C29.167728,46.7605634 23.8803913,46.7561389 17.4188932,46.7561389 L5.67005843,46.7561389 L5.67005843,44.3448123 L5.67005843,41.9334857 L17.5633165,41.9334857 C25.5340379,41.9334857 29.4565745,41.9290613 29.4565745,41.9187376 C29.4565745,41.8803923 29.4089149,41.583954 29.3756975,41.4172996 C29.1041817,40.0427697 28.5900348,38.9381314 27.7466028,37.9146081 C27.2425655,37.3040336 26.6822031,36.7834231 25.9109827,36.2111939 C25.7261209,36.0740358 25.3116261,35.7997198 25.0516642,35.6433891 C24.9606775,35.5888209 24.8610254,35.5283534 24.8321407,35.5091807 C24.8018119,35.4900081 24.7758157,35.4737851 24.771483,35.4737851 C24.7685945,35.4737851 24.7238233,35.450188 24.6732751,35.4206917 C24.2992188,35.2038935 23.7865161,34.9458005 23.2969212,34.7260527 C23.1626075,34.66706 23.0384035,34.6110169 23.0225169,34.6036428 C22.9098667,34.5520242 22.5155912,34.3927439 22.2065253,34.2747585 C21.4800762,33.9989676 20.5788748,33.7099034 19.8018775,33.5049038 C19.3628307,33.389868 19.3426114,33.3839687 19.2386267,33.3588968 C19.1837458,33.3456235 19.0277687,33.308753 18.8948992,33.2763071 C18.7605856,33.2438611 18.6349373,33.2143647 18.6132738,33.2099403 C18.5916103,33.2069906 18.5121775,33.1892928 18.4370774,33.1730698 C18.3619773,33.155372 18.2507714,33.1317749 18.1915578,33.1214512 C18.1323443,33.1096527 18.0572441,33.0934297 18.025471,33.0845808 C17.944594,33.0654082 17.5387645,32.985768 17.3394604,32.9503724 C17.2484737,32.9341494 17.1213812,32.9120271 17.057835,32.9002286 C16.8931924,32.8707322 16.6029016,32.8191136 16.5595746,32.8117395 C16.4945841,32.8014158 16.1349701,32.7438979 16.0829777,32.7365239 C16.0555373,32.7320994 16.016543,32.7262001 15.9963238,32.7232505 C15.9761045,32.718826 15.9371102,32.7129268 15.9096698,32.7085023 C15.8822294,32.7055527 15.7912427,32.6922793 15.7074772,32.6804808 C15.6237117,32.6686823 15.5269481,32.6539341 15.4908423,32.6495096 C15.2756515,32.6214881 15.2048841,32.6126392 15.173111,32.6067399 C15.1528917,32.6023155 15.0980109,32.5949414 15.0503512,32.5905169 C15.0026915,32.5860925 14.9478107,32.5787184 14.9275914,32.5757687 C14.9073722,32.5728191 14.8524913,32.5669198 14.8048316,32.5610206 C14.6950699,32.5477472 14.6315237,32.5403731 14.559312,32.5315242 C14.5275389,32.5270998 14.478435,32.5212005 14.4509946,32.516776 C14.4235541,32.5138264 14.3585636,32.5064523 14.3065713,32.5020279 C14.1852557,32.4902293 14.1087114,32.4813804 14.0466093,32.4725315 C14.0191689,32.4695819 13.9469573,32.4622078 13.8877437,32.4563085 C13.8285302,32.4518841 13.7606512,32.44451 13.7360993,32.4415604 C13.7129915,32.4386107 13.6480011,32.4327115 13.591676,32.428287 C13.5367951,32.4238625 13.461695,32.4164885 13.4255892,32.4135388 C13.3894834,32.4105892 13.3187159,32.4032151 13.2667236,32.3987906 C13.2147312,32.3943662 13.1410753,32.3884669 13.1006368,32.3840425 C13.0616425,32.3810928 12.9793212,32.3737188 12.9201077,32.3692943 C12.8608941,32.3648698 12.7756844,32.3574958 12.7323574,32.3545461 C12.6890304,32.3515965 12.5980437,32.3442224 12.5301648,32.339798 C12.4622858,32.3338987 12.3785203,32.3279994 12.3424145,32.3250498 C12.3063087,32.3221001 12.2066566,32.3162009 12.1185584,32.3103016 C12.0319044,32.3058771 11.9206985,32.2985031 11.8730388,32.2955534 C11.8253791,32.2926038 11.7083962,32.2852297 11.6130769,32.2808053 C11.5177575,32.2778556 11.3776669,32.2704815 11.3025668,32.2660571 C11.2274667,32.2616326 11.0873761,32.2542585 10.9920567,32.2498341 C10.8967373,32.2454096 10.7667564,32.2395104 10.7032101,32.2365607 C9.62870085,32.1849421 7.40891486,32.1996903 6.4499442,32.2645823 C6.37484409,32.2690067 6.24197466,32.2778556 6.15387645,32.2822801 C6.06722248,32.2881793 5.97190311,32.2926038 5.94446268,32.2955534 C5.66861419,32.3147261 5.54441016,32.3250498 5.37687914,32.339798 C5.20068273,32.3545461 5.12413838,32.3619202 5.02015361,32.3692943 C4.96094006,32.3737188 4.88295149,32.3810928 4.84684566,32.3840425 C4.81073984,32.3869921 4.72408587,32.3943662 4.65187422,32.3987906 C4.58110681,32.4046899 4.49878553,32.4105892 4.47134511,32.4135388 C4.44390468,32.4164885 4.36302764,32.4223877 4.29081599,32.428287 C4.22004858,32.4327115 4.1377273,32.4400855 4.11028688,32.4430352 C4.08284645,32.4459848 4.00485787,32.4518841 3.93697893,32.4577833 C3.86909998,32.4622078 3.78533447,32.4695819 3.74922865,32.4725315 C3.71312283,32.4754812 3.62935732,32.4828552 3.56147837,32.4872797 C3.49359942,32.4917042 3.41561084,32.4990782 3.38817042,32.5020279 C3.36072999,32.5049775 3.27552025,32.5123516 3.20042014,32.516776 C3.12532003,32.5226753 3.04011029,32.5285746 3.01266986,32.5315242 C2.98522944,32.5344739 2.90724086,32.5403731 2.83936191,32.5462724 C2.77148296,32.5506969 2.68771746,32.5580709 2.65161163,32.5610206 C2.61550581,32.5639702 2.53751723,32.5713443 2.47830368,32.5757687 C2.41909013,32.5801932 2.34110156,32.5860925 2.30499573,32.5905169 C2.26888991,32.5934666 2.18223594,32.5993658 2.11002429,32.6037903 C2.03925688,32.6096896 1.9482702,32.6155888 1.90783168,32.6200133 C1.81395654,32.6288622 1.68975251,32.6391859 1.55399462,32.6495096 C1.49478107,32.6539341 1.41679249,32.6613082 1.38068667,32.6642578 C1.34458084,32.6672074 1.2637038,32.6731067 1.20015755,32.679006 C1.1366113,32.6834304 1.05573426,32.6893297 1.01962844,32.6937541 C0.983522615,32.6967038 0.899757106,32.7040779 0.831878159,32.7085023 C0.716339526,32.7158764 0.661458675,32.7203009 0.482373794,32.7379987 C0.407273682,32.7438979 0.327840872,32.751272 0.10398477,32.7689698 C-0.00577693166,32.7763439 -0.00866539749,32.7763439 0.0101096304,32.7483224 C0.0216634937,32.7335742 0.241186897,32.4799056 0.499704589,32.1849421 C0.758222281,31.8899786 1.13805554,31.4563823 1.34458084,31.2189367 C1.55110615,30.9829659 2.34399002,30.0774279 3.106545,29.2058108 C3.86909998,28.3341936 4.63598766,27.4581521 4.81073984,27.2590517 C4.98549202,27.0599513 5.3133329,26.6853477 5.54007746,26.4257798 C5.76682203,26.1676867 6.0946629,25.7930831 6.26941509,25.5925079 C6.44416727,25.3934076 6.77200814,25.0188039 6.99875271,24.759236 C7.22549728,24.501143 7.57644587,24.0999926 7.77863848,23.8684463 C7.98227532,23.6368999 8.4242106,23.1310375 8.76071686,22.7461102 C9.09722313,22.3611828 9.48138909,21.923162 9.61281428,21.7727306 C9.74423948,21.6222992 10.1832863,21.1223361 10.5876715,20.6592434 C11.7546117,19.3245336 12.512834,18.4588157 12.8334537,18.093061 C12.996652,17.907234 13.461695,17.3762997 13.8660802,16.913207 C14.2704654,16.4515891 14.7903893,15.8572377 15.0214666,15.5932453 C15.2525438,15.329253 15.8042408,14.6995059 16.2476203,14.1921687 C16.6909998,13.6848315 17.3452373,12.9385739 17.7005186,12.532999 C18.0543557,12.1274242 18.6233834,11.4770297 18.9642224,11.0876779 C19.3050614,10.6983261 19.7729928,10.1644422 20.0040701,9.90044982 C20.6568634,9.15566699 21.2215585,8.50969693 21.8887941,7.74721628 C22.2267446,7.36228892 22.6903433,6.83135462 22.9214206,6.56736229 C23.1524979,6.30336996 23.8081796,5.55416267 24.3800958,4.90081852 C24.9520121,4.24747438 25.6134708,3.490893 25.8517692,3.21952658 C26.0900676,2.94816017 26.8208495,2.11193865 27.4765312,1.36273136 L28.6694676,0 L29.5360074,0.0103237224 C30.0126042,0.0162229924 30.6206263,0.0265467148 30.8863651,0.0339208023 C31.152104,0.0412948898 31.555045,0.0471941597 31.7817895,0.0471941597 C32.0085341,0.0471941597 32.3464846,0.0516186122 32.5327907,0.0545682472 C32.7190967,0.0589926997 33.1263704,0.0663667871 33.4354362,0.0707912396 C33.7459463,0.0752156921 34.0925622,0.081114962 34.2081008,0.0855394145 C34.3236395,0.089963867 34.6023764,0.092913502 34.8262325,0.092913502 C35.0847502,0.092913502 35.2335062,0.0988127719 35.2306177,0.107661677 C35.2291735,0.115035764 35.0573098,0.312661308 34.8493402,0.545682472 C34.6428149,0.778703635 34.0319044,1.46891822 33.4917613,2.07654303 C32.4807983,3.21657695 31.8785531,3.89499299 30.0775947,5.92581668 C28.9222084,7.22955534 28.0701109,8.18818671 27.6310641,8.68372539 C27.4721985,8.86217831 26.8815073,9.52879581 26.3168122,10.165917 C25.7521171,10.8015633 25.0978796,11.5389721 24.8639139,11.8029644 C24.6299481,12.0669567 23.9757106,12.8043655 23.4110156,13.4400118 C22.8477647,14.077133 22.1906387,14.8174913 21.9523403,15.0844333 C21.534957,15.5563749 20.5904287,16.6197183 18.4211908,19.0664405 C17.8521631,19.7079861 17.1935929,20.4512942 16.9552944,20.7182361 C16.7184402,20.9866529 16.3082781,21.4482708 16.0468719,21.7432343 C14.2358038,23.7858565 12.6919189,25.5246663 12.1618854,26.1219674 C11.0787107,27.3431163 11.0166087,27.4139075 11.0209414,27.418332 C11.0223856,27.4198068 11.1047069,27.4242313 11.2029147,27.4286557 C11.477319,27.4404542 11.6607366,27.4493031 11.7719425,27.4581521 C11.8282676,27.4625765 11.9539158,27.4684758 12.0535679,27.4729002 C12.15322,27.4773247 12.2702028,27.483224 12.3135298,27.4876484 C12.3568568,27.490598 12.4579531,27.4964973 12.5373859,27.5023966 C12.6168187,27.506821 12.7179151,27.5141951 12.761242,27.5171448 C12.804569,27.5200944 12.8998884,27.5274685 12.9706558,27.5318929 C13.0428675,27.5363174 13.1295214,27.5436915 13.1656273,27.5466411 C13.2017331,27.5495907 13.2826101,27.5569648 13.3461564,27.5613893 C13.4746931,27.5702382 13.6090068,27.5820367 13.6855511,27.5908856 C13.7129915,27.5938353 13.7982013,27.5997345 13.8733014,27.6056338 C13.9484015,27.6100583 14.0263901,27.6174323 14.0466093,27.620382 C14.0668286,27.6248064 14.1217094,27.6307057 14.1693691,27.6351302 C14.2170288,27.6395546 14.2791308,27.6454539 14.3065713,27.6484035 C14.3340117,27.652828 14.4062233,27.6587272 14.4654369,27.6646265 C14.5246504,27.6705258 14.5896409,27.676425 14.6098602,27.6793747 C14.6300794,27.6823243 14.6950699,27.6896984 14.7542835,27.6941229 C14.813497,27.6985473 14.8727106,27.7059214 14.8842644,27.708871 C14.8958183,27.7118207 14.9478107,27.7191947 14.9998031,27.7236192 C15.0517954,27.7280437 15.1138975,27.7354177 15.1370052,27.7383674 C15.1615571,27.7427918 15.2092168,27.7486911 15.2453227,27.7531156 C15.3319766,27.7619645 15.5370577,27.7885112 15.9385545,27.8401298 C15.9659949,27.8445542 16.02232,27.8504535 16.0613143,27.8563528 C16.1378586,27.8666765 16.4830303,27.9168203 16.6751132,27.9448418 C16.7545461,27.9566404 16.8065384,27.9654893 16.8599751,27.9728634 C16.8816385,27.9772878 16.927854,27.9846619 16.9639598,27.9890864 C17.0000656,27.9935108 17.0491696,28.0008849 17.0722773,28.0053093 C17.1416005,28.0171079 17.6311954,28.0996977 17.684632,28.1085466 C17.7106282,28.112971 17.7467341,28.1203451 17.7640649,28.1232947 C17.7799514,28.1262444 17.9055997,28.1498415 18.0399133,28.1734385 C18.4486313,28.2486542 18.8010241,28.3179707 19.0508764,28.3725389 C19.0667629,28.3769634 19.14764,28.3931863 19.2314055,28.4108842 C19.315171,28.4271071 19.4494847,28.4580783 19.5318059,28.4772509 C19.612683,28.4964236 19.6950043,28.5155962 19.7123351,28.5185458 C19.8870872,28.5509918 20.7507385,28.7707396 21.2027834,28.8960991 C21.3226548,28.9285451 21.429528,28.9580414 21.4410819,28.9609911 C21.4699665,28.96984 21.8310247,29.0760268 22.018775,29.1320699 C22.5502527,29.292825 23.3286943,29.5582922 23.8385085,29.7544429 C24.0334799,29.8281838 24.6573886,30.0789027 24.7122694,30.1054495 C24.8018119,30.1467443 24.9086851,30.1939385 24.914462,30.1939385 C24.9216832,30.1939385 25.39828,30.4092619 25.5427033,30.4771035 C25.782446,30.5906644 25.8546577,30.62606 26.0770695,30.7381462 C26.3298103,30.8649805 26.6417646,31.03016 26.8410687,31.1422461 C26.9075034,31.1805914 26.9638285,31.2115626 26.9652728,31.2115626 C26.9739382,31.2115626 27.4953062,31.5197994 27.5862929,31.5787921 C27.6339526,31.6097633 27.7798201,31.7026768 27.9112453,31.7867414 C29.4146918,32.751272 30.7361649,33.9606224 31.7254645,35.2746848 C32.0764131,35.7407271 32.3999212,36.2392154 32.6887678,36.759826 C32.7913083,36.945653 33.0758222,37.5208318 33.1307031,37.6520906 C33.1509223,37.7037092 33.1841397,37.7789249 33.2029147,37.8216946 C33.3949977,38.2523413 33.6824001,39.1151095 33.8181579,39.6622668 C33.8354887,39.7315832 33.8585965,39.8244967 33.8687061,39.8687412 C33.9134773,40.0412949 34.0405698,40.6813657 34.0579006,40.8126244 C34.0622333,40.8494949 34.0694545,40.8922646 34.0723429,40.9084876 C34.0752314,40.9247106 34.091118,41.0338471 34.1084488,41.1518325 C34.1243353,41.2698179 34.1402219,41.381904 34.1431104,41.4025514 C34.1459988,41.4231989 34.15322,41.4762923 34.1575527,41.5205368 C34.1618854,41.5647814 34.1691065,41.6178748 34.171995,41.6385222 C34.1748835,41.6591697 34.1821046,41.7225868 34.1864373,41.7786299 C34.19077,41.8361478 34.1979912,41.8936657 34.2023239,41.9084138 C34.2095451,41.9320109 34.4550647,41.9334857 39.1054946,41.9334857 L44,41.9334857 L44,44.3448123 L44,46.7561389 L38.989956,46.7561389 L33.9813563,46.7561389 L33.942362,46.9596637 C33.9206985,47.0702751 33.88026,47.2679006 33.8528195,47.3976845 C33.8239349,47.5274685 33.7979387,47.6469287 33.7950502,47.6631517 C33.7806079,47.7383674 33.6679577,48.1985104 33.6217423,48.3710641 C33.5177575,48.751567 33.4397689,49.0362068 33.4123285,49.123221 C33.3978862,49.17189 33.3574476,49.3075732 33.3213418,49.4255586 C32.8476334,50.997714 32.1399593,52.7556965 31.2474234,54.5918443 L30.9614652,55.1773468 L37.4807326,55.1773468 L44,55.1773468 L44,57.5886734 L43.9985558,60 L24.8350292,60 L5.67005843,60 L5.67005843,57.5886734 Z" id="Path"/>
                    </g>
                </g>
                <g id="inr" transform="translate(21.143524, 16.000000)" fill="#5E5735" fill-rule="nonzero">
                    <g id="Group" transform="translate(22.856476, 30.000000) scale(-1, 1) rotate(-180.000000) translate(-22.856476, -30.000000) translate(0.856476, 0.000000)">
                        <path d="M5.67005843,57.5886734 L5.67005843,55.1773468 L15.6266001,55.1773468 L25.5816976,55.1773468 L25.652465,55.0564118 C25.6914593,54.9885702 25.7290094,54.9207286 25.739119,54.9045056 C25.7477844,54.8882826 25.7680037,54.8514121 25.7838902,54.8233906 C25.8185518,54.7614483 26.1767216,54.1154782 26.2171601,54.0417373 C26.2330467,54.0137158 26.2763737,53.931126 26.315368,53.8573851 C26.352918,53.7851191 26.3890238,53.7187523 26.3948008,53.7099034 C26.4005777,53.7025293 26.4424604,53.6228892 26.4886759,53.5329253 C26.5348914,53.4444363 26.5897722,53.3382494 26.6114357,53.2969545 C26.8020744,52.9400487 27.2772271,51.9696188 27.4779754,51.5271735 C27.4996389,51.4785045 27.5516313,51.3664184 27.5920698,51.2779294 C27.6325084,51.1909151 27.6657257,51.1156994 27.6657257,51.1127498 C27.6657257,51.1098002 27.6816123,51.0729297 27.7003873,51.03016 C27.9372415,50.4992257 28.2838574,49.632033 28.4513884,49.155667 C28.6723561,48.5318192 28.6752445,48.5214955 28.7922274,48.1424674 C28.8326659,48.008259 28.8716602,47.8828995 28.8788814,47.862252 C28.8947679,47.8180075 29.0305258,47.3342674 29.0507451,47.2502028 C29.0579663,47.2177568 29.0882951,47.0982966 29.1157356,46.9847356 C29.1446202,46.8711747 29.167728,46.7738367 29.167728,46.7679375 C29.167728,46.7605634 23.8803913,46.7561389 17.4188932,46.7561389 L5.67005843,46.7561389 L5.67005843,44.3448123 L5.67005843,41.9334857 L17.5633165,41.9334857 C25.5340379,41.9334857 29.4565745,41.9290613 29.4565745,41.9187376 C29.4565745,41.8803923 29.4089149,41.583954 29.3756975,41.4172996 C29.1041817,40.0427697 28.5900348,38.9381314 27.7466028,37.9146081 C27.2425655,37.3040336 26.6822031,36.7834231 25.9109827,36.2111939 C25.7261209,36.0740358 25.3116261,35.7997198 25.0516642,35.6433891 C24.9606775,35.5888209 24.8610254,35.5283534 24.8321407,35.5091807 C24.8018119,35.4900081 24.7758157,35.4737851 24.771483,35.4737851 C24.7685945,35.4737851 24.7238233,35.450188 24.6732751,35.4206917 C24.2992188,35.2038935 23.7865161,34.9458005 23.2969212,34.7260527 C23.1626075,34.66706 23.0384035,34.6110169 23.0225169,34.6036428 C22.9098667,34.5520242 22.5155912,34.3927439 22.2065253,34.2747585 C21.4800762,33.9989676 20.5788748,33.7099034 19.8018775,33.5049038 C19.3628307,33.389868 19.3426114,33.3839687 19.2386267,33.3588968 C19.1837458,33.3456235 19.0277687,33.308753 18.8948992,33.2763071 C18.7605856,33.2438611 18.6349373,33.2143647 18.6132738,33.2099403 C18.5916103,33.2069906 18.5121775,33.1892928 18.4370774,33.1730698 C18.3619773,33.155372 18.2507714,33.1317749 18.1915578,33.1214512 C18.1323443,33.1096527 18.0572441,33.0934297 18.025471,33.0845808 C17.944594,33.0654082 17.5387645,32.985768 17.3394604,32.9503724 C17.2484737,32.9341494 17.1213812,32.9120271 17.057835,32.9002286 C16.8931924,32.8707322 16.6029016,32.8191136 16.5595746,32.8117395 C16.4945841,32.8014158 16.1349701,32.7438979 16.0829777,32.7365239 C16.0555373,32.7320994 16.016543,32.7262001 15.9963238,32.7232505 C15.9761045,32.718826 15.9371102,32.7129268 15.9096698,32.7085023 C15.8822294,32.7055527 15.7912427,32.6922793 15.7074772,32.6804808 C15.6237117,32.6686823 15.5269481,32.6539341 15.4908423,32.6495096 C15.2756515,32.6214881 15.2048841,32.6126392 15.173111,32.6067399 C15.1528917,32.6023155 15.0980109,32.5949414 15.0503512,32.5905169 C15.0026915,32.5860925 14.9478107,32.5787184 14.9275914,32.5757687 C14.9073722,32.5728191 14.8524913,32.5669198 14.8048316,32.5610206 C14.6950699,32.5477472 14.6315237,32.5403731 14.559312,32.5315242 C14.5275389,32.5270998 14.478435,32.5212005 14.4509946,32.516776 C14.4235541,32.5138264 14.3585636,32.5064523 14.3065713,32.5020279 C14.1852557,32.4902293 14.1087114,32.4813804 14.0466093,32.4725315 C14.0191689,32.4695819 13.9469573,32.4622078 13.8877437,32.4563085 C13.8285302,32.4518841 13.7606512,32.44451 13.7360993,32.4415604 C13.7129915,32.4386107 13.6480011,32.4327115 13.591676,32.428287 C13.5367951,32.4238625 13.461695,32.4164885 13.4255892,32.4135388 C13.3894834,32.4105892 13.3187159,32.4032151 13.2667236,32.3987906 C13.2147312,32.3943662 13.1410753,32.3884669 13.1006368,32.3840425 C13.0616425,32.3810928 12.9793212,32.3737188 12.9201077,32.3692943 C12.8608941,32.3648698 12.7756844,32.3574958 12.7323574,32.3545461 C12.6890304,32.3515965 12.5980437,32.3442224 12.5301648,32.339798 C12.4622858,32.3338987 12.3785203,32.3279994 12.3424145,32.3250498 C12.3063087,32.3221001 12.2066566,32.3162009 12.1185584,32.3103016 C12.0319044,32.3058771 11.9206985,32.2985031 11.8730388,32.2955534 C11.8253791,32.2926038 11.7083962,32.2852297 11.6130769,32.2808053 C11.5177575,32.2778556 11.3776669,32.2704815 11.3025668,32.2660571 C11.2274667,32.2616326 11.0873761,32.2542585 10.9920567,32.2498341 C10.8967373,32.2454096 10.7667564,32.2395104 10.7032101,32.2365607 C9.62870085,32.1849421 7.40891486,32.1996903 6.4499442,32.2645823 C6.37484409,32.2690067 6.24197466,32.2778556 6.15387645,32.2822801 C6.06722248,32.2881793 5.97190311,32.2926038 5.94446268,32.2955534 C5.66861419,32.3147261 5.54441016,32.3250498 5.37687914,32.339798 C5.20068273,32.3545461 5.12413838,32.3619202 5.02015361,32.3692943 C4.96094006,32.3737188 4.88295149,32.3810928 4.84684566,32.3840425 C4.81073984,32.3869921 4.72408587,32.3943662 4.65187422,32.3987906 C4.58110681,32.4046899 4.49878553,32.4105892 4.47134511,32.4135388 C4.44390468,32.4164885 4.36302764,32.4223877 4.29081599,32.428287 C4.22004858,32.4327115 4.1377273,32.4400855 4.11028688,32.4430352 C4.08284645,32.4459848 4.00485787,32.4518841 3.93697893,32.4577833 C3.86909998,32.4622078 3.78533447,32.4695819 3.74922865,32.4725315 C3.71312283,32.4754812 3.62935732,32.4828552 3.56147837,32.4872797 C3.49359942,32.4917042 3.41561084,32.4990782 3.38817042,32.5020279 C3.36072999,32.5049775 3.27552025,32.5123516 3.20042014,32.516776 C3.12532003,32.5226753 3.04011029,32.5285746 3.01266986,32.5315242 C2.98522944,32.5344739 2.90724086,32.5403731 2.83936191,32.5462724 C2.77148296,32.5506969 2.68771746,32.5580709 2.65161163,32.5610206 C2.61550581,32.5639702 2.53751723,32.5713443 2.47830368,32.5757687 C2.41909013,32.5801932 2.34110156,32.5860925 2.30499573,32.5905169 C2.26888991,32.5934666 2.18223594,32.5993658 2.11002429,32.6037903 C2.03925688,32.6096896 1.9482702,32.6155888 1.90783168,32.6200133 C1.81395654,32.6288622 1.68975251,32.6391859 1.55399462,32.6495096 C1.49478107,32.6539341 1.41679249,32.6613082 1.38068667,32.6642578 C1.34458084,32.6672074 1.2637038,32.6731067 1.20015755,32.679006 C1.1366113,32.6834304 1.05573426,32.6893297 1.01962844,32.6937541 C0.983522615,32.6967038 0.899757106,32.7040779 0.831878159,32.7085023 C0.716339526,32.7158764 0.661458675,32.7203009 0.482373794,32.7379987 C0.407273682,32.7438979 0.327840872,32.751272 0.10398477,32.7689698 C-0.00577693166,32.7763439 -0.00866539749,32.7763439 0.0101096304,32.7483224 C0.0216634937,32.7335742 0.241186897,32.4799056 0.499704589,32.1849421 C0.758222281,31.8899786 1.13805554,31.4563823 1.34458084,31.2189367 C1.55110615,30.9829659 2.34399002,30.0774279 3.106545,29.2058108 C3.86909998,28.3341936 4.63598766,27.4581521 4.81073984,27.2590517 C4.98549202,27.0599513 5.3133329,26.6853477 5.54007746,26.4257798 C5.76682203,26.1676867 6.0946629,25.7930831 6.26941509,25.5925079 C6.44416727,25.3934076 6.77200814,25.0188039 6.99875271,24.759236 C7.22549728,24.501143 7.57644587,24.0999926 7.77863848,23.8684463 C7.98227532,23.6368999 8.4242106,23.1310375 8.76071686,22.7461102 C9.09722313,22.3611828 9.48138909,21.923162 9.61281428,21.7727306 C9.74423948,21.6222992 10.1832863,21.1223361 10.5876715,20.6592434 C11.7546117,19.3245336 12.512834,18.4588157 12.8334537,18.093061 C12.996652,17.907234 13.461695,17.3762997 13.8660802,16.913207 C14.2704654,16.4515891 14.7903893,15.8572377 15.0214666,15.5932453 C15.2525438,15.329253 15.8042408,14.6995059 16.2476203,14.1921687 C16.6909998,13.6848315 17.3452373,12.9385739 17.7005186,12.532999 C18.0543557,12.1274242 18.6233834,11.4770297 18.9642224,11.0876779 C19.3050614,10.6983261 19.7729928,10.1644422 20.0040701,9.90044982 C20.6568634,9.15566699 21.2215585,8.50969693 21.8887941,7.74721628 C22.2267446,7.36228892 22.6903433,6.83135462 22.9214206,6.56736229 C23.1524979,6.30336996 23.8081796,5.55416267 24.3800958,4.90081852 C24.9520121,4.24747438 25.6134708,3.490893 25.8517692,3.21952658 C26.0900676,2.94816017 26.8208495,2.11193865 27.4765312,1.36273136 L28.6694676,0 L29.5360074,0.0103237224 C30.0126042,0.0162229924 30.6206263,0.0265467148 30.8863651,0.0339208023 C31.152104,0.0412948898 31.555045,0.0471941597 31.7817895,0.0471941597 C32.0085341,0.0471941597 32.3464846,0.0516186122 32.5327907,0.0545682472 C32.7190967,0.0589926997 33.1263704,0.0663667871 33.4354362,0.0707912396 C33.7459463,0.0752156921 34.0925622,0.081114962 34.2081008,0.0855394145 C34.3236395,0.089963867 34.6023764,0.092913502 34.8262325,0.092913502 C35.0847502,0.092913502 35.2335062,0.0988127719 35.2306177,0.107661677 C35.2291735,0.115035764 35.0573098,0.312661308 34.8493402,0.545682472 C34.6428149,0.778703635 34.0319044,1.46891822 33.4917613,2.07654303 C32.4807983,3.21657695 31.8785531,3.89499299 30.0775947,5.92581668 C28.9222084,7.22955534 28.0701109,8.18818671 27.6310641,8.68372539 C27.4721985,8.86217831 26.8815073,9.52879581 26.3168122,10.165917 C25.7521171,10.8015633 25.0978796,11.5389721 24.8639139,11.8029644 C24.6299481,12.0669567 23.9757106,12.8043655 23.4110156,13.4400118 C22.8477647,14.077133 22.1906387,14.8174913 21.9523403,15.0844333 C21.534957,15.5563749 20.5904287,16.6197183 18.4211908,19.0664405 C17.8521631,19.7079861 17.1935929,20.4512942 16.9552944,20.7182361 C16.7184402,20.9866529 16.3082781,21.4482708 16.0468719,21.7432343 C14.2358038,23.7858565 12.6919189,25.5246663 12.1618854,26.1219674 C11.0787107,27.3431163 11.0166087,27.4139075 11.0209414,27.418332 C11.0223856,27.4198068 11.1047069,27.4242313 11.2029147,27.4286557 C11.477319,27.4404542 11.6607366,27.4493031 11.7719425,27.4581521 C11.8282676,27.4625765 11.9539158,27.4684758 12.0535679,27.4729002 C12.15322,27.4773247 12.2702028,27.483224 12.3135298,27.4876484 C12.3568568,27.490598 12.4579531,27.4964973 12.5373859,27.5023966 C12.6168187,27.506821 12.7179151,27.5141951 12.761242,27.5171448 C12.804569,27.5200944 12.8998884,27.5274685 12.9706558,27.5318929 C13.0428675,27.5363174 13.1295214,27.5436915 13.1656273,27.5466411 C13.2017331,27.5495907 13.2826101,27.5569648 13.3461564,27.5613893 C13.4746931,27.5702382 13.6090068,27.5820367 13.6855511,27.5908856 C13.7129915,27.5938353 13.7982013,27.5997345 13.8733014,27.6056338 C13.9484015,27.6100583 14.0263901,27.6174323 14.0466093,27.620382 C14.0668286,27.6248064 14.1217094,27.6307057 14.1693691,27.6351302 C14.2170288,27.6395546 14.2791308,27.6454539 14.3065713,27.6484035 C14.3340117,27.652828 14.4062233,27.6587272 14.4654369,27.6646265 C14.5246504,27.6705258 14.5896409,27.676425 14.6098602,27.6793747 C14.6300794,27.6823243 14.6950699,27.6896984 14.7542835,27.6941229 C14.813497,27.6985473 14.8727106,27.7059214 14.8842644,27.708871 C14.8958183,27.7118207 14.9478107,27.7191947 14.9998031,27.7236192 C15.0517954,27.7280437 15.1138975,27.7354177 15.1370052,27.7383674 C15.1615571,27.7427918 15.2092168,27.7486911 15.2453227,27.7531156 C15.3319766,27.7619645 15.5370577,27.7885112 15.9385545,27.8401298 C15.9659949,27.8445542 16.02232,27.8504535 16.0613143,27.8563528 C16.1378586,27.8666765 16.4830303,27.9168203 16.6751132,27.9448418 C16.7545461,27.9566404 16.8065384,27.9654893 16.8599751,27.9728634 C16.8816385,27.9772878 16.927854,27.9846619 16.9639598,27.9890864 C17.0000656,27.9935108 17.0491696,28.0008849 17.0722773,28.0053093 C17.1416005,28.0171079 17.6311954,28.0996977 17.684632,28.1085466 C17.7106282,28.112971 17.7467341,28.1203451 17.7640649,28.1232947 C17.7799514,28.1262444 17.9055997,28.1498415 18.0399133,28.1734385 C18.4486313,28.2486542 18.8010241,28.3179707 19.0508764,28.3725389 C19.0667629,28.3769634 19.14764,28.3931863 19.2314055,28.4108842 C19.315171,28.4271071 19.4494847,28.4580783 19.5318059,28.4772509 C19.612683,28.4964236 19.6950043,28.5155962 19.7123351,28.5185458 C19.8870872,28.5509918 20.7507385,28.7707396 21.2027834,28.8960991 C21.3226548,28.9285451 21.429528,28.9580414 21.4410819,28.9609911 C21.4699665,28.96984 21.8310247,29.0760268 22.018775,29.1320699 C22.5502527,29.292825 23.3286943,29.5582922 23.8385085,29.7544429 C24.0334799,29.8281838 24.6573886,30.0789027 24.7122694,30.1054495 C24.8018119,30.1467443 24.9086851,30.1939385 24.914462,30.1939385 C24.9216832,30.1939385 25.39828,30.4092619 25.5427033,30.4771035 C25.782446,30.5906644 25.8546577,30.62606 26.0770695,30.7381462 C26.3298103,30.8649805 26.6417646,31.03016 26.8410687,31.1422461 C26.9075034,31.1805914 26.9638285,31.2115626 26.9652728,31.2115626 C26.9739382,31.2115626 27.4953062,31.5197994 27.5862929,31.5787921 C27.6339526,31.6097633 27.7798201,31.7026768 27.9112453,31.7867414 C29.4146918,32.751272 30.7361649,33.9606224 31.7254645,35.2746848 C32.0764131,35.7407271 32.3999212,36.2392154 32.6887678,36.759826 C32.7913083,36.945653 33.0758222,37.5208318 33.1307031,37.6520906 C33.1509223,37.7037092 33.1841397,37.7789249 33.2029147,37.8216946 C33.3949977,38.2523413 33.6824001,39.1151095 33.8181579,39.6622668 C33.8354887,39.7315832 33.8585965,39.8244967 33.8687061,39.8687412 C33.9134773,40.0412949 34.0405698,40.6813657 34.0579006,40.8126244 C34.0622333,40.8494949 34.0694545,40.8922646 34.0723429,40.9084876 C34.0752314,40.9247106 34.091118,41.0338471 34.1084488,41.1518325 C34.1243353,41.2698179 34.1402219,41.381904 34.1431104,41.4025514 C34.1459988,41.4231989 34.15322,41.4762923 34.1575527,41.5205368 C34.1618854,41.5647814 34.1691065,41.6178748 34.171995,41.6385222 C34.1748835,41.6591697 34.1821046,41.7225868 34.1864373,41.7786299 C34.19077,41.8361478 34.1979912,41.8936657 34.2023239,41.9084138 C34.2095451,41.9320109 34.4550647,41.9334857 39.1054946,41.9334857 L44,41.9334857 L44,44.3448123 L44,46.7561389 L38.989956,46.7561389 L33.9813563,46.7561389 L33.942362,46.9596637 C33.9206985,47.0702751 33.88026,47.2679006 33.8528195,47.3976845 C33.8239349,47.5274685 33.7979387,47.6469287 33.7950502,47.6631517 C33.7806079,47.7383674 33.6679577,48.1985104 33.6217423,48.3710641 C33.5177575,48.751567 33.4397689,49.0362068 33.4123285,49.123221 C33.3978862,49.17189 33.3574476,49.3075732 33.3213418,49.4255586 C32.8476334,50.997714 32.1399593,52.7556965 31.2474234,54.5918443 L30.9614652,55.1773468 L37.4807326,55.1773468 L44,55.1773468 L44,57.5886734 L43.9985558,60 L24.8350292,60 L5.67005843,60 L5.67005843,57.5886734 Z" id="Path"/>
                    </g>
                </g>
            </g>
        </g>
    </g>
</symbol>
<symbol id="education-icon">
    <title>Education Icon</title>
    <g id="Education-Icon" stroke="none" stroke-width="1" fill="none" fill-rule="evenodd">
        <g>
            <circle id="Oval" fill-opacity="0.6" fill="#0000FF" cx="46.5" cy="46.5" r="46.5"></circle>
            <g id="Group-2" transform="translate(20.866775, 14.322428)">
                <g id="Group" transform="translate(0.000000, 4.000000)" fill="#CDCACA">
                    <polygon id="Path-5" points="0.133225277 2.20770393 0.133225277 54.9059572 26.0734065 60.6775722 50.1332253 54.9059572 50.1332253 2.8149865e-15 22.6332253 10.0770557"></polygon>
                </g>
                <g id="Group">
                    <polygon id="Path-5" fill="#EEEEEE" points="0.133225277 0.677572163 0.133225277 55.9059572 26.0734065 61.6775722 50.1332253 55.9059572 50.1332253 0.677572163 26.0734065 9.74648447"></polygon>
                    <line x1="25.6332253" y1="9.67757216" x2="25.6332253" y2="61.6775722" id="Path-6" stroke="#CDCACA"></line>
                </g>
            </g>
        </g>
    </g>
</symbol>
<symbol id='email'>
<title>Email_Icon</title>
    <g id="Design" stroke="none" stroke-width="1" fill="none" fill-rule="evenodd">
        <g id="Icons" transform="translate(-729.000000, -108.000000)" stroke="#EEEEEE">
            <g id="Email_Icon" transform="translate(729.000000, 108.000000)">
                <rect id="Rectangle" stroke-width="5" x="2.5" y="2.5" width="135" height="86" rx="17"></rect>
                <polyline id="Path-10" stroke-width="4" points="6.127876 7.06224103 70 45.5 133.270103 7.06224103"></polyline>
            </g>
        </g>
    </g>
</symbol>
</svg>