<?xml version="1.0" encoding="UTF-8"?>
<svg width="94px" height="93px" viewBox="0 0 94 93" version="1.1" xmlns="http://www.w3.org/2000/svg" xmlns:xlink="http://www.w3.org/1999/xlink">
    <title>Inequality Icon</title>
    <g id="Design" stroke="none" stroke-width="1" fill="none" fill-rule="evenodd">
        <g id="Icons" transform="translate(-248.000000, -106.000000)">
            <g id="Inequality-Icon" transform="translate(248.000000, 106.000000)">
                <rect id="Rectangle" fill="#AD3A37" x="3" y="2" width="91" height="91" rx="28"></rect>
                <rect id="Rectangle" fill="#EE4540" x="0" y="0" width="91" height="91" rx="28"></rect>
                <g transform="translate(15.000000, 18.000000)" fill="#AD3A37" fill-rule="nonzero" id="Group">
                    <g transform="translate(33.500000, 29.000000) scale(-1, 1) rotate(-180.000000) translate(-33.500000, -29.000000) ">
                        <path d="M31.8630682,52.7413333 C22.19375,49.9573333 14.1613636,47.56 14.0471591,47.4053333 C13.9329545,47.2893333 11.3823864,41.5666667 8.375,34.684 L2.93125,22.1946667 L1.48465909,22.0013333 L0,21.808 L0.0761363636,19.72 C0.266477273,15.2733333 4.03522727,9.86 8.33693182,7.84933333 C9.47897727,7.308 11.4585227,6.68933333 12.7147727,6.496 C20.4806818,5.104 28.3607955,10.7493333 29.8835227,18.792 C30.3784091,21.5373333 30.15,21.924 28.0943182,22.0786667 L26.38125,22.1946667 L21.4323864,33.756 C18.7295455,40.0973333 16.5596591,45.3173333 16.6357955,45.3946667 C16.7880682,45.5106667 31.6727273,49.8413333 31.9772727,49.8413333 C32.0914773,49.8413333 32.1676136,40.9093333 32.1676136,30.044 L32.1676136,10.208 L26.6096591,6.148 C21.8130682,2.62933333 21.1278409,1.972 21.2039773,1.12133333 L21.3181818,0.154666667 L32.7767045,0.0386666667 C42.5982955,-0.0386666667 44.3113636,0.0386666667 44.7301136,0.541333333 C44.9965909,0.850666667 45.1107955,1.35333333 44.9965909,1.66266667 C44.8823864,1.972 42.5602273,3.98266667 39.8193182,6.148 L34.8323864,10.092 L34.9085227,30.392 L35.0227273,50.7306667 L40.7329545,52.3933333 C43.8926136,53.3213333 46.7857955,54.1333333 47.2426136,54.2493333 C47.9659091,54.4426667 47.6232955,53.0893333 43.5880682,39.5173333 L39.1340909,24.5533333 L37.8778409,24.2053333 L36.6215909,23.896 L36.85,21.7693333 C37.1545455,18.8693333 38.9818182,15.08 41.1136364,12.9146667 C42.0653409,11.9093333 44.0068182,10.556 45.4153409,9.89866667 C47.7375,8.77733333 48.2704545,8.66133333 51.7727273,8.66133333 C55.275,8.66133333 55.8079545,8.77733333 58.1301136,9.89866667 C62.8886364,12.18 66.2767045,16.82 66.6954545,21.6533333 C66.9238636,24.0893333 67,24.012 64.3732955,24.3986667 C63.8022727,24.476 62.5840909,27.4146667 58.4727273,38.4346667 C55.5795455,46.0906667 52.7625,53.6306667 52.1914773,55.1773333 C51.3159091,57.4973333 51.0113636,57.9613333 50.3261364,57.9226667 C49.8693182,57.884 41.5704545,55.564 31.8630682,52.7413333 Z M55.5795455,38.2413333 C58.2443182,31.1266667 60.5284091,25.056 60.6045455,24.824 C60.7568182,24.476 60.3380682,24.3213333 59.2340909,24.3213333 C57.7494318,24.3213333 57.6732955,24.36 57.2926136,25.984 C56.5693182,28.8066667 56.4551136,29.1546667 56.0744318,29.6573333 C55.8460227,29.8893333 55.1227273,30.1213333 54.4755682,30.1213333 C53.4857955,30.16 53.4096591,30.1986667 53.9806818,30.5466667 C54.8943182,31.088 55.7698864,32.944 55.7698864,34.3746667 C55.7698864,37.816 51.9630682,40.0586667 48.9176136,38.4346667 C47.5471591,37.7386667 46.6335227,36.0373333 46.6335227,34.2973333 C46.6335227,32.9053333 47.8517045,30.5466667 48.6130682,30.4693333 C48.8795455,30.4306667 48.4227273,30.276 47.6232955,30.16 C46.1386364,29.928 46.1386364,29.928 45.3772727,27.144 C44.6539773,24.3213333 44.6539773,24.3213333 43.3215909,24.3213333 C42.4079545,24.3213333 42.0272727,24.476 42.1414773,24.8626667 C43.0551136,28.884 50.3261364,52.316 50.4784091,51.852 C50.6306818,51.504 52.9147727,45.356 55.5795455,38.2413333 Z M16.33125,38.6666667 C17.0926136,36.9266667 17.7017045,35.38 17.7017045,35.3026667 C17.7017045,35.1866667 17.3590909,35.3026667 16.9784091,35.5346667 C16.0267045,36.0373333 13.6664773,36.0373333 12.7147727,35.5346667 C10.8875,34.5293333 10.2784091,30.972 11.6488636,29.1933333 C12.4102273,28.2266667 12.4102273,28.188 11.6869318,28.188 C10.6210227,28.188 10.2403409,27.5306667 9.47897727,24.592 L8.86988636,22.0013333 L7.38522727,22.0013333 L5.90056818,22.0013333 L6.39545455,23.2773333 C7.5375,25.984 14.0090909,40.7933333 14.3517045,41.4506667 C14.5420455,41.8373333 14.7704545,42.108 14.8465909,42.0306667 C14.9227273,41.9533333 15.6079545,40.4453333 16.33125,38.6666667 Z M45.3011364,20.764 C46.0244318,20.2613333 46.6715909,19.5266667 46.7857955,19.1013333 C47.2426136,17.052 47.8517045,12.296 47.6613636,12.1026667 C47.31875,11.716 44.9585227,13.1466667 43.2835227,14.8093333 C41.6085227,16.3946667 40.3142045,18.5213333 39.7431818,20.532 L39.4386364,21.6146667 L41.7227273,21.6146667 C43.4357955,21.6146667 44.3113636,21.3826667 45.3011364,20.764 Z M53.3335227,20.3773333 C53.2193182,19.6813333 52.9147727,17.5933333 52.6863636,15.7373333 C52.2676136,12.6826667 52.1534091,12.3346667 51.4301136,12.3346667 C50.66875,12.3346667 50.5545455,12.76 49.83125,16.9746667 L49.0698864,21.6146667 L51.3159091,21.6146667 L53.5619318,21.6146667 L53.3335227,20.3773333 Z M63.9164773,20.764 C62.6602273,16.588 59.2721591,12.9533333 55.5795455,11.7933333 C54.7801136,11.5613333 54.7801136,11.5613333 55.3892045,15.5826667 C56.1886364,21.112 56.6454545,21.6146667 60.9852273,21.6146667 C64.1448864,21.6146667 64.1829545,21.6146667 63.9164773,20.764 Z M10.3926136,18.9853333 C10.6590909,18.792 11.1539773,16.8586667 11.4965909,14.616 C11.8392045,12.412 12.2579545,10.3626667 12.4863636,10.1306667 C12.7147727,9.82133333 13.7806818,9.628 15.2653409,9.628 C18.1965909,9.628 18.1965909,9.628 18.84375,14.848 C19.1102273,16.9746667 19.5289773,18.8306667 19.7573864,18.9853333 C19.9857955,19.14 21.775,19.2946667 23.7164773,19.2946667 C27.21875,19.2946667 27.2568182,19.2946667 27.0284091,18.444 C26.38125,16.1626667 25.0869318,14.1133333 23.1835227,12.3733333 C20.6710227,10.0146667 18.1204545,9.048 14.5801136,9.08666667 C10.05,9.164 5.74829545,12.064 3.76875,16.3173333 C3.27386364,17.4386667 2.85511364,18.56 2.85511364,18.8306667 C2.85511364,19.372 9.55511364,19.488 10.3926136,18.9853333 Z M39.4005682,2.784 C39.4005682,2.74533333 36.5454545,2.668 33.0431818,2.668 L26.6857955,2.668 L30.0357955,5.18133333 L33.3857955,7.69466667 L36.3931818,5.29733333 C38.0301136,3.98266667 39.4005682,2.86133333 39.4005682,2.784 Z" id="Shape"></path>
                    </g>
                </g>
                <g transform="translate(12.000000, 16.000000)" fill="#EEEEEE" fill-rule="nonzero" id="Group">
                    <g transform="translate(33.500000, 29.000000) scale(-1, 1) rotate(-180.000000) translate(-33.500000, -29.000000) ">
                        <path d="M31.8630682,52.7413333 C22.19375,49.9573333 14.1613636,47.56 14.0471591,47.4053333 C13.9329545,47.2893333 11.3823864,41.5666667 8.375,34.684 L2.93125,22.1946667 L1.48465909,22.0013333 L0,21.808 L0.0761363636,19.72 C0.266477273,15.2733333 4.03522727,9.86 8.33693182,7.84933333 C9.47897727,7.308 11.4585227,6.68933333 12.7147727,6.496 C20.4806818,5.104 28.3607955,10.7493333 29.8835227,18.792 C30.3784091,21.5373333 30.15,21.924 28.0943182,22.0786667 L26.38125,22.1946667 L21.4323864,33.756 C18.7295455,40.0973333 16.5596591,45.3173333 16.6357955,45.3946667 C16.7880682,45.5106667 31.6727273,49.8413333 31.9772727,49.8413333 C32.0914773,49.8413333 32.1676136,40.9093333 32.1676136,30.044 L32.1676136,10.208 L26.6096591,6.148 C21.8130682,2.62933333 21.1278409,1.972 21.2039773,1.12133333 L21.3181818,0.154666667 L32.7767045,0.0386666667 C42.5982955,-0.0386666667 44.3113636,0.0386666667 44.7301136,0.541333333 C44.9965909,0.850666667 45.1107955,1.35333333 44.9965909,1.66266667 C44.8823864,1.972 42.5602273,3.98266667 39.8193182,6.148 L34.8323864,10.092 L34.9085227,30.392 L35.0227273,50.7306667 L40.7329545,52.3933333 C43.8926136,53.3213333 46.7857955,54.1333333 47.2426136,54.2493333 C47.9659091,54.4426667 47.6232955,53.0893333 43.5880682,39.5173333 L39.1340909,24.5533333 L37.8778409,24.2053333 L36.6215909,23.896 L36.85,21.7693333 C37.1545455,18.8693333 38.9818182,15.08 41.1136364,12.9146667 C42.0653409,11.9093333 44.0068182,10.556 45.4153409,9.89866667 C47.7375,8.77733333 48.2704545,8.66133333 51.7727273,8.66133333 C55.275,8.66133333 55.8079545,8.77733333 58.1301136,9.89866667 C62.8886364,12.18 66.2767045,16.82 66.6954545,21.6533333 C66.9238636,24.0893333 67,24.012 64.3732955,24.3986667 C63.8022727,24.476 62.5840909,27.4146667 58.4727273,38.4346667 C55.5795455,46.0906667 52.7625,53.6306667 52.1914773,55.1773333 C51.3159091,57.4973333 51.0113636,57.9613333 50.3261364,57.9226667 C49.8693182,57.884 41.5704545,55.564 31.8630682,52.7413333 Z M55.5795455,38.2413333 C58.2443182,31.1266667 60.5284091,25.056 60.6045455,24.824 C60.7568182,24.476 60.3380682,24.3213333 59.2340909,24.3213333 C57.7494318,24.3213333 57.6732955,24.36 57.2926136,25.984 C56.5693182,28.8066667 56.4551136,29.1546667 56.0744318,29.6573333 C55.8460227,29.8893333 55.1227273,30.1213333 54.4755682,30.1213333 C53.4857955,30.16 53.4096591,30.1986667 53.9806818,30.5466667 C54.8943182,31.088 55.7698864,32.944 55.7698864,34.3746667 C55.7698864,37.816 51.9630682,40.0586667 48.9176136,38.4346667 C47.5471591,37.7386667 46.6335227,36.0373333 46.6335227,34.2973333 C46.6335227,32.9053333 47.8517045,30.5466667 48.6130682,30.4693333 C48.8795455,30.4306667 48.4227273,30.276 47.6232955,30.16 C46.1386364,29.928 46.1386364,29.928 45.3772727,27.144 C44.6539773,24.3213333 44.6539773,24.3213333 43.3215909,24.3213333 C42.4079545,24.3213333 42.0272727,24.476 42.1414773,24.8626667 C43.0551136,28.884 50.3261364,52.316 50.4784091,51.852 C50.6306818,51.504 52.9147727,45.356 55.5795455,38.2413333 Z M16.33125,38.6666667 C17.0926136,36.9266667 17.7017045,35.38 17.7017045,35.3026667 C17.7017045,35.1866667 17.3590909,35.3026667 16.9784091,35.5346667 C16.0267045,36.0373333 13.6664773,36.0373333 12.7147727,35.5346667 C10.8875,34.5293333 10.2784091,30.972 11.6488636,29.1933333 C12.4102273,28.2266667 12.4102273,28.188 11.6869318,28.188 C10.6210227,28.188 10.2403409,27.5306667 9.47897727,24.592 L8.86988636,22.0013333 L7.38522727,22.0013333 L5.90056818,22.0013333 L6.39545455,23.2773333 C7.5375,25.984 14.0090909,40.7933333 14.3517045,41.4506667 C14.5420455,41.8373333 14.7704545,42.108 14.8465909,42.0306667 C14.9227273,41.9533333 15.6079545,40.4453333 16.33125,38.6666667 Z M45.3011364,20.764 C46.0244318,20.2613333 46.6715909,19.5266667 46.7857955,19.1013333 C47.2426136,17.052 47.8517045,12.296 47.6613636,12.1026667 C47.31875,11.716 44.9585227,13.1466667 43.2835227,14.8093333 C41.6085227,16.3946667 40.3142045,18.5213333 39.7431818,20.532 L39.4386364,21.6146667 L41.7227273,21.6146667 C43.4357955,21.6146667 44.3113636,21.3826667 45.3011364,20.764 Z M53.3335227,20.3773333 C53.2193182,19.6813333 52.9147727,17.5933333 52.6863636,15.7373333 C52.2676136,12.6826667 52.1534091,12.3346667 51.4301136,12.3346667 C50.66875,12.3346667 50.5545455,12.76 49.83125,16.9746667 L49.0698864,21.6146667 L51.3159091,21.6146667 L53.5619318,21.6146667 L53.3335227,20.3773333 Z M63.9164773,20.764 C62.6602273,16.588 59.2721591,12.9533333 55.5795455,11.7933333 C54.7801136,11.5613333 54.7801136,11.5613333 55.3892045,15.5826667 C56.1886364,21.112 56.6454545,21.6146667 60.9852273,21.6146667 C64.1448864,21.6146667 64.1829545,21.6146667 63.9164773,20.764 Z M10.3926136,18.9853333 C10.6590909,18.792 11.1539773,16.8586667 11.4965909,14.616 C11.8392045,12.412 12.2579545,10.3626667 12.4863636,10.1306667 C12.7147727,9.82133333 13.7806818,9.628 15.2653409,9.628 C18.1965909,9.628 18.1965909,9.628 18.84375,14.848 C19.1102273,16.9746667 19.5289773,18.8306667 19.7573864,18.9853333 C19.9857955,19.14 21.775,19.2946667 23.7164773,19.2946667 C27.21875,19.2946667 27.2568182,19.2946667 27.0284091,18.444 C26.38125,16.1626667 25.0869318,14.1133333 23.1835227,12.3733333 C20.6710227,10.0146667 18.1204545,9.048 14.5801136,9.08666667 C10.05,9.164 5.74829545,12.064 3.76875,16.3173333 C3.27386364,17.4386667 2.85511364,18.56 2.85511364,18.8306667 C2.85511364,19.372 9.55511364,19.488 10.3926136,18.9853333 Z M39.4005682,2.784 C39.4005682,2.74533333 36.5454545,2.668 33.0431818,2.668 L26.6857955,2.668 L30.0357955,5.18133333 L33.3857955,7.69466667 L36.3931818,5.29733333 C38.0301136,3.98266667 39.4005682,2.86133333 39.4005682,2.784 Z" id="Shape"></path>
                    </g>
                </g>
            </g>
        </g>
    </g>
</svg>