<?xml version="1.0" encoding="UTF-8"?>
<svg width="91px" height="91px" viewBox="0 0 91 91" version="1.1" xmlns="http://www.w3.org/2000/svg" xmlns:xlink="http://www.w3.org/1999/xlink">
    <title>Phone Icon</title>
    <g id="Design" stroke="none" stroke-width="1" fill="none" fill-rule="evenodd">
        <g id="Icons" transform="translate(-555.000000, -108.000000)" fill="#EEEEEE" fill-rule="nonzero">
            <g id="Group" transform="translate(555.000000, 108.000000)">
                <g id="icons8-phone-50" transform="translate(45.500000, 45.500000) scale(-1, 1) translate(-45.500000, -45.500000) ">
                    <g id="Group" transform="translate(45.500000, 45.500000) scale(-1, 1) rotate(-180.000000) translate(-45.500000, -45.500000) ">
                        <path d="M6.89036681,85.6624654 C-6.46863901,74.3511768 0.313625485,56.0474552 28.0592529,28.0777234 C56.0104036,0.31365141 74.3019654,-6.47312175 85.6057395,6.89476478 C93.8266662,16.560775 92.5935272,21.7022699 81.0842299,29.1060224 C70.8080715,35.6871358 62.5871449,37.1267543 58.6822047,33.2192182 C56.0104036,30.5456409 46.3508148,37.7437337 36.6912259,49.0550223 C31.7586699,55.2248161 31.5531468,56.0474552 34.2249479,61.3946098 C37.5133186,67.5644036 37.1022723,69.0040222 27.6482066,83.4002077 C21.4825116,92.6548983 15.727863,93.2718777 6.89036681,85.6624654 Z M23.480597,77.1701493 C29.041791,68.9313433 29.041791,68.7253731 25.5402985,61.3104478 L22.038806,53.8955224 L37.280597,38.6537313 L52.5223881,23.4119403 L59.9373134,26.9134328 C67.3522388,30.4149254 67.558209,30.4149254 75.7970149,24.8537313 C80.3283582,21.9701493 84.0358209,18.880597 84.0358209,18.0567164 C84.0358209,14.761194 74.7671642,7.14029851 70.8537313,7.14029851 C54.1701493,7.14029851 5.76716418,55.3373134 5.76716418,71.8149254 C5.76716418,75.9343284 13.1820896,85.4089552 16.4776119,85.4089552 C17.3014925,85.4089552 20.5970149,81.7014925 23.480597,77.1701493 Z" id="Shape"></path>
                    </g>
                </g>
            </g>
        </g>
    </g>
</svg>