<?xml version="1.0" encoding="UTF-8"?>
<svg width="94px" height="93px" viewBox="0 0 94 93" version="1.1" xmlns="http://www.w3.org/2000/svg" xmlns:xlink="http://www.w3.org/1999/xlink">
    <title>Poverty Icon</title>
    <g id="Design" stroke="none" stroke-width="1" fill="none" fill-rule="evenodd">
        <g id="Icons" transform="translate(-96.000000, -106.000000)">
            <g id="Poverty-Icon" transform="translate(96.000000, 106.000000)">
                <rect id="Rectangle" fill="#C7AC1B" x="3" y="2" width="91" height="91" rx="28"></rect>
                <rect id="Rectangle" fill="#FFD700" x="0" y="0" width="91" height="91" rx="28"></rect>
                <g id="inr" transform="translate(24.143524, 18.000000)" fill="#C7AC1B" fill-rule="nonzero">
                    <g id="Group" transform="translate(22.856476, 30.000000) scale(-1, 1) rotate(-180.000000) translate(-22.856476, -30.000000) translate(0.856476, 0.000000)">
                        <path d="M5.67005843,57.5886734 L5.67005843,55.1773468 L15.6266001,55.1773468 L25.5816976,55.1773468 L25.652465,55.0564118 C25.6914593,54.9885702 25.7290094,54.9207286 25.739119,54.9045056 C25.7477844,54.8882826 25.7680037,54.8514121 25.7838902,54.8233906 C25.8185518,54.7614483 26.1767216,54.1154782 26.2171601,54.0417373 C26.2330467,54.0137158 26.2763737,53.931126 26.315368,53.8573851 C26.352918,53.7851191 26.3890238,53.7187523 26.3948008,53.7099034 C26.4005777,53.7025293 26.4424604,53.6228892 26.4886759,53.5329253 C26.5348914,53.4444363 26.5897722,53.3382494 26.6114357,53.2969545 C26.8020744,52.9400487 27.2772271,51.9696188 27.4779754,51.5271735 C27.4996389,51.4785045 27.5516313,51.3664184 27.5920698,51.2779294 C27.6325084,51.1909151 27.6657257,51.1156994 27.6657257,51.1127498 C27.6657257,51.1098002 27.6816123,51.0729297 27.7003873,51.03016 C27.9372415,50.4992257 28.2838574,49.632033 28.4513884,49.155667 C28.6723561,48.5318192 28.6752445,48.5214955 28.7922274,48.1424674 C28.8326659,48.008259 28.8716602,47.8828995 28.8788814,47.862252 C28.8947679,47.8180075 29.0305258,47.3342674 29.0507451,47.2502028 C29.0579663,47.2177568 29.0882951,47.0982966 29.1157356,46.9847356 C29.1446202,46.8711747 29.167728,46.7738367 29.167728,46.7679375 C29.167728,46.7605634 23.8803913,46.7561389 17.4188932,46.7561389 L5.67005843,46.7561389 L5.67005843,44.3448123 L5.67005843,41.9334857 L17.5633165,41.9334857 C25.5340379,41.9334857 29.4565745,41.9290613 29.4565745,41.9187376 C29.4565745,41.8803923 29.4089149,41.583954 29.3756975,41.4172996 C29.1041817,40.0427697 28.5900348,38.9381314 27.7466028,37.9146081 C27.2425655,37.3040336 26.6822031,36.7834231 25.9109827,36.2111939 C25.7261209,36.0740358 25.3116261,35.7997198 25.0516642,35.6433891 C24.9606775,35.5888209 24.8610254,35.5283534 24.8321407,35.5091807 C24.8018119,35.4900081 24.7758157,35.4737851 24.771483,35.4737851 C24.7685945,35.4737851 24.7238233,35.450188 24.6732751,35.4206917 C24.2992188,35.2038935 23.7865161,34.9458005 23.2969212,34.7260527 C23.1626075,34.66706 23.0384035,34.6110169 23.0225169,34.6036428 C22.9098667,34.5520242 22.5155912,34.3927439 22.2065253,34.2747585 C21.4800762,33.9989676 20.5788748,33.7099034 19.8018775,33.5049038 C19.3628307,33.389868 19.3426114,33.3839687 19.2386267,33.3588968 C19.1837458,33.3456235 19.0277687,33.308753 18.8948992,33.2763071 C18.7605856,33.2438611 18.6349373,33.2143647 18.6132738,33.2099403 C18.5916103,33.2069906 18.5121775,33.1892928 18.4370774,33.1730698 C18.3619773,33.155372 18.2507714,33.1317749 18.1915578,33.1214512 C18.1323443,33.1096527 18.0572441,33.0934297 18.025471,33.0845808 C17.944594,33.0654082 17.5387645,32.985768 17.3394604,32.9503724 C17.2484737,32.9341494 17.1213812,32.9120271 17.057835,32.9002286 C16.8931924,32.8707322 16.6029016,32.8191136 16.5595746,32.8117395 C16.4945841,32.8014158 16.1349701,32.7438979 16.0829777,32.7365239 C16.0555373,32.7320994 16.016543,32.7262001 15.9963238,32.7232505 C15.9761045,32.718826 15.9371102,32.7129268 15.9096698,32.7085023 C15.8822294,32.7055527 15.7912427,32.6922793 15.7074772,32.6804808 C15.6237117,32.6686823 15.5269481,32.6539341 15.4908423,32.6495096 C15.2756515,32.6214881 15.2048841,32.6126392 15.173111,32.6067399 C15.1528917,32.6023155 15.0980109,32.5949414 15.0503512,32.5905169 C15.0026915,32.5860925 14.9478107,32.5787184 14.9275914,32.5757687 C14.9073722,32.5728191 14.8524913,32.5669198 14.8048316,32.5610206 C14.6950699,32.5477472 14.6315237,32.5403731 14.559312,32.5315242 C14.5275389,32.5270998 14.478435,32.5212005 14.4509946,32.516776 C14.4235541,32.5138264 14.3585636,32.5064523 14.3065713,32.5020279 C14.1852557,32.4902293 14.1087114,32.4813804 14.0466093,32.4725315 C14.0191689,32.4695819 13.9469573,32.4622078 13.8877437,32.4563085 C13.8285302,32.4518841 13.7606512,32.44451 13.7360993,32.4415604 C13.7129915,32.4386107 13.6480011,32.4327115 13.591676,32.428287 C13.5367951,32.4238625 13.461695,32.4164885 13.4255892,32.4135388 C13.3894834,32.4105892 13.3187159,32.4032151 13.2667236,32.3987906 C13.2147312,32.3943662 13.1410753,32.3884669 13.1006368,32.3840425 C13.0616425,32.3810928 12.9793212,32.3737188 12.9201077,32.3692943 C12.8608941,32.3648698 12.7756844,32.3574958 12.7323574,32.3545461 C12.6890304,32.3515965 12.5980437,32.3442224 12.5301648,32.339798 C12.4622858,32.3338987 12.3785203,32.3279994 12.3424145,32.3250498 C12.3063087,32.3221001 12.2066566,32.3162009 12.1185584,32.3103016 C12.0319044,32.3058771 11.9206985,32.2985031 11.8730388,32.2955534 C11.8253791,32.2926038 11.7083962,32.2852297 11.6130769,32.2808053 C11.5177575,32.2778556 11.3776669,32.2704815 11.3025668,32.2660571 C11.2274667,32.2616326 11.0873761,32.2542585 10.9920567,32.2498341 C10.8967373,32.2454096 10.7667564,32.2395104 10.7032101,32.2365607 C9.62870085,32.1849421 7.40891486,32.1996903 6.4499442,32.2645823 C6.37484409,32.2690067 6.24197466,32.2778556 6.15387645,32.2822801 C6.06722248,32.2881793 5.97190311,32.2926038 5.94446268,32.2955534 C5.66861419,32.3147261 5.54441016,32.3250498 5.37687914,32.339798 C5.20068273,32.3545461 5.12413838,32.3619202 5.02015361,32.3692943 C4.96094006,32.3737188 4.88295149,32.3810928 4.84684566,32.3840425 C4.81073984,32.3869921 4.72408587,32.3943662 4.65187422,32.3987906 C4.58110681,32.4046899 4.49878553,32.4105892 4.47134511,32.4135388 C4.44390468,32.4164885 4.36302764,32.4223877 4.29081599,32.428287 C4.22004858,32.4327115 4.1377273,32.4400855 4.11028688,32.4430352 C4.08284645,32.4459848 4.00485787,32.4518841 3.93697893,32.4577833 C3.86909998,32.4622078 3.78533447,32.4695819 3.74922865,32.4725315 C3.71312283,32.4754812 3.62935732,32.4828552 3.56147837,32.4872797 C3.49359942,32.4917042 3.41561084,32.4990782 3.38817042,32.5020279 C3.36072999,32.5049775 3.27552025,32.5123516 3.20042014,32.516776 C3.12532003,32.5226753 3.04011029,32.5285746 3.01266986,32.5315242 C2.98522944,32.5344739 2.90724086,32.5403731 2.83936191,32.5462724 C2.77148296,32.5506969 2.68771746,32.5580709 2.65161163,32.5610206 C2.61550581,32.5639702 2.53751723,32.5713443 2.47830368,32.5757687 C2.41909013,32.5801932 2.34110156,32.5860925 2.30499573,32.5905169 C2.26888991,32.5934666 2.18223594,32.5993658 2.11002429,32.6037903 C2.03925688,32.6096896 1.9482702,32.6155888 1.90783168,32.6200133 C1.81395654,32.6288622 1.68975251,32.6391859 1.55399462,32.6495096 C1.49478107,32.6539341 1.41679249,32.6613082 1.38068667,32.6642578 C1.34458084,32.6672074 1.2637038,32.6731067 1.20015755,32.679006 C1.1366113,32.6834304 1.05573426,32.6893297 1.01962844,32.6937541 C0.983522615,32.6967038 0.899757106,32.7040779 0.831878159,32.7085023 C0.716339526,32.7158764 0.661458675,32.7203009 0.482373794,32.7379987 C0.407273682,32.7438979 0.327840872,32.751272 0.10398477,32.7689698 C-0.00577693166,32.7763439 -0.00866539749,32.7763439 0.0101096304,32.7483224 C0.0216634937,32.7335742 0.241186897,32.4799056 0.499704589,32.1849421 C0.758222281,31.8899786 1.13805554,31.4563823 1.34458084,31.2189367 C1.55110615,30.9829659 2.34399002,30.0774279 3.106545,29.2058108 C3.86909998,28.3341936 4.63598766,27.4581521 4.81073984,27.2590517 C4.98549202,27.0599513 5.3133329,26.6853477 5.54007746,26.4257798 C5.76682203,26.1676867 6.0946629,25.7930831 6.26941509,25.5925079 C6.44416727,25.3934076 6.77200814,25.0188039 6.99875271,24.759236 C7.22549728,24.501143 7.57644587,24.0999926 7.77863848,23.8684463 C7.98227532,23.6368999 8.4242106,23.1310375 8.76071686,22.7461102 C9.09722313,22.3611828 9.48138909,21.923162 9.61281428,21.7727306 C9.74423948,21.6222992 10.1832863,21.1223361 10.5876715,20.6592434 C11.7546117,19.3245336 12.512834,18.4588157 12.8334537,18.093061 C12.996652,17.907234 13.461695,17.3762997 13.8660802,16.913207 C14.2704654,16.4515891 14.7903893,15.8572377 15.0214666,15.5932453 C15.2525438,15.329253 15.8042408,14.6995059 16.2476203,14.1921687 C16.6909998,13.6848315 17.3452373,12.9385739 17.7005186,12.532999 C18.0543557,12.1274242 18.6233834,11.4770297 18.9642224,11.0876779 C19.3050614,10.6983261 19.7729928,10.1644422 20.0040701,9.90044982 C20.6568634,9.15566699 21.2215585,8.50969693 21.8887941,7.74721628 C22.2267446,7.36228892 22.6903433,6.83135462 22.9214206,6.56736229 C23.1524979,6.30336996 23.8081796,5.55416267 24.3800958,4.90081852 C24.9520121,4.24747438 25.6134708,3.490893 25.8517692,3.21952658 C26.0900676,2.94816017 26.8208495,2.11193865 27.4765312,1.36273136 L28.6694676,0 L29.5360074,0.0103237224 C30.0126042,0.0162229924 30.6206263,0.0265467148 30.8863651,0.0339208023 C31.152104,0.0412948898 31.555045,0.0471941597 31.7817895,0.0471941597 C32.0085341,0.0471941597 32.3464846,0.0516186122 32.5327907,0.0545682472 C32.7190967,0.0589926997 33.1263704,0.0663667871 33.4354362,0.0707912396 C33.7459463,0.0752156921 34.0925622,0.081114962 34.2081008,0.0855394145 C34.3236395,0.089963867 34.6023764,0.092913502 34.8262325,0.092913502 C35.0847502,0.092913502 35.2335062,0.0988127719 35.2306177,0.107661677 C35.2291735,0.115035764 35.0573098,0.312661308 34.8493402,0.545682472 C34.6428149,0.778703635 34.0319044,1.46891822 33.4917613,2.07654303 C32.4807983,3.21657695 31.8785531,3.89499299 30.0775947,5.92581668 C28.9222084,7.22955534 28.0701109,8.18818671 27.6310641,8.68372539 C27.4721985,8.86217831 26.8815073,9.52879581 26.3168122,10.165917 C25.7521171,10.8015633 25.0978796,11.5389721 24.8639139,11.8029644 C24.6299481,12.0669567 23.9757106,12.8043655 23.4110156,13.4400118 C22.8477647,14.077133 22.1906387,14.8174913 21.9523403,15.0844333 C21.534957,15.5563749 20.5904287,16.6197183 18.4211908,19.0664405 C17.8521631,19.7079861 17.1935929,20.4512942 16.9552944,20.7182361 C16.7184402,20.9866529 16.3082781,21.4482708 16.0468719,21.7432343 C14.2358038,23.7858565 12.6919189,25.5246663 12.1618854,26.1219674 C11.0787107,27.3431163 11.0166087,27.4139075 11.0209414,27.418332 C11.0223856,27.4198068 11.1047069,27.4242313 11.2029147,27.4286557 C11.477319,27.4404542 11.6607366,27.4493031 11.7719425,27.4581521 C11.8282676,27.4625765 11.9539158,27.4684758 12.0535679,27.4729002 C12.15322,27.4773247 12.2702028,27.483224 12.3135298,27.4876484 C12.3568568,27.490598 12.4579531,27.4964973 12.5373859,27.5023966 C12.6168187,27.506821 12.7179151,27.5141951 12.761242,27.5171448 C12.804569,27.5200944 12.8998884,27.5274685 12.9706558,27.5318929 C13.0428675,27.5363174 13.1295214,27.5436915 13.1656273,27.5466411 C13.2017331,27.5495907 13.2826101,27.5569648 13.3461564,27.5613893 C13.4746931,27.5702382 13.6090068,27.5820367 13.6855511,27.5908856 C13.7129915,27.5938353 13.7982013,27.5997345 13.8733014,27.6056338 C13.9484015,27.6100583 14.0263901,27.6174323 14.0466093,27.620382 C14.0668286,27.6248064 14.1217094,27.6307057 14.1693691,27.6351302 C14.2170288,27.6395546 14.2791308,27.6454539 14.3065713,27.6484035 C14.3340117,27.652828 14.4062233,27.6587272 14.4654369,27.6646265 C14.5246504,27.6705258 14.5896409,27.676425 14.6098602,27.6793747 C14.6300794,27.6823243 14.6950699,27.6896984 14.7542835,27.6941229 C14.813497,27.6985473 14.8727106,27.7059214 14.8842644,27.708871 C14.8958183,27.7118207 14.9478107,27.7191947 14.9998031,27.7236192 C15.0517954,27.7280437 15.1138975,27.7354177 15.1370052,27.7383674 C15.1615571,27.7427918 15.2092168,27.7486911 15.2453227,27.7531156 C15.3319766,27.7619645 15.5370577,27.7885112 15.9385545,27.8401298 C15.9659949,27.8445542 16.02232,27.8504535 16.0613143,27.8563528 C16.1378586,27.8666765 16.4830303,27.9168203 16.6751132,27.9448418 C16.7545461,27.9566404 16.8065384,27.9654893 16.8599751,27.9728634 C16.8816385,27.9772878 16.927854,27.9846619 16.9639598,27.9890864 C17.0000656,27.9935108 17.0491696,28.0008849 17.0722773,28.0053093 C17.1416005,28.0171079 17.6311954,28.0996977 17.684632,28.1085466 C17.7106282,28.112971 17.7467341,28.1203451 17.7640649,28.1232947 C17.7799514,28.1262444 17.9055997,28.1498415 18.0399133,28.1734385 C18.4486313,28.2486542 18.8010241,28.3179707 19.0508764,28.3725389 C19.0667629,28.3769634 19.14764,28.3931863 19.2314055,28.4108842 C19.315171,28.4271071 19.4494847,28.4580783 19.5318059,28.4772509 C19.612683,28.4964236 19.6950043,28.5155962 19.7123351,28.5185458 C19.8870872,28.5509918 20.7507385,28.7707396 21.2027834,28.8960991 C21.3226548,28.9285451 21.429528,28.9580414 21.4410819,28.9609911 C21.4699665,28.96984 21.8310247,29.0760268 22.018775,29.1320699 C22.5502527,29.292825 23.3286943,29.5582922 23.8385085,29.7544429 C24.0334799,29.8281838 24.6573886,30.0789027 24.7122694,30.1054495 C24.8018119,30.1467443 24.9086851,30.1939385 24.914462,30.1939385 C24.9216832,30.1939385 25.39828,30.4092619 25.5427033,30.4771035 C25.782446,30.5906644 25.8546577,30.62606 26.0770695,30.7381462 C26.3298103,30.8649805 26.6417646,31.03016 26.8410687,31.1422461 C26.9075034,31.1805914 26.9638285,31.2115626 26.9652728,31.2115626 C26.9739382,31.2115626 27.4953062,31.5197994 27.5862929,31.5787921 C27.6339526,31.6097633 27.7798201,31.7026768 27.9112453,31.7867414 C29.4146918,32.751272 30.7361649,33.9606224 31.7254645,35.2746848 C32.0764131,35.7407271 32.3999212,36.2392154 32.6887678,36.759826 C32.7913083,36.945653 33.0758222,37.5208318 33.1307031,37.6520906 C33.1509223,37.7037092 33.1841397,37.7789249 33.2029147,37.8216946 C33.3949977,38.2523413 33.6824001,39.1151095 33.8181579,39.6622668 C33.8354887,39.7315832 33.8585965,39.8244967 33.8687061,39.8687412 C33.9134773,40.0412949 34.0405698,40.6813657 34.0579006,40.8126244 C34.0622333,40.8494949 34.0694545,40.8922646 34.0723429,40.9084876 C34.0752314,40.9247106 34.091118,41.0338471 34.1084488,41.1518325 C34.1243353,41.2698179 34.1402219,41.381904 34.1431104,41.4025514 C34.1459988,41.4231989 34.15322,41.4762923 34.1575527,41.5205368 C34.1618854,41.5647814 34.1691065,41.6178748 34.171995,41.6385222 C34.1748835,41.6591697 34.1821046,41.7225868 34.1864373,41.7786299 C34.19077,41.8361478 34.1979912,41.8936657 34.2023239,41.9084138 C34.2095451,41.9320109 34.4550647,41.9334857 39.1054946,41.9334857 L44,41.9334857 L44,44.3448123 L44,46.7561389 L38.989956,46.7561389 L33.9813563,46.7561389 L33.942362,46.9596637 C33.9206985,47.0702751 33.88026,47.2679006 33.8528195,47.3976845 C33.8239349,47.5274685 33.7979387,47.6469287 33.7950502,47.6631517 C33.7806079,47.7383674 33.6679577,48.1985104 33.6217423,48.3710641 C33.5177575,48.751567 33.4397689,49.0362068 33.4123285,49.123221 C33.3978862,49.17189 33.3574476,49.3075732 33.3213418,49.4255586 C32.8476334,50.997714 32.1399593,52.7556965 31.2474234,54.5918443 L30.9614652,55.1773468 L37.4807326,55.1773468 L44,55.1773468 L44,57.5886734 L43.9985558,60 L24.8350292,60 L5.67005843,60 L5.67005843,57.5886734 Z" id="Path"></path>
                    </g>
                </g>
                <g id="inr" transform="translate(21.143524, 16.000000)" fill="#5E5735" fill-rule="nonzero">
                    <g id="Group" transform="translate(22.856476, 30.000000) scale(-1, 1) rotate(-180.000000) translate(-22.856476, -30.000000) translate(0.856476, 0.000000)">
                        <path d="M5.67005843,57.5886734 L5.67005843,55.1773468 L15.6266001,55.1773468 L25.5816976,55.1773468 L25.652465,55.0564118 C25.6914593,54.9885702 25.7290094,54.9207286 25.739119,54.9045056 C25.7477844,54.8882826 25.7680037,54.8514121 25.7838902,54.8233906 C25.8185518,54.7614483 26.1767216,54.1154782 26.2171601,54.0417373 C26.2330467,54.0137158 26.2763737,53.931126 26.315368,53.8573851 C26.352918,53.7851191 26.3890238,53.7187523 26.3948008,53.7099034 C26.4005777,53.7025293 26.4424604,53.6228892 26.4886759,53.5329253 C26.5348914,53.4444363 26.5897722,53.3382494 26.6114357,53.2969545 C26.8020744,52.9400487 27.2772271,51.9696188 27.4779754,51.5271735 C27.4996389,51.4785045 27.5516313,51.3664184 27.5920698,51.2779294 C27.6325084,51.1909151 27.6657257,51.1156994 27.6657257,51.1127498 C27.6657257,51.1098002 27.6816123,51.0729297 27.7003873,51.03016 C27.9372415,50.4992257 28.2838574,49.632033 28.4513884,49.155667 C28.6723561,48.5318192 28.6752445,48.5214955 28.7922274,48.1424674 C28.8326659,48.008259 28.8716602,47.8828995 28.8788814,47.862252 C28.8947679,47.8180075 29.0305258,47.3342674 29.0507451,47.2502028 C29.0579663,47.2177568 29.0882951,47.0982966 29.1157356,46.9847356 C29.1446202,46.8711747 29.167728,46.7738367 29.167728,46.7679375 C29.167728,46.7605634 23.8803913,46.7561389 17.4188932,46.7561389 L5.67005843,46.7561389 L5.67005843,44.3448123 L5.67005843,41.9334857 L17.5633165,41.9334857 C25.5340379,41.9334857 29.4565745,41.9290613 29.4565745,41.9187376 C29.4565745,41.8803923 29.4089149,41.583954 29.3756975,41.4172996 C29.1041817,40.0427697 28.5900348,38.9381314 27.7466028,37.9146081 C27.2425655,37.3040336 26.6822031,36.7834231 25.9109827,36.2111939 C25.7261209,36.0740358 25.3116261,35.7997198 25.0516642,35.6433891 C24.9606775,35.5888209 24.8610254,35.5283534 24.8321407,35.5091807 C24.8018119,35.4900081 24.7758157,35.4737851 24.771483,35.4737851 C24.7685945,35.4737851 24.7238233,35.450188 24.6732751,35.4206917 C24.2992188,35.2038935 23.7865161,34.9458005 23.2969212,34.7260527 C23.1626075,34.66706 23.0384035,34.6110169 23.0225169,34.6036428 C22.9098667,34.5520242 22.5155912,34.3927439 22.2065253,34.2747585 C21.4800762,33.9989676 20.5788748,33.7099034 19.8018775,33.5049038 C19.3628307,33.389868 19.3426114,33.3839687 19.2386267,33.3588968 C19.1837458,33.3456235 19.0277687,33.308753 18.8948992,33.2763071 C18.7605856,33.2438611 18.6349373,33.2143647 18.6132738,33.2099403 C18.5916103,33.2069906 18.5121775,33.1892928 18.4370774,33.1730698 C18.3619773,33.155372 18.2507714,33.1317749 18.1915578,33.1214512 C18.1323443,33.1096527 18.0572441,33.0934297 18.025471,33.0845808 C17.944594,33.0654082 17.5387645,32.985768 17.3394604,32.9503724 C17.2484737,32.9341494 17.1213812,32.9120271 17.057835,32.9002286 C16.8931924,32.8707322 16.6029016,32.8191136 16.5595746,32.8117395 C16.4945841,32.8014158 16.1349701,32.7438979 16.0829777,32.7365239 C16.0555373,32.7320994 16.016543,32.7262001 15.9963238,32.7232505 C15.9761045,32.718826 15.9371102,32.7129268 15.9096698,32.7085023 C15.8822294,32.7055527 15.7912427,32.6922793 15.7074772,32.6804808 C15.6237117,32.6686823 15.5269481,32.6539341 15.4908423,32.6495096 C15.2756515,32.6214881 15.2048841,32.6126392 15.173111,32.6067399 C15.1528917,32.6023155 15.0980109,32.5949414 15.0503512,32.5905169 C15.0026915,32.5860925 14.9478107,32.5787184 14.9275914,32.5757687 C14.9073722,32.5728191 14.8524913,32.5669198 14.8048316,32.5610206 C14.6950699,32.5477472 14.6315237,32.5403731 14.559312,32.5315242 C14.5275389,32.5270998 14.478435,32.5212005 14.4509946,32.516776 C14.4235541,32.5138264 14.3585636,32.5064523 14.3065713,32.5020279 C14.1852557,32.4902293 14.1087114,32.4813804 14.0466093,32.4725315 C14.0191689,32.4695819 13.9469573,32.4622078 13.8877437,32.4563085 C13.8285302,32.4518841 13.7606512,32.44451 13.7360993,32.4415604 C13.7129915,32.4386107 13.6480011,32.4327115 13.591676,32.428287 C13.5367951,32.4238625 13.461695,32.4164885 13.4255892,32.4135388 C13.3894834,32.4105892 13.3187159,32.4032151 13.2667236,32.3987906 C13.2147312,32.3943662 13.1410753,32.3884669 13.1006368,32.3840425 C13.0616425,32.3810928 12.9793212,32.3737188 12.9201077,32.3692943 C12.8608941,32.3648698 12.7756844,32.3574958 12.7323574,32.3545461 C12.6890304,32.3515965 12.5980437,32.3442224 12.5301648,32.339798 C12.4622858,32.3338987 12.3785203,32.3279994 12.3424145,32.3250498 C12.3063087,32.3221001 12.2066566,32.3162009 12.1185584,32.3103016 C12.0319044,32.3058771 11.9206985,32.2985031 11.8730388,32.2955534 C11.8253791,32.2926038 11.7083962,32.2852297 11.6130769,32.2808053 C11.5177575,32.2778556 11.3776669,32.2704815 11.3025668,32.2660571 C11.2274667,32.2616326 11.0873761,32.2542585 10.9920567,32.2498341 C10.8967373,32.2454096 10.7667564,32.2395104 10.7032101,32.2365607 C9.62870085,32.1849421 7.40891486,32.1996903 6.4499442,32.2645823 C6.37484409,32.2690067 6.24197466,32.2778556 6.15387645,32.2822801 C6.06722248,32.2881793 5.97190311,32.2926038 5.94446268,32.2955534 C5.66861419,32.3147261 5.54441016,32.3250498 5.37687914,32.339798 C5.20068273,32.3545461 5.12413838,32.3619202 5.02015361,32.3692943 C4.96094006,32.3737188 4.88295149,32.3810928 4.84684566,32.3840425 C4.81073984,32.3869921 4.72408587,32.3943662 4.65187422,32.3987906 C4.58110681,32.4046899 4.49878553,32.4105892 4.47134511,32.4135388 C4.44390468,32.4164885 4.36302764,32.4223877 4.29081599,32.428287 C4.22004858,32.4327115 4.1377273,32.4400855 4.11028688,32.4430352 C4.08284645,32.4459848 4.00485787,32.4518841 3.93697893,32.4577833 C3.86909998,32.4622078 3.78533447,32.4695819 3.74922865,32.4725315 C3.71312283,32.4754812 3.62935732,32.4828552 3.56147837,32.4872797 C3.49359942,32.4917042 3.41561084,32.4990782 3.38817042,32.5020279 C3.36072999,32.5049775 3.27552025,32.5123516 3.20042014,32.516776 C3.12532003,32.5226753 3.04011029,32.5285746 3.01266986,32.5315242 C2.98522944,32.5344739 2.90724086,32.5403731 2.83936191,32.5462724 C2.77148296,32.5506969 2.68771746,32.5580709 2.65161163,32.5610206 C2.61550581,32.5639702 2.53751723,32.5713443 2.47830368,32.5757687 C2.41909013,32.5801932 2.34110156,32.5860925 2.30499573,32.5905169 C2.26888991,32.5934666 2.18223594,32.5993658 2.11002429,32.6037903 C2.03925688,32.6096896 1.9482702,32.6155888 1.90783168,32.6200133 C1.81395654,32.6288622 1.68975251,32.6391859 1.55399462,32.6495096 C1.49478107,32.6539341 1.41679249,32.6613082 1.38068667,32.6642578 C1.34458084,32.6672074 1.2637038,32.6731067 1.20015755,32.679006 C1.1366113,32.6834304 1.05573426,32.6893297 1.01962844,32.6937541 C0.983522615,32.6967038 0.899757106,32.7040779 0.831878159,32.7085023 C0.716339526,32.7158764 0.661458675,32.7203009 0.482373794,32.7379987 C0.407273682,32.7438979 0.327840872,32.751272 0.10398477,32.7689698 C-0.00577693166,32.7763439 -0.00866539749,32.7763439 0.0101096304,32.7483224 C0.0216634937,32.7335742 0.241186897,32.4799056 0.499704589,32.1849421 C0.758222281,31.8899786 1.13805554,31.4563823 1.34458084,31.2189367 C1.55110615,30.9829659 2.34399002,30.0774279 3.106545,29.2058108 C3.86909998,28.3341936 4.63598766,27.4581521 4.81073984,27.2590517 C4.98549202,27.0599513 5.3133329,26.6853477 5.54007746,26.4257798 C5.76682203,26.1676867 6.0946629,25.7930831 6.26941509,25.5925079 C6.44416727,25.3934076 6.77200814,25.0188039 6.99875271,24.759236 C7.22549728,24.501143 7.57644587,24.0999926 7.77863848,23.8684463 C7.98227532,23.6368999 8.4242106,23.1310375 8.76071686,22.7461102 C9.09722313,22.3611828 9.48138909,21.923162 9.61281428,21.7727306 C9.74423948,21.6222992 10.1832863,21.1223361 10.5876715,20.6592434 C11.7546117,19.3245336 12.512834,18.4588157 12.8334537,18.093061 C12.996652,17.907234 13.461695,17.3762997 13.8660802,16.913207 C14.2704654,16.4515891 14.7903893,15.8572377 15.0214666,15.5932453 C15.2525438,15.329253 15.8042408,14.6995059 16.2476203,14.1921687 C16.6909998,13.6848315 17.3452373,12.9385739 17.7005186,12.532999 C18.0543557,12.1274242 18.6233834,11.4770297 18.9642224,11.0876779 C19.3050614,10.6983261 19.7729928,10.1644422 20.0040701,9.90044982 C20.6568634,9.15566699 21.2215585,8.50969693 21.8887941,7.74721628 C22.2267446,7.36228892 22.6903433,6.83135462 22.9214206,6.56736229 C23.1524979,6.30336996 23.8081796,5.55416267 24.3800958,4.90081852 C24.9520121,4.24747438 25.6134708,3.490893 25.8517692,3.21952658 C26.0900676,2.94816017 26.8208495,2.11193865 27.4765312,1.36273136 L28.6694676,0 L29.5360074,0.0103237224 C30.0126042,0.0162229924 30.6206263,0.0265467148 30.8863651,0.0339208023 C31.152104,0.0412948898 31.555045,0.0471941597 31.7817895,0.0471941597 C32.0085341,0.0471941597 32.3464846,0.0516186122 32.5327907,0.0545682472 C32.7190967,0.0589926997 33.1263704,0.0663667871 33.4354362,0.0707912396 C33.7459463,0.0752156921 34.0925622,0.081114962 34.2081008,0.0855394145 C34.3236395,0.089963867 34.6023764,0.092913502 34.8262325,0.092913502 C35.0847502,0.092913502 35.2335062,0.0988127719 35.2306177,0.107661677 C35.2291735,0.115035764 35.0573098,0.312661308 34.8493402,0.545682472 C34.6428149,0.778703635 34.0319044,1.46891822 33.4917613,2.07654303 C32.4807983,3.21657695 31.8785531,3.89499299 30.0775947,5.92581668 C28.9222084,7.22955534 28.0701109,8.18818671 27.6310641,8.68372539 C27.4721985,8.86217831 26.8815073,9.52879581 26.3168122,10.165917 C25.7521171,10.8015633 25.0978796,11.5389721 24.8639139,11.8029644 C24.6299481,12.0669567 23.9757106,12.8043655 23.4110156,13.4400118 C22.8477647,14.077133 22.1906387,14.8174913 21.9523403,15.0844333 C21.534957,15.5563749 20.5904287,16.6197183 18.4211908,19.0664405 C17.8521631,19.7079861 17.1935929,20.4512942 16.9552944,20.7182361 C16.7184402,20.9866529 16.3082781,21.4482708 16.0468719,21.7432343 C14.2358038,23.7858565 12.6919189,25.5246663 12.1618854,26.1219674 C11.0787107,27.3431163 11.0166087,27.4139075 11.0209414,27.418332 C11.0223856,27.4198068 11.1047069,27.4242313 11.2029147,27.4286557 C11.477319,27.4404542 11.6607366,27.4493031 11.7719425,27.4581521 C11.8282676,27.4625765 11.9539158,27.4684758 12.0535679,27.4729002 C12.15322,27.4773247 12.2702028,27.483224 12.3135298,27.4876484 C12.3568568,27.490598 12.4579531,27.4964973 12.5373859,27.5023966 C12.6168187,27.506821 12.7179151,27.5141951 12.761242,27.5171448 C12.804569,27.5200944 12.8998884,27.5274685 12.9706558,27.5318929 C13.0428675,27.5363174 13.1295214,27.5436915 13.1656273,27.5466411 C13.2017331,27.5495907 13.2826101,27.5569648 13.3461564,27.5613893 C13.4746931,27.5702382 13.6090068,27.5820367 13.6855511,27.5908856 C13.7129915,27.5938353 13.7982013,27.5997345 13.8733014,27.6056338 C13.9484015,27.6100583 14.0263901,27.6174323 14.0466093,27.620382 C14.0668286,27.6248064 14.1217094,27.6307057 14.1693691,27.6351302 C14.2170288,27.6395546 14.2791308,27.6454539 14.3065713,27.6484035 C14.3340117,27.652828 14.4062233,27.6587272 14.4654369,27.6646265 C14.5246504,27.6705258 14.5896409,27.676425 14.6098602,27.6793747 C14.6300794,27.6823243 14.6950699,27.6896984 14.7542835,27.6941229 C14.813497,27.6985473 14.8727106,27.7059214 14.8842644,27.708871 C14.8958183,27.7118207 14.9478107,27.7191947 14.9998031,27.7236192 C15.0517954,27.7280437 15.1138975,27.7354177 15.1370052,27.7383674 C15.1615571,27.7427918 15.2092168,27.7486911 15.2453227,27.7531156 C15.3319766,27.7619645 15.5370577,27.7885112 15.9385545,27.8401298 C15.9659949,27.8445542 16.02232,27.8504535 16.0613143,27.8563528 C16.1378586,27.8666765 16.4830303,27.9168203 16.6751132,27.9448418 C16.7545461,27.9566404 16.8065384,27.9654893 16.8599751,27.9728634 C16.8816385,27.9772878 16.927854,27.9846619 16.9639598,27.9890864 C17.0000656,27.9935108 17.0491696,28.0008849 17.0722773,28.0053093 C17.1416005,28.0171079 17.6311954,28.0996977 17.684632,28.1085466 C17.7106282,28.112971 17.7467341,28.1203451 17.7640649,28.1232947 C17.7799514,28.1262444 17.9055997,28.1498415 18.0399133,28.1734385 C18.4486313,28.2486542 18.8010241,28.3179707 19.0508764,28.3725389 C19.0667629,28.3769634 19.14764,28.3931863 19.2314055,28.4108842 C19.315171,28.4271071 19.4494847,28.4580783 19.5318059,28.4772509 C19.612683,28.4964236 19.6950043,28.5155962 19.7123351,28.5185458 C19.8870872,28.5509918 20.7507385,28.7707396 21.2027834,28.8960991 C21.3226548,28.9285451 21.429528,28.9580414 21.4410819,28.9609911 C21.4699665,28.96984 21.8310247,29.0760268 22.018775,29.1320699 C22.5502527,29.292825 23.3286943,29.5582922 23.8385085,29.7544429 C24.0334799,29.8281838 24.6573886,30.0789027 24.7122694,30.1054495 C24.8018119,30.1467443 24.9086851,30.1939385 24.914462,30.1939385 C24.9216832,30.1939385 25.39828,30.4092619 25.5427033,30.4771035 C25.782446,30.5906644 25.8546577,30.62606 26.0770695,30.7381462 C26.3298103,30.8649805 26.6417646,31.03016 26.8410687,31.1422461 C26.9075034,31.1805914 26.9638285,31.2115626 26.9652728,31.2115626 C26.9739382,31.2115626 27.4953062,31.5197994 27.5862929,31.5787921 C27.6339526,31.6097633 27.7798201,31.7026768 27.9112453,31.7867414 C29.4146918,32.751272 30.7361649,33.9606224 31.7254645,35.2746848 C32.0764131,35.7407271 32.3999212,36.2392154 32.6887678,36.759826 C32.7913083,36.945653 33.0758222,37.5208318 33.1307031,37.6520906 C33.1509223,37.7037092 33.1841397,37.7789249 33.2029147,37.8216946 C33.3949977,38.2523413 33.6824001,39.1151095 33.8181579,39.6622668 C33.8354887,39.7315832 33.8585965,39.8244967 33.8687061,39.8687412 C33.9134773,40.0412949 34.0405698,40.6813657 34.0579006,40.8126244 C34.0622333,40.8494949 34.0694545,40.8922646 34.0723429,40.9084876 C34.0752314,40.9247106 34.091118,41.0338471 34.1084488,41.1518325 C34.1243353,41.2698179 34.1402219,41.381904 34.1431104,41.4025514 C34.1459988,41.4231989 34.15322,41.4762923 34.1575527,41.5205368 C34.1618854,41.5647814 34.1691065,41.6178748 34.171995,41.6385222 C34.1748835,41.6591697 34.1821046,41.7225868 34.1864373,41.7786299 C34.19077,41.8361478 34.1979912,41.8936657 34.2023239,41.9084138 C34.2095451,41.9320109 34.4550647,41.9334857 39.1054946,41.9334857 L44,41.9334857 L44,44.3448123 L44,46.7561389 L38.989956,46.7561389 L33.9813563,46.7561389 L33.942362,46.9596637 C33.9206985,47.0702751 33.88026,47.2679006 33.8528195,47.3976845 C33.8239349,47.5274685 33.7979387,47.6469287 33.7950502,47.6631517 C33.7806079,47.7383674 33.6679577,48.1985104 33.6217423,48.3710641 C33.5177575,48.751567 33.4397689,49.0362068 33.4123285,49.123221 C33.3978862,49.17189 33.3574476,49.3075732 33.3213418,49.4255586 C32.8476334,50.997714 32.1399593,52.7556965 31.2474234,54.5918443 L30.9614652,55.1773468 L37.4807326,55.1773468 L44,55.1773468 L44,57.5886734 L43.9985558,60 L24.8350292,60 L5.67005843,60 L5.67005843,57.5886734 Z" id="Path"></path>
                    </g>
                </g>
            </g>
        </g>
    </g>
</svg>