<?xml version="1.0" encoding="UTF-8"?>
<svg width="30px" height="30px" viewBox="0 0 30 30" version="1.1" xmlns="http://www.w3.org/2000/svg" xmlns:xlink="http://www.w3.org/1999/xlink">
    <title>volunteer</title>
    <g id="Design" stroke="none" stroke-width="1" fill="none" fill-rule="evenodd">
        <g id="Desktop-HD" transform="translate(-769.000000, -3531.000000)" fill-rule="nonzero">
            <g id="NGOs-Section" transform="translate(212.000000, 2835.000000)">
                <g id="volunteer" transform="translate(557.000000, 696.000000)">
                    <path d="M30,15 C30,23.2843781 23.2843781,30 15,30 C6.71562193,30 0,23.2843781 0,15 C0,6.71562193 6.71562193,0 15,0 C23.2843781,0 30,6.71562193 30,15 Z" id="Path" fill="#4A7AFF"></path>
                    <path d="M15.1247497,30 C22.5196365,30 28.6753426,24.7430024 30,17.7926153 L20.4707377,8.34463326 L20.2461882,9.33872369 L18.8771754,7.98135508 L18.4976128,10.0464978 L17.1969813,8.75715787 L16.7811489,10.7164781 L11.4836747,5.46406154 L11.2718311,6.29529526 L9.96542429,5 L9.94370856,7.15035045 L8.56845831,5.7865683 L8.52987829,8.46603143 L7.04997688,6.99871727 L6.6593254,15.7299922 L8.42037577,17.476293 L6,26.967337 C8.53750193,28.8705392 11.6978284,30 15.1247497,30 Z" id="Path" fill="#2864F0"></path>
                    <path d="M20.2250818,13.6656304 C19.8054526,13.6708621 19.4678299,14.027068 19.4678299,14.4647054 L19.4678299,16.8168928 C19.4678299,16.8175752 19.4671756,16.8184851 19.4663032,16.8184851 L19.2462377,16.8344075 C18.2303163,16.9081052 17.4133042,17.7203731 17.2658669,18.7446356 L16.7853872,18.7489574 C16.925627,17.5386307 17.8296619,16.5544014 18.9901854,16.3651528 C18.9910578,16.3651528 18.991494,16.3644704 18.991494,16.3635605 L18.991494,14.4367275 C18.991494,14.4176208 18.9921483,14.3985139 18.9930207,14.3794071 C19.0174482,13.8960497 19.4305344,13.3076048 19.8944384,13.3044203 C19.902072,13.3044203 19.8983643,10.0528471 19.8959651,9.03540829 C19.8950927,8.70240352 19.636205,8.43331563 19.3169029,8.43331563 L19.3153763,8.43331563 C18.995638,8.43331563 18.7363141,8.70376832 18.7363141,9.03722799 L18.7363141,13.5637273 L18.3432933,13.5637273 L18.3432933,8.60391236 C18.3432933,8.27045263 18.0841876,8 17.7642312,8 L17.7227917,8 C17.4028353,8 17.1437295,8.27045263 17.1437295,8.60391236 L17.1437295,13.9106073 L16.7507088,13.9106073 L16.7507088,9.36295397 C16.7507088,9.0294943 16.4913849,8.75926906 16.1716467,8.75926906 L16.1299891,8.75926906 C15.8102508,8.75926906 15.5509269,9.0294943 15.5509269,9.36295397 L15.5509269,14.3441504 L15.1579062,14.3441504 L15.1579062,10.7811813 C15.1579062,10.4477216 14.8988004,10.1774964 14.5790621,10.1774964 C14.2591058,10.1774964 14,10.4477216 14,10.7811813 L14,18.872242 L14.0089422,18.872242 C14.0737186,19.634923 14.5007634,20.2891046 15.1094874,20.6462203 C15.1099237,20.6464478 15.1103599,20.6471301 15.1103599,20.6478126 C15.1103599,20.6478126 15.110578,23.2083554 15.1112322,25.9874896 C15.27241,25.9956782 15.4344602,26 15.5976009,26 C17.1391494,26 18.5969466,25.6274168 19.893566,24.9645917 C19.8940022,22.6547123 19.8944384,20.7510804 19.8944384,20.7510804 C19.8944384,20.7503981 19.8948746,20.7499431 19.8953108,20.7497157 C20.5454744,20.4465084 21,19.7661688 21,18.9766472 L21,14.464478 C21,14.0197892 20.6516903,13.6606263 20.2250818,13.6656304 Z" id="Path" fill="#FFBEAA"></path>
                    <path d="M20.0266379,16.5806948 C20.0275723,16.5804615 20.0280394,16.5797615 20.0280394,16.5788282 L20.0280394,14.6025806 C20.0280394,14.5827481 20.0287402,14.5631489 20.0296746,14.5435498 C20.0558368,14.0479712 20.4980251,13.4441308 20.9951073,13.4410975 C21.003283,13.4410975 20.999312,10.1057421 20.9967425,9.061854 C20.9958081,8.72050211 20.7185353,8.44448072 20.3765576,8.44448072 L20.3749225,8.44448072 C20.0324777,8.44448072 19.7547377,8.72166877 19.7547377,9.06395389 L19.7547377,13.707086 L19.3338062,13.707086 L19.3338062,8.61947317 C19.3338062,8.27742136 19.0562997,8 18.7136214,8 L18.669239,8 C18.3265606,8 18.0490541,8.27742136 18.0490541,8.61947317 L18.0490541,14.0629039 L18,14.0629039 L18,18 C18.4129894,17.2582655 19.1513714,16.7171889 20.0266379,16.5806948 Z" id="Path" fill="#FAA68E"></path>
                    <path d="M20.2056785,14 C19.7755421,14.0051906 19.4294657,14.3551463 19.4294657,14.7851046 L19.4294657,17.0960189 C19.4294657,17.0969128 19.428795,17.0975832 19.4279007,17.0975832 L19.2023251,17.1132262 C18.1609658,17.1856308 17.3234965,17.983646 17.1723675,18.9899361 L17,18.9915005 L17,26 C18.0134138,25.8437937 18.9767494,25.536521 19.8658618,25.1009759 C19.866309,22.8314038 19.8667561,20.9613979 19.8667561,20.9613979 C19.8667561,20.9607275 19.8672032,20.9602806 19.8676503,20.960057 C20.5340935,20.6621701 21,19.9935447 21,19.2178766 L21,14.7851046 C21,14.3479952 20.6429689,13.9951344 20.2056785,14 Z" id="Path" fill="#FAA68E"></path>
                    <path d="M11.335949,10.0359708 C10.976246,10.0405586 10.6869564,10.3571131 10.6869564,10.7461541 L10.6869564,12.8370202 C10.6869564,12.8379378 10.6863202,12.8383966 10.6856839,12.838626 L10.4969246,12.8526186 C9.62608689,12.9182234 8.92598087,13.6401055 8.79957578,14.5507735 L8.38769877,14.554673 C8.50795329,13.4786168 9.28271467,12.6037333 10.2776245,12.4355923 C10.2782608,12.4355923 10.278685,12.4349042 10.278685,12.434216 L10.278685,10.7216097 C10.278685,10.7044057 10.2791092,10.687431 10.2799575,10.6704563 C10.3009544,10.2410431 10.654931,9.71781051 11.052598,9.71505786 C11.0589607,9.71505786 11.0559915,6.82477672 11.0538705,5.92030222 C11.0532343,5.62439245 10.831177,5.38514145 10.5575821,5.38514145 L10.5563095,5.38514145 C10.2820784,5.38514145 10.0600212,5.62553943 10.0600212,5.92190794 L10.0600212,9.94559217 L9.72301158,9.94559217 L9.72301158,5.5367665 C9.72301158,5.24039799 9.50095431,5 9.22672315,5 L9.19109219,5 C8.9170731,5 8.69480375,5.24016861 8.69480375,5.5367665 L8.69480375,10.2538888 L8.3580063,10.2538888 L8.3580063,6.2113948 C8.3580063,5.91502629 8.13573695,5.67462831 7.86150579,5.67462831 L7.82587483,5.67462831 C7.55185574,5.67462831 7.32958639,5.91502629 7.32958639,6.2113948 L7.32958639,10.6392596 L6.99278894,10.6392596 L6.99278894,7.47210791 C6.99278894,7.1757394 6.77051959,6.93534141 6.49650051,6.93534141 C6.22226935,6.93534141 6,7.1757394 6,7.47210791 L6,14.6640908 L6.00784728,14.6640908 C6.06320252,15.34216 6.42926829,15.923657 6.95100741,16.2411291 C6.95143156,16.2413586 6.95185577,16.2418173 6.95185577,16.2422761 C6.95185577,16.2422761 6.95206784,18.5184872 6.95249199,20.98876 C7.09077412,20.9961004 7.22969243,21 7.36945914,21 C8.6907741,21 9.9401908,20.6687646 11.0517496,20.0796978 C11.0521738,18.0262218 11.0523859,16.3342604 11.0523859,16.3342604 C11.0523859,16.3338016 11.0528101,16.3333429 11.0532343,16.3331135 C11.6106043,16.0635833 12,15.4586887 12,14.7569927 L12,10.7461541 C12.000212,10.3506903 11.7015905,10.0313831 11.335949,10.0359708 Z" id="Path" fill="#FFBEAA"></path>
                    <path d="M11.0205128,12.7494289 C11.0213131,12.7494289 11.0218465,12.7487117 11.0218465,12.7479944 L11.0218465,10.9631036 C11.0218465,10.9451734 11.02238,10.9274823 11.0234469,10.9097912 C11.0498537,10.4622536 11.4950333,9.91669767 11.9951603,9.91406789 C12.0031623,9.91406789 11.999428,6.90179568 11.9967606,5.95914572 C11.9959604,5.65050734 11.7166895,5.40139724 11.3726022,5.40139724 L11.3710018,5.40139724 C11.0261143,5.40139724 10.7468434,5.65170273 10.7468434,5.96081922 L10.7468434,10.1543324 L10.3230025,10.1543324 L10.3230025,5.55942198 C10.3230025,5.25054455 10.0437316,5 9.69884404,5 L9.65403267,5 C9.30941187,5 9.02987425,5.25030549 9.02987425,5.55942198 L9.02987425,10.4756415 L9,10.4756415 L9,14 C9.41930643,13.3463847 10.1530927,12.870876 11.0205128,12.7494289 Z" id="Path" fill="#FAA68E"></path>
                    <path d="M11.2018858,10 C10.7697013,10.0046988 10.4221189,10.3254987 10.4221189,10.7197571 L10.4221189,12.8386639 C10.4221189,12.8395938 10.4213544,12.8400587 10.4205899,12.8402912 L10.193795,12.8544714 C9.14748043,12.9209561 8.3063006,13.6527519 8.15442445,14.5754003 L8,14.5765626 L8,21 C9.01114863,20.856105 9.97260629,20.5755213 10.8604192,20.1784733 C10.8609289,18.0976905 10.8614386,16.3830382 10.8614386,16.3830382 C10.8614386,16.3823408 10.8616934,16.3818759 10.862203,16.3816434 C11.5318851,16.1084985 12,15.4957242 12,14.7843852 L12,10.7199896 C12,10.3189898 11.6412053,9.99540026 11.2018858,10 Z" id="Path" fill="#FAA68E"></path>
                    <path d="M14,29.9927726 C14.1594877,29.997109 14.3194473,30 14.4801146,30 C16.809909,30 19.018672,29.5481828 21,28.7405699 L21,24 L14,24 L14,29.9927726 Z" id="Path" fill="#E9EDF5"></path>
                    <path d="M22,24 L18,24 L18,30 C19.4055605,29.789627 20.7475037,29.4127886 22,28.8931438 L22,24 Z" id="Path" fill="#DCE1EB"></path>
                    <path d="M6,26.9795044 C7.99477589,28.5116998 10.3863836,29.5746072 13,30 L13,19 L6,19 L6,26.9795044 Z" id="Path" fill="#FFD400"></path>
                    <path d="M12,19 L8,19 L8,28.9168686 C9.25909415,29.4210889 10.5999873,29.7890272 12,30 L12,19 Z" id="Path" fill="#FDBA12"></path>
                </g>
            </g>
        </g>
    </g>
</svg>